SplineFontDB: 3.0
FontName: Rosario-BoldItalic
FullName: Rosario Bold Italic
FamilyName: Rosario
Weight: Bold
Copyright: Rosario is the name of the city of its type designer, Hector Gatti. This is a new typeface of classic proportions, subtle contrast and soft endings. Carefully produced, elegant, ideal for magazines and academic journals. 
Version: 001.001
ItalicAngle: 0
UnderlinePosition: -50
UnderlineWidth: 50
Ascent: 800
Descent: 200
sfntRevision: 0x00010000
LayerCount: 2
Layer: 0 1 "Back"  1
Layer: 1 1 "Fore"  0
NeedsXUIDChange: 1
XUID: [1021 288 713564382 1524470]
FSType: 0
OS2Version: 2
OS2_WeightWidthSlopeOnly: 0
OS2_UseTypoMetrics: 1
CreationTime: 1323181529
ModificationTime: 1323210528
PfmFamily: 17
TTFWeight: 700
TTFWidth: 5
LineGap: 0
VLineGap: 0
Panose: 2 0 5 3 4 0 0 2 0 3
OS2TypoAscent: 177
OS2TypoAOffset: 1
OS2TypoDescent: -35
OS2TypoDOffset: 1
OS2TypoLinegap: 0
OS2WinAscent: 0
OS2WinAOffset: 1
OS2WinDescent: 4
OS2WinDOffset: 1
HheadAscent: 0
HheadAOffset: 1
HheadDescent: -4
HheadDOffset: 1
OS2SubXSize: 700
OS2SubYSize: 650
OS2SubXOff: 0
OS2SubYOff: 140
OS2SupXSize: 700
OS2SupYSize: 650
OS2SupXOff: 0
OS2SupYOff: 477
OS2StrikeYSize: 50
OS2StrikeYPos: 250
OS2CodePages: 00000001.00000000
OS2UnicodeRanges: 00000001.00000000.00000000.00000000
Lookup: 258 0 0 "'kern' Horizontal Kerning in Latin lookup 0"  {"'kern' Horizontal Kerning in Latin lookup 0 subtable"  } ['kern' ('DFLT' <'dflt' > 'latn' <'dflt' > ) ]
MarkAttachClasses: 1
DEI: 91125
TtTable: prep
PUSHW_1
 511
SCANCTRL
PUSHB_1
 4
SCANTYPE
EndTTInstrs

StartChar: exclam
Encoding: 33 33 4
Width: 248
Flags: HMW
HStem: -12 148<67 107.5> 702 20G<124 149.5>
VStem: 13 149<41.5 82>
LayerCount: 2
Fore
SplineSet
35 9.5 m 128,-1,1
 13 31 13 31 13 61.5 c 128,-1,2
 13 92 13 92 35 114 c 128,-1,3
 57 136 57 136 87.5 136 c 128,-1,4
 118 136 118 136 140 114.5 c 128,-1,5
 162 93 162 93 162 62 c 128,-1,6
 162 31 162 31 140 9.5 c 128,-1,7
 118 -12 118 -12 87.5 -12 c 128,-1,0
 57 -12 57 -12 35 9.5 c 128,-1,1
155 209 m 1,8,-1
 67 222 l 1,9,-1
 103 688 l 2,10,11
 105 706 105 706 112 714 c 128,-1,12
 119 722 119 722 133.5 722 c 128,-1,13
 148 722 148 722 216 712 c 0,14,15
 250 707 250 707 250 680 c 0,16,17
 250 670 250 670 249 667 c 2,18,-1
 155 209 l 1,8,-1
EndSplineSet
EndChar

StartChar: quotedbl
Encoding: 34 34 5
Width: 327
Flags: HMW
HStem: 449 21G<99 120 99 99 245 245 245 267> 712 20G<102 196 196 196 249 343 343 343>
LayerCount: 2
Fore
SplineSet
172 559 m 1,0,-1
 120 449 l 1,1,-1
 99 449 l 1,2,3
 99 452 99 452 95.5 468.5 c 0,4,5
 85 518 85 518 81 542 c 2,6,-1
 78 559 l 1,7,-1
 102 732 l 1,8,-1
 196 732 l 1,9,-1
 172 559 l 1,0,-1
319 559 m 1,10,-1
 267 449 l 1,11,-1
 245 449 l 1,12,13
 245 454 245 454 235 506.5 c 2,14,-1
 225 559 l 1,15,-1
 249 732 l 1,16,-1
 343 732 l 1,17,-1
 319 559 l 1,10,-1
EndSplineSet
EndChar

StartChar: numbersign
Encoding: 35 35 6
Width: 578
Flags: HMW
HStem: 0 21G<114 203 114 114 297 386 297 297> 208 89<36 142 36 154 36 231 243 325 426 532> 425 89<62 172 62 184 273 355 62 261 456 558> 712 20G<213 302 302 302 396 485 485 485>
LayerCount: 2
Fore
SplineSet
142 208 m 1,0,-1
 36 208 l 1,1,-1
 36 297 l 1,2,-1
 154 297 l 1,3,-1
 172 425 l 1,4,-1
 62 425 l 1,5,-1
 62 514 l 1,6,-1
 184 514 l 1,7,-1
 213 732 l 1,8,-1
 302 732 l 1,9,-1
 273 514 l 1,10,-1
 367 514 l 1,11,-1
 396 732 l 1,12,-1
 485 732 l 1,13,-1
 456 514 l 1,14,-1
 558 514 l 1,15,-1
 558 425 l 1,16,-1
 444 425 l 1,17,-1
 426 297 l 1,18,-1
 532 297 l 1,19,-1
 532 208 l 1,20,-1
 414 208 l 1,21,-1
 386 0 l 1,22,-1
 297 0 l 1,23,-1
 325 208 l 1,24,-1
 231 208 l 1,25,-1
 203 0 l 1,26,-1
 114 0 l 1,27,-1
 142 208 l 1,0,-1
261 425 m 1,28,-1
 243 297 l 1,29,-1
 337 297 l 1,30,-1
 355 425 l 1,31,-1
 261 425 l 1,28,-1
EndSplineSet
EndChar

StartChar: dollar
Encoding: 36 36 7
Width: 408
Flags: HMW
HStem: -125 196<126.5 141 72 166> -13 84<126.5 166> 429 81<237 237 237 261> 429 195<229 329>
VStem: 44 128<329 389.5> 226 128<129 186.5>
LayerCount: 2
Fore
SplineSet
-8 29 m 1,0,-1
 44 111 l 1,1,2
 106 71 106 71 142.5 71 c 0,3,4
 179 71 179 71 202.5 89.5 c 128,-1,5
 226 108 226 108 226 137.5 c 0,6,7
 226 167 226 167 207.5 182.5 c 128,-1,8
 189 198 189 198 162 208.5 c 128,-1,9
 135 219 135 219 108 231.5 c 128,-1,10
 81 244 81 244 62.5 269.5 c 128,-1,11
 44 295 44 295 44 332 c 0,12,13
 44 412 44 412 102 459 c 128,-1,14
 160 506 160 506 237 510 c 1,15,-1
 261 624 l 1,16,-1
 329 624 l 1,17,-1
 285 508 l 1,18,19
 348 500 348 500 385 479 c 1,20,-1
 335 395 l 1,21,22
 296 429 296 429 245 429 c 0,23,24
 217 429 217 429 194.5 414 c 128,-1,25
 172 399 172 399 172 373 c 0,26,27
 172 347 172 347 190.5 332.5 c 128,-1,28
 209 318 209 318 236 307.5 c 128,-1,29
 263 297 263 297 290 284.5 c 128,-1,30
 317 272 317 272 335.5 245.5 c 128,-1,31
 354 219 354 219 354 180 c 0,32,33
 354 101 354 101 304 47 c 128,-1,34
 254 -7 254 -7 166 -13 c 1,35,-1
 141 -125 l 1,36,-1
 72 -125 l 1,37,-1
 117 -12 l 1,38,39
 44 -5 44 -5 -8 29 c 1,0,-1
EndSplineSet
EndChar

StartChar: percent
Encoding: 37 37 8
Width: 835
Flags: HMW
HStem: -12 21G<174 241 174 174> -4 79<581 637.5 581 661> 304 79<190 246.5 190 269> 326 79<602.5 659> 645 54<380 567 380 380> 645 68
VStem: 57 104<445.5 489 445.5 525.5> 297 103<529 569.5 493.5 572.5> 449 103<137.5 181 137.5 217.5> 688 103<221 264.5>
LayerCount: 2
Fore
SplineSet
93.5 348 m 128,-1,1
 57 392 57 392 57 460 c 128,-1,2
 57 528 57 528 77.5 583 c 128,-1,3
 98 638 98 638 144.5 675.5 c 128,-1,4
 191 713 191 713 256 713 c 0,5,6
 298 713 298 713 325 699 c 1,7,-1
 665 699 l 1,8,-1
 241 -12 l 1,9,-1
 174 -12 l 1,10,-1
 567 645 l 1,11,-1
 380 645 l 1,12,13
 400 608 400 608 400 554 c 0,14,15
 400 454 400 454 348 379 c 128,-1,16
 296 304 296 304 201 304 c 0,17,0
 130 304 130 304 93.5 348 c 128,-1,1
212 383 m 0,18,19
 244 383 244 383 264.5 417 c 0,20,21
 297 470.902439024 297 470.902439024 297 552.451219512 c 128,-1,22
 297 634 297 634 245 634 c 0,23,24
 213 634 213 634 193 600.5 c 0,25,26
 161 546.9 161 546.9 161 464.95 c 128,-1,27
 161 383 161 383 212 383 c 0,18,19
449 157 m 0,28,29
 449 257 449 257 500.5 331 c 128,-1,30
 552 405 552 405 647 405 c 0,31,32
 719 405 719 405 755 361.5 c 128,-1,33
 791 318 791 318 791 245 c 0,34,35
 791 145 791 145 739.5 70.5 c 128,-1,36
 688 -4 688 -4 593 -4 c 0,37,38
 521 -4 521 -4 485 40 c 128,-1,39
 449 84 449 84 449 157 c 0,28,29
603 75 m 0,40,41
 635 75 635 75 655.5 109 c 0,42,43
 688 162.902439024 688 162.902439024 688 244.451219512 c 128,-1,44
 688 326 688 326 637 326 c 0,45,46
 605 326 605 326 584.5 292.5 c 0,47,48
 552 239.390243902 552 239.390243902 552 157.195121951 c 128,-1,49
 552 75 552 75 603 75 c 0,40,41
EndSplineSet
EndChar

StartChar: ampersand
Encoding: 38 38 9
Width: 731
Flags: HMW
HStem: -12 95<282.5 351 282.5 360.5> 202 89 202 110<597 718> 220 71<459 475 442.5 476.5> 300 71<350.5 364.5 350.5 389> 407 66<367 385> 615 79<399 464.5>
VStem: 69 132<159 221 159 226> 160 118<465.5 515 465.5 553.5> 356 150<192 425> 410 96<383.5 398.5> 495 223<189 312>
LayerCount: 2
Fore
SplineSet
69 182 m 0,0,1
 69 313 69 313 181 400 c 1,2,3
 160 439 160 439 160 479 c 0,4,5
 160 550 160 550 203 600.5 c 0,6,7
 282.613861386 694 282.613861386 694 437 694 c 0,8,9
 492 694 492 694 545 674 c 128,-1,10
 598 654 598 654 632 616 c 1,11,-1
 572 555 l 1,12,13
 547 580 547 580 510.5 597.5 c 128,-1,14
 474 615 474 615 442 615 c 0,15,16
 374 615 374 615 326 575 c 128,-1,17
 278 535 278 535 278 469 c 0,18,19
 278 457 278 457 279 454 c 1,20,21
 334 473 334 473 374.5 473 c 128,-1,22
 415 473 415 473 440 467 c 128,-1,23
 465 461 465 461 485.5 442 c 128,-1,24
 506 423 506 423 506 392 c 0,25,26
 506 349 506 349 458.5 324.5 c 128,-1,27
 411 300 411 300 352 300 c 128,-1,28
 293 300 293 300 246 331 c 1,29,30
 201 270 201 270 201 205.5 c 0,31,32
 201 83 201 83 319 83 c 0,33,34
 425 83 425 83 480 159 c 1,35,36
 495 183 495 183 495 195 c 0,37,38
 495 220 495 220 467 220 c 0,39,40
 455 220 455 220 445.5 212 c 128,-1,41
 436 204 436 204 434 192 c 1,42,-1
 356 192 l 1,43,44
 356 243 356 243 389 267 c 128,-1,45
 422 291 422 291 475 291 c 1,46,-1
 601 279 l 1,47,48
 616 279 616 279 627.5 288.5 c 128,-1,49
 639 298 639 298 640 312 c 1,50,-1
 718 312 l 1,51,52
 718 202 718 202 597 202 c 1,53,54
 552 93 552 93 475.5 40.5 c 128,-1,55
 399 -12 399 -12 292 -12 c 128,-1,56
 185 -12 185 -12 127 37.5 c 128,-1,57
 69 87 69 87 69 182 c 0,0,1
312 389 m 1,58,59
 333 371 333 371 353 371 c 128,-1,60
 373 371 373 371 391.5 376 c 128,-1,61
 410 381 410 381 410 391 c 0,62,63
 410 407 410 407 377 407 c 128,-1,64
 344 407 344 407 312 389 c 1,58,59
EndSplineSet
EndChar

StartChar: quotesingle
Encoding: 39 39 10
Width: 180
Flags: HMW
HStem: 449 21G<99 120 99 99> 712 20G<102 196 196 196>
LayerCount: 2
Fore
SplineSet
172 559 m 1,0,-1
 120 449 l 1,1,-1
 99 449 l 1,2,3
 99 452 99 452 95.5 468.5 c 0,4,5
 85 518 85 518 81 542 c 2,6,-1
 78 559 l 1,7,-1
 102 732 l 1,8,-1
 196 732 l 1,9,-1
 172 559 l 1,0,-1
EndSplineSet
EndChar

StartChar: parenleft
Encoding: 40 40 11
Width: 308
Flags: HMW
HStem: -146 21G<153 153> 723 20G<271 271>
VStem: 26 112<154 306 136.5 323>
LayerCount: 2
Fore
SplineSet
26 222 m 0,0,1
 26 493 26 493 271 743 c 1,2,-1
 360 727 l 1,3,4
 248 607 248 607 193 480.5 c 128,-1,5
 138 354 138 354 138 193.5 c 0,6,7
 138 33 138 33 246 -130 c 1,8,-1
 153 -146 l 1,9,10
 26 28 26 28 26 222 c 0,0,1
EndSplineSet
EndChar

StartChar: parenright
Encoding: 41 41 12
Width: 308
Flags: HMW
HStem: -146 21G<35 35> 723 20G<153 153>
VStem: 168 112<290.5 442.5 274 459.5>
LayerCount: 2
Fore
SplineSet
35 -146 m 1,0,-1
 -54 -130 l 1,1,2
 57 -13 57 -13 112.5 114.5 c 128,-1,3
 168 242 168 242 168 402.5 c 0,4,5
 168 563 168 563 61 727 c 1,6,-1
 153 743 l 1,7,8
 280 569 280 569 280 375 c 0,9,10
 280 232 280 232 213.5 99 c 128,-1,11
 147 -34 147 -34 35 -146 c 1,0,-1
EndSplineSet
EndChar

StartChar: asterisk
Encoding: 42 42 13
Width: 465
Flags: HMW
HStem: 353 21G<309 309> 721 20G<234 345 345 345>
LayerCount: 2
Fore
SplineSet
217 531 m 1,0,-1
 67 552 l 1,1,-1
 111 659 l 1,2,-1
 241 585 l 1,3,-1
 234 741 l 1,4,-1
 345 741 l 1,5,-1
 298 585 l 1,6,-1
 443 663 l 1,7,-1
 469 555 l 1,8,-1
 308 528 l 1,9,-1
 407 422 l 1,10,-1
 309 353 l 1,11,-1
 257 494 l 1,12,-1
 167 356 l 1,13,-1
 90 420 l 1,14,-1
 217 531 l 1,0,-1
EndSplineSet
EndChar

StartChar: plus
Encoding: 43 43 14
Width: 566
Flags: HMW
HStem: 0 21G<231 319 231 231> 205 88<319 524 319 524> 477 20G<231 319 319 319>
VStem: 231 88<0 204 204 204 293 497>
LayerCount: 2
Fore
SplineSet
231 204 m 1,0,-1
 26 204 l 1,1,-1
 26 292 l 1,2,-1
 231 292 l 1,3,-1
 231 497 l 1,4,-1
 319 497 l 1,5,-1
 319 293 l 1,6,-1
 524 293 l 1,7,-1
 524 205 l 1,8,-1
 319 205 l 1,9,-1
 319 0 l 1,10,-1
 231 0 l 1,11,-1
 231 204 l 1,0,-1
EndSplineSet
EndChar

StartChar: comma
Encoding: 44 44 15
Width: 233
Flags: HMW
HStem: -134 21G<18 18> 119 20G<63.5 107.5>
VStem: 5 156<36.5 82.5> 41 120<-28.5 83.5>
LayerCount: 2
Fore
SplineSet
18 -134 m 1,0,-1
 -15 -93 l 1,1,2
 41 -43 41 -43 41 -16 c 0,3,4
 41 -10 41 -10 23 11.5 c 128,-1,5
 5 33 5 33 5 63 c 0,6,7
 5 93 5 93 28.5 116 c 128,-1,8
 52 139 52 139 85.5 139 c 0,9,10
 119 139 119 139 140 117 c 128,-1,11
 161 95 161 95 161 62 c 0,12,13
 161 7 161 7 117.5 -45.5 c 128,-1,14
 74 -98 74 -98 18 -134 c 1,0,-1
EndSplineSet
EndChar

StartChar: hyphen
Encoding: 45 45 16
Width: 332
Flags: HMW
HStem: 210 95<55 263 42 276>
LayerCount: 2
Fore
SplineSet
263 210 m 1,0,-1
 42 210 l 1,1,-1
 55 305 l 1,2,-1
 276 305 l 1,3,-1
 263 210 l 1,0,-1
EndSplineSet
EndChar

StartChar: period
Encoding: 46 46 17
Width: 230
Flags: HMW
HStem: -12 155<60.5 103.5 60.5 104>
VStem: 5 155<43.5 86.5 43.5 87>
LayerCount: 2
Fore
SplineSet
27.5 10.5 m 128,-1,1
 5 33 5 33 5 65.5 c 128,-1,2
 5 98 5 98 27.5 120.5 c 128,-1,3
 50 143 50 143 82 143 c 128,-1,4
 114 143 114 143 137 120 c 128,-1,5
 160 97 160 97 160 65 c 128,-1,6
 160 33 160 33 137.5 10.5 c 128,-1,7
 115 -12 115 -12 82.5 -12 c 128,-1,0
 50 -12 50 -12 27.5 10.5 c 128,-1,1
EndSplineSet
EndChar

StartChar: slash
Encoding: 47 47 18
Width: 331
Flags: HMW
HStem: 0 21G<-8 85 -8 -8> 712 20G<261 355 355 355>
LayerCount: 2
Fore
SplineSet
85 0 m 1,0,-1
 -8 0 l 1,1,-1
 261 732 l 1,2,-1
 355 732 l 1,3,-1
 85 0 l 1,0,-1
EndSplineSet
EndChar

StartChar: zero
Encoding: 48 48 19
Width: 569
Flags: HMW
HStem: -12 81<211.5 313 211.5 344.5> 429 81<239 340.5>
VStem: 26 123<156 237 156 296.5> 403 124<253 337>
LayerCount: 2
Fore
SplineSet
26 197 m 0,0,1
 26 344 26 344 103.5 427 c 128,-1,2
 181 510 181 510 311 510 c 0,3,4
 416 510 416 510 471.5 455.5 c 128,-1,5
 527 401 527 401 527 301 c 0,6,7
 527 167 527 167 456.5 77.5 c 128,-1,8
 386 -12 386 -12 242 -12 c 0,9,10
 138 -12 138 -12 82 43 c 128,-1,11
 26 98 26 98 26 197 c 0,0,1
149 189 m 0,12,13
 149 69 149 69 253 69 c 0,14,15
 296 69 296 69 327 91 c 128,-1,16
 358 113 358 113 373.5 149.5 c 0,17,18
 403 218.967741935 403 218.967741935 403 303 c 0,19,20
 403 429 403 429 300 429 c 0,21,22
 257 429 257 429 225.5 405.5 c 128,-1,23
 194 382 194 382 178.5 344 c 0,24,25
 149 271.677419355 149 271.677419355 149 189 c 0,12,13
EndSplineSet
EndChar

StartChar: one
Encoding: 49 49 20
Width: 390
Flags: HMW
HStem: 0 99<22 125 240 326 9 125> 478 20G<218 292 292 292>
LayerCount: 2
Fore
SplineSet
326 0 m 1,0,-1
 9 0 l 1,1,-1
 22 99 l 1,2,-1
 125 99 l 1,3,-1
 161 378 l 1,4,-1
 55 349 l 1,5,-1
 43 413 l 1,6,-1
 218 498 l 1,7,-1
 292 498 l 1,8,-1
 240 99 l 1,9,-1
 339 99 l 1,10,-1
 326 0 l 1,0,-1
EndSplineSet
EndChar

StartChar: two
Encoding: 50 50 21
Width: 470
Flags: HMW
HStem: 0 99<168 377> 421 91<229 240.5>
VStem: 276 139<367.5 388.5>
LayerCount: 2
Fore
SplineSet
377 0 m 1,0,-1
 -2 0 l 1,1,-1
 -2 54 l 1,2,3
 44 99 44 99 131.5 189.5 c 128,-1,4
 219 280 219 280 236 297 c 0,5,6
 276 337 276 337 276 373 c 0,7,8
 276 396 276 396 262 408.5 c 128,-1,9
 248 421 248 421 226 421 c 0,10,11
 171 421 171 421 99 355 c 1,12,-1
 50 419 l 1,13,14
 159 512 159 512 271 512 c 0,15,16
 331 512 331 512 373 482 c 128,-1,17
 415 452 415 452 415 395 c 0,18,19
 415 321 415 321 347 256 c 0,20,21
 307.103448276 217.637931034 307.103448276 217.637931034 245.551724138 165.318965517 c 128,-1,22
 184 113 184 113 168 99 c 1,23,-1
 417 99 l 1,24,-1
 377 0 l 1,0,-1
EndSplineSet
EndChar

StartChar: three
Encoding: 51 51 22
Width: 478
Flags: HMW
HStem: -198 70<-48 -44 -48 -36> 148 77<213.5 326> 428 83<256 345.5>
VStem: 284 135<4.5 109.5> 303 116 303 135<378.5 404>
LayerCount: 2
Fore
SplineSet
-44 -198 m 1,0,-1
 -48 -128 l 1,1,2
 60.1997105644 -123.756874096 60.1997105644 -123.756874096 159.5 -83.5 c 0,3,4
 215 -61 215 -61 249.5 -16 c 128,-1,5
 284 29 284 29 284 88.5 c 128,-1,6
 284 148 284 148 225 148 c 0,7,8
 194 148 194 148 157 134 c 1,9,-1
 132 206 l 1,10,11
 192 233 192 233 247.5 286.5 c 128,-1,12
 303 340 303 340 303 394 c 0,13,14
 303 428 303 428 272 428 c 0,15,16
 230 428 230 428 172 379 c 1,17,-1
 126 435 l 1,18,19
 159 471 159 471 213.5 491 c 128,-1,20
 268 511 268 511 317.5 511 c 128,-1,21
 367 511 367 511 402.5 489.5 c 128,-1,22
 438 468 438 468 438 416 c 128,-1,23
 438 364 438 364 381.5 310 c 128,-1,24
 325 256 325 256 258 223 c 1,25,26
 280 225 280 225 288 225 c 0,27,28
 348 225 348 225 383.5 196.5 c 128,-1,29
 419 168 419 168 419 112 c 0,30,31
 419 35 419 35 375.5 -26.5 c 128,-1,32
 332 -88 332 -88 262.5 -124 c 0,33,34
 119.638888889 -198 119.638888889 -198 -36 -198 c 2,35,-1
 -44 -198 l 1,0,-1
EndSplineSet
EndChar

StartChar: four
Encoding: 52 52 23
Width: 524
Flags: HMW
HStem: -184 21G<221 340 221 221> -1 100<117 245 377 459> 478 20G<305 429 429 429>
LayerCount: 2
Fore
SplineSet
245 -1 m 1,0,-1
 -25 -1 l 1,1,-1
 -25 57 l 1,2,-1
 305 498 l 1,3,-1
 429 498 l 1,4,-1
 377 99 l 1,5,-1
 476 99 l 1,6,-1
 459 -1 l 1,7,-1
 364 -1 l 1,8,-1
 340 -184 l 1,9,-1
 221 -184 l 1,10,-1
 245 -1 l 1,0,-1
288 329 m 1,11,-1
 117 99 l 1,12,-1
 258 99 l 1,13,-1
 288 329 l 1,11,-1
EndSplineSet
EndChar

StartChar: five
Encoding: 53 53 24
Width: 381
Flags: HMW
HStem: -207 21G<-6 -6> 377 121<165 343 165 165>
VStem: 185 126<14 121.5>
LayerCount: 2
Fore
SplineSet
-6 -207 m 1,0,-1
 -27 -145 l 1,1,2
 185 -77 185 -77 185 77 c 0,3,4
 185 137 185 137 132.5 190.5 c 128,-1,5
 80 244 80 244 16 273 c 1,6,-1
 113 498 l 1,7,-1
 376 498 l 1,8,-1
 343 377 l 1,9,-1
 165 377 l 1,10,-1
 144 327 l 1,11,12
 217 285 217 285 264 222.5 c 128,-1,13
 311 160 311 160 311 90 c 128,-1,14
 311 20 311 20 282 -32.5 c 128,-1,15
 253 -85 253 -85 206 -120 c 0,16,17
 108.369098712 -192.703862661 108.369098712 -192.703862661 -6 -207 c 1,0,-1
EndSplineSet
EndChar

StartChar: six
Encoding: 54 54 25
Width: 532
Flags: HMW
HStem: -12 83<208.5 281.5 208.5 310.5> 335 86<291 306.5> 710 20G<515 515>
VStem: 25 128<167 213.5 167 310> 361 129<197 259.5>
LayerCount: 2
Fore
SplineSet
80.5 46.5 m 128,-1,1
 25 105 25 105 25 192.5 c 128,-1,2
 25 280 25 280 54 353 c 128,-1,3
 83 426 83 426 134 485 c 0,4,5
 232.931996513 599.450741064 232.931996513 599.450741064 374 672 c 0,6,7
 460 716 460 716 515 730 c 1,8,-1
 533 665 l 1,9,10
 436 630 436 630 344.5 553.5 c 128,-1,11
 253 477 253 477 198 384 c 1,12,13
 257 421 257 421 313 421 c 0,14,15
 393 421 393 421 441.5 373.5 c 128,-1,16
 490 326 490 326 490 246 c 0,17,18
 490 143 490 143 417.5 65.5 c 128,-1,19
 345 -12 345 -12 240.5 -12 c 128,-1,0
 136 -12 136 -12 80.5 46.5 c 128,-1,1
165 282 m 1,20,21
 153 234 153 234 153 189.5 c 128,-1,22
 153 145 153 145 174.5 108 c 128,-1,23
 196 71 196 71 246.5 71 c 128,-1,24
 297 71 297 71 329 121.5 c 128,-1,25
 361 172 361 172 361 224 c 128,-1,26
 361 276 361 276 340 305.5 c 128,-1,27
 319 335 319 335 277 335 c 0,28,29
 218 335 218 335 165 282 c 1,20,21
EndSplineSet
EndChar

StartChar: seven
Encoding: 55 55 26
Width: 437
Flags: HMW
HStem: -189 21G<42 171 42 42> 386 111<55 299 25 442>
LayerCount: 2
Fore
SplineSet
299 386 m 1,0,-1
 25 386 l 1,1,-1
 55 497 l 1,2,-1
 442 497 l 1,3,-1
 442 434 l 1,4,-1
 171 -189 l 1,5,-1
 42 -189 l 1,6,-1
 299 386 l 1,0,-1
EndSplineSet
EndChar

StartChar: eight
Encoding: 56 56 27
Width: 492
Flags: HMW
HStem: -12 81<180.5 235 180.5 272.5> 653 79<277 322.5>
VStem: 19 107<129.5 182.5 129.5 204.5> 92 130<532.5 578 532.5 594.5> 309 128<152 206> 359 107<552 601.5>
LayerCount: 2
Fore
SplineSet
174 374 m 1,0,1
 132 416 132 416 112 450 c 128,-1,2
 92 484 92 484 92 532 c 0,3,4
 92 622 92 622 154.5 677 c 128,-1,5
 217 732 217 732 294 732 c 128,-1,6
 371 732 371 732 418.5 695.5 c 128,-1,7
 466 659 466 659 466 593 c 0,8,9
 466 517.194444444 466 517.194444444 425 470.5 c 0,10,11
 407 450 407 450 401 443.5 c 0,12,13
 385.823529412 427.058823529 385.823529412 427.058823529 337 388 c 1,14,-1
 343 381 l 1,15,16
 399.918918919 324.081081081 399.918918919 324.081081081 418.459459459 281.040540541 c 128,-1,17
 437 238 437 238 437 202 c 0,18,19
 437 108 437 108 372 48 c 128,-1,20
 307 -12 307 -12 202 -12 c 0,21,22
 125 -12 125 -12 72 29.5 c 128,-1,23
 19 71 19 71 19 146 c 0,24,25
 19 186.692307692 19 186.692307692 28 208.846153846 c 128,-1,26
 37 231 37 231 41.5 243 c 128,-1,27
 46 255 46 255 58.5 269.5 c 128,-1,28
 71 284 71 284 77 291.5 c 128,-1,29
 83 299 83 299 100 314 c 128,-1,30
 117 329 117 329 122.5 333.5 c 128,-1,31
 128 338 128 338 148.5 354 c 128,-1,32
 169 370 169 370 174 374 c 1,0,1
126 154 m 0,33,34
 126 116 126 116 147.5 92.5 c 128,-1,35
 169 69 169 69 209 69 c 128,-1,36
 249 69 249 69 279 103 c 128,-1,37
 309 137 309 137 309 181 c 0,38,39
 309 205.230769231 309 205.230769231 300.5 219.615384615 c 128,-1,40
 292 234 292 234 288.5 241 c 128,-1,41
 285 248 285 248 274.5 260 c 128,-1,42
 264 272 264 272 261 275.5 c 128,-1,43
 258 279 258 279 245.5 292.5 c 2,44,-1
 233 306 l 1,45,-1
 195 276 l 2,46,47
 126 222 126 222 126 154 c 0,33,34
277 456 m 1,48,49
 304 478 304 478 317.5 490.5 c 128,-1,50
 331 503 331 503 345 528.5 c 128,-1,51
 359 554 359 554 359 583 c 0,52,53
 359 653 359 653 301 653 c 0,54,55
 267 653 267 653 244.5 622.5 c 128,-1,56
 222 592 222 592 222 555.5 c 0,57,58
 222 511 222 511 277 456 c 1,48,49
EndSplineSet
EndChar

StartChar: nine
Encoding: 57 57 28
Width: 519
Flags: HMW
HStem: -214 21G<-6 -6> 78 86<206.5 221> 428 83<230 303.5>
VStem: 22 130<238 300.5 238 326.5> 359 128<285.5 332>
LayerCount: 2
Fore
SplineSet
-6 -214 m 1,0,-1
 -23 -149 l 1,1,2
 76 -116 76 -116 168.5 -45.5 c 128,-1,3
 261 25 261 25 314 115 c 1,4,5
 255 78 255 78 199 78 c 0,6,7
 119 78 119 78 70.5 125.5 c 128,-1,8
 22 173 22 173 22 252 c 0,9,10
 22 361 22 361 100.5 436 c 128,-1,11
 179 511 179 511 277.5 511 c 128,-1,12
 376 511 376 511 431.5 452 c 128,-1,13
 487 393 487 393 487 299 c 128,-1,14
 487 205 487 205 444 119.5 c 128,-1,15
 401 34 401 34 330 -30 c 0,16,17
 185.164150024 -160.556259133 185.164150024 -160.556259133 -6 -214 c 1,0,-1
183.5 376.5 m 128,-1,19
 152 325 152 325 152 273 c 0,20,21
 152 164 152 164 236 164 c 0,22,23
 293 164 293 164 348 217 c 1,24,25
 359 259 359 259 359 306.5 c 128,-1,26
 359 354 359 354 337.5 391 c 128,-1,27
 316 428 316 428 265.5 428 c 128,-1,18
 215 428 215 428 183.5 376.5 c 128,-1,19
EndSplineSet
EndChar

StartChar: colon
Encoding: 58 58 29
Width: 257
Flags: HMW
HStem: -12 155<71 113.5 70.5 114.5> 276 155<116.5 159 115.5 159.5>
VStem: 15 155<43.5 86.5 43.5 87> 60 155<332.5 375.5>
LayerCount: 2
Fore
SplineSet
37.5 10.5 m 128,-1,1
 15 33 15 33 15 65.5 c 128,-1,2
 15 98 15 98 37.5 120.5 c 128,-1,3
 60 143 60 143 92 143 c 128,-1,4
 124 143 124 143 147 120 c 128,-1,5
 170 97 170 97 170 65 c 128,-1,6
 170 33 170 33 147.5 10.5 c 128,-1,7
 125 -12 125 -12 92.5 -12 c 128,-1,0
 60 -12 60 -12 37.5 10.5 c 128,-1,1
60 354 m 128,-1,9
 60 386 60 386 82.5 408.5 c 128,-1,10
 105 431 105 431 137.5 431 c 128,-1,11
 170 431 170 431 192.5 408.5 c 128,-1,12
 215 386 215 386 215 353.5 c 128,-1,13
 215 321 215 321 192.5 298.5 c 128,-1,14
 170 276 170 276 138 276 c 128,-1,15
 106 276 106 276 83 299 c 128,-1,8
 60 322 60 322 60 354 c 128,-1,9
EndSplineSet
EndChar

StartChar: semicolon
Encoding: 59 59 30
Width: 258
Flags: HMW
HStem: -134 21G<29 29> 139 137<115.5 118.5> 276 155<115.5 158.5>
VStem: 16 156<36.5 82.5> 52 162
LayerCount: 2
Fore
SplineSet
29 -134 m 1,0,-1
 -4 -93 l 1,1,2
 52 -43 52 -43 52 -16 c 0,3,4
 52 -10 52 -10 34 11.5 c 128,-1,5
 16 33 16 33 16 63 c 0,6,7
 16 93 16 93 39.5 116 c 128,-1,8
 63 139 63 139 96.5 139 c 0,9,10
 130 139 130 139 151 117 c 128,-1,11
 172 95 172 95 172 62 c 0,12,13
 172 7 172 7 128.5 -45.5 c 128,-1,14
 85 -98 85 -98 29 -134 c 1,0,-1
59 354 m 128,-1,16
 59 386 59 386 81.5 408.5 c 128,-1,17
 104 431 104 431 136.5 431 c 0,18,19
 169 431 169 431 191.5 408.5 c 128,-1,20
 214 386 214 386 214 353.5 c 0,21,22
 214 321 214 321 191.5 298.5 c 128,-1,23
 169 276 169 276 137 276 c 128,-1,24
 105 276 105 276 82 299 c 128,-1,15
 59 322 59 322 59 354 c 128,-1,16
EndSplineSet
EndChar

StartChar: less
Encoding: 60 60 31
Width: 592
Flags: HMW
HStem: -12 21G<520 520> 489 20G<520 520>
LayerCount: 2
Fore
SplineSet
520 -12 m 1,0,-1
 22 223 l 1,1,-1
 22 275 l 1,2,-1
 520 509 l 1,3,-1
 520 419 l 1,4,-1
 152 249 l 1,5,-1
 520 76 l 1,6,-1
 520 -12 l 1,0,-1
EndSplineSet
EndChar

StartChar: equal
Encoding: 61 61 32
Width: 648
Flags: HMW
HStem: 109 88<67 565 67 565> 302 88<67 565 67 565>
LayerCount: 2
Fore
SplineSet
565 109 m 1,0,-1
 67 109 l 1,1,-1
 67 197 l 1,2,-1
 565 197 l 1,3,-1
 565 109 l 1,0,-1
565 302 m 1,4,-1
 67 302 l 1,5,-1
 67 390 l 1,6,-1
 565 390 l 1,7,-1
 565 302 l 1,4,-1
EndSplineSet
EndChar

StartChar: greater
Encoding: 62 62 33
Width: 592
Flags: HMW
HStem: -12 21G<56 56> 489 20G<56 56>
LayerCount: 2
Fore
SplineSet
554 223 m 1,0,-1
 56 -12 l 1,1,-1
 56 76 l 1,2,-1
 424 249 l 1,3,-1
 56 419 l 1,4,-1
 56 509 l 1,5,-1
 554 275 l 1,6,-1
 554 223 l 1,0,-1
EndSplineSet
EndChar

StartChar: question
Encoding: 63 63 34
Width: 404
Flags: HMW
HStem: -12 148<89 129> 651 81<226 249.5>
VStem: 35 149<42 82> 50 114<318.5 379.5 318.5 429> 292 123<552 621.5>
LayerCount: 2
Fore
SplineSet
35 62 m 128,-1,1
 35 92 35 92 57 114 c 128,-1,2
 79 136 79 136 109 136 c 128,-1,3
 139 136 139 136 161.5 114 c 128,-1,4
 184 92 184 92 184 62 c 128,-1,5
 184 32 184 32 161.5 10 c 128,-1,6
 139 -12 139 -12 109 -12 c 128,-1,7
 79 -12 79 -12 57 10 c 128,-1,0
 35 32 35 32 35 62 c 128,-1,1
86.5 262.5 m 128,-1,9
 50 298 50 298 50 346 c 128,-1,10
 50 394 50 394 75 426 c 128,-1,11
 100 458 100 458 135.5 477.5 c 128,-1,12
 171 497 171 497 206.5 514 c 0,13,14
 292 554.943661972 292 554.943661972 292 608 c 0,15,16
 292 627 292 627 274.5 639 c 128,-1,17
 257 651 257 651 227 651 c 128,-1,18
 197 651 197 651 147 628 c 1,19,-1
 122 712 l 1,20,21
 194 732 194 732 254 732 c 128,-1,22
 314 732 314 732 364.5 698 c 128,-1,23
 415 664 415 664 415 601 c 0,24,25
 415 552 415 552 389 514 c 128,-1,26
 363 476 363 476 326.5 454 c 128,-1,27
 290 432 290 432 253 415 c 128,-1,28
 216 398 216 398 190 380 c 128,-1,29
 164 362 164 362 164 341 c 0,30,31
 164 312 164 312 201.5 301 c 128,-1,32
 239 290 239 290 276 290 c 2,33,-1
 291 290 l 1,34,-1
 265 197 l 1,35,36
 213 200 213 200 168 213.5 c 128,-1,8
 123 227 123 227 86.5 262.5 c 128,-1,9
EndSplineSet
EndChar

StartChar: at
Encoding: 64 64 35
Width: 803
Flags: HMW
HStem: -135 54<276 365 276 368.5> 50 57 378 62<386 434.5> 568 54<331.5 511.5>
VStem: 29 64<114.5 283 114.5 296> 225 91<182.5 232.5 182.5 254> 707 64<261 393>
LayerCount: 2
Fore
SplineSet
29 192 m 0,0,1
 29 271 29 271 58 347 c 128,-1,2
 87 423 87 423 138 484.5 c 128,-1,3
 189 546 189 546 267.5 584 c 128,-1,4
 346 622 346 622 438 622 c 0,5,6
 579 622 579 622 675 538 c 128,-1,7
 771 454 771 454 771 311 c 0,8,9
 771 211 771 211 716.5 131 c 128,-1,10
 662 51 662 51 580 51 c 128,-1,11
 498 51 498 51 467 107 c 1,12,13
 447 80 447 80 414.5 65 c 128,-1,14
 382 50 382 50 353 50 c 0,15,16
 290 50 290 50 257.5 95 c 128,-1,17
 225 140 225 140 225 214 c 128,-1,18
 225 288 225 288 282 364 c 128,-1,19
 339 440 339 440 430 440 c 0,20,21
 484 440 484 440 516 403 c 1,22,-1
 533 433 l 1,23,-1
 580 433 l 1,24,25
 562 317 562 317 552 259 c 128,-1,26
 542 201 542 201 542 162 c 0,27,28
 542 107 542 107 579 107 c 0,29,30
 635 107 635 107 671 169.5 c 128,-1,31
 707 232 707 232 707 311 c 0,32,33
 707 430 707 430 630 499 c 128,-1,34
 553 568 553 568 438 568 c 0,35,36
 361 568 361 568 294.5 535 c 128,-1,37
 228 502 228 502 185 448 c 128,-1,38
 142 394 142 394 117.5 327.5 c 128,-1,39
 93 261 93 261 93 192 c 0,40,41
 93 75 93 75 166 -3 c 128,-1,42
 239 -81 239 -81 351 -81 c 0,43,44
 393 -81 393 -81 435 -69 c 1,45,-1
 450 -122 l 1,46,47
 405 -135 405 -135 351 -135 c 0,48,49
 211 -135 211 -135 120 -41.5 c 128,-1,50
 29 52 29 52 29 192 c 0,0,1
316 206 m 0,51,52
 316 113 316 113 370 113 c 0,53,54
 423.666666667 113 423.666666667 113 450.5 193.5 c 0,55,56
 469.592592593 250.777777778 469.592592593 250.777777778 485 349 c 1,57,58
 454 378 454 378 421.5 378 c 128,-1,59
 389 378 389 378 363 345 c 0,60,61
 316 285.346153846 316 285.346153846 316 206 c 0,51,52
EndSplineSet
EndChar

StartChar: A
Encoding: 65 65 36
Width: 605
Flags: HMW
HStem: 0 21G<-38 86 -38 -38 422 422 422 562> 210 98<231 360 231 381 185 360> 712 20G<306 414 414 414>
LayerCount: 2
Fore
SplineSet
86 0 m 1,0,-1
 -38 0 l 1,1,-1
 306 732 l 1,2,-1
 414 732 l 1,3,-1
 562 0 l 1,4,-1
 422 0 l 1,5,-1
 381 210 l 1,6,-1
 185 210 l 1,7,-1
 86 0 l 1,0,-1
231 308 m 1,8,-1
 360 308 l 1,9,10
 355 335 355 335 326 558 c 1,11,12
 318 537 318 537 285.5 447 c 128,-1,13
 253 357 253 357 231 308 c 1,8,-1
EndSplineSet
EndChar

StartChar: B
Encoding: 66 66 37
Width: 587
Flags: HMW
HStem: 0 99<171 269> 347 99<204 314 217 278> 633 99<242 242 242 336>
VStem: 412 136<198.5 274 151 277> 412 152
LayerCount: 2
Fore
SplineSet
269 0 m 2,0,-1
 26 0 l 1,1,-1
 116 671 l 1,2,-1
 110 732 l 1,3,-1
 358 732 l 2,4,5
 438.4 732 438.4 732 496 705 c 0,6,7
 564 673.125 564 673.125 564 589 c 0,8,9
 564 518 564 518 516.5 463.5 c 128,-1,10
 469 409 469 409 398 399 c 1,11,12
 464 387 464 387 506 341 c 128,-1,13
 548 295 548 295 548 229 c 0,14,15
 548 119 548 119 465.5 59.5 c 128,-1,16
 383 0 383 0 269 0 c 2,0,-1
204 347 m 1,17,-1
 171 99 l 1,18,-1
 273 99 l 2,19,20
 335 99 335 99 373.5 138.5 c 128,-1,21
 412 178 412 178 412 235 c 128,-1,22
 412 292 412 292 373 319.5 c 128,-1,23
 334 347 334 347 278 347 c 2,24,-1
 204 347 l 1,17,-1
242 633 m 1,25,-1
 217 446 l 1,26,-1
 314 446 l 2,27,28
 361 446 361 446 392 479 c 128,-1,29
 423 512 423 512 423 559 c 0,30,31
 423 633 423 633 336 633 c 2,32,-1
 242 633 l 1,25,-1
EndSplineSet
EndChar

StartChar: C
Encoding: 67 67 38
Width: 608
Flags: HMW
HStem: -12 94<282 370.5> 649 97<334 443.5>
VStem: 37 143<269.5 390.5 269.5 407.5>
LayerCount: 2
Fore
SplineSet
37 293 m 0,0,1
 37 410 37 410 81.5 512 c 128,-1,2
 126 614 126 614 216.5 680 c 128,-1,3
 307 746 307 746 426 746 c 0,4,5
 485 746 485 746 547 728 c 128,-1,6
 609 710 609 710 642 675 c 1,7,-1
 561 583 l 1,8,9
 539 614 539 614 498.5 631.5 c 128,-1,10
 458 649 458 649 408 649 c 0,11,12
 358 649 358 649 310.5 618 c 128,-1,13
 263 587 263 587 235.5 537 c 128,-1,14
 208 487 208 487 194 431.5 c 128,-1,15
 180 376 180 376 180 320 c 128,-1,16
 180 264 180 264 194 213 c 128,-1,17
 208 162 208 162 247 122 c 128,-1,18
 286 82 286 82 344 82 c 0,19,20
 432 82 432 82 516 157 c 1,21,-1
 563 62 l 1,22,23
 500 24 500 24 445.5 6 c 128,-1,24
 391 -12 391 -12 324 -12 c 0,25,26
 185 -12 185 -12 111 70 c 128,-1,27
 37 152 37 152 37 293 c 0,0,1
EndSplineSet
EndChar

StartChar: D
Encoding: 68 68 39
Width: 683
Flags: HMW
HStem: 0 99<171 273> 633 99<242 242 242 350>
VStem: 520 142<349.5 479>
LayerCount: 2
Fore
SplineSet
273 0 m 2,0,-1
 26 0 l 1,1,-1
 116 671 l 1,2,-1
 109 732 l 1,3,-1
 372 732 l 2,4,5
 509 732 509 732 585.5 653 c 128,-1,6
 662 574 662 574 662 435 c 0,7,8
 662 319 662 319 616.5 221 c 128,-1,9
 571 123 571 123 481 61.5 c 128,-1,10
 391 0 391 0 273 0 c 2,0,-1
242 633 m 1,11,-1
 171 99 l 1,12,-1
 281 99 l 2,13,14
 342 99 342 99 389.5 128.5 c 128,-1,15
 437 158 437 158 464.5 206.5 c 0,16,17
 520 304.381818182 520 304.381818182 520 423 c 0,18,19
 520 515 520 515 479 574 c 128,-1,20
 438 633 438 633 350 633 c 2,21,-1
 242 633 l 1,11,-1
EndSplineSet
EndChar

StartChar: E
Encoding: 69 69 40
Width: 520
Flags: HMW
HStem: 0 99<170 449> 327 99<213 424 200 437> 633 99<241 534 241 241>
LayerCount: 2
Fore
SplineSet
449 0 m 1,0,-1
 26 0 l 1,1,-1
 116 671 l 1,2,-1
 109 732 l 1,3,-1
 547 732 l 1,4,-1
 534 633 l 1,5,-1
 241 633 l 1,6,-1
 213 426 l 1,7,-1
 437 426 l 1,8,-1
 424 327 l 1,9,-1
 200 327 l 1,10,-1
 170 99 l 1,11,-1
 462 99 l 1,12,-1
 449 0 l 1,0,-1
EndSplineSet
EndChar

StartChar: F
Encoding: 70 70 41
Width: 472
Flags: HMW
HStem: 0 21G<26 157 26 26> 327 99<214 404 201 417> 633 99<242 504 242 242>
LayerCount: 2
Fore
SplineSet
157 0 m 1,0,-1
 26 0 l 1,1,-1
 116 671 l 1,2,-1
 110 732 l 1,3,-1
 517 732 l 1,4,-1
 504 633 l 1,5,-1
 242 633 l 1,6,-1
 214 426 l 1,7,-1
 417 426 l 1,8,-1
 404 327 l 1,9,-1
 201 327 l 1,10,-1
 157 0 l 1,0,-1
EndSplineSet
EndChar

StartChar: G
Encoding: 71 71 42
Width: 691
Flags: HMW
HStem: -11 96<274.5 345.5> -1 21G<541 609 541 541> 302 88<381 514 370 658> 650 94<339 467.5>
VStem: 37 141<257.5 385 257.5 406>
LayerCount: 2
Fore
SplineSet
104 70.5 m 128,-1,1
 37 152 37 152 37 280 c 128,-1,2
 37 408 37 408 82.5 511 c 128,-1,3
 128 614 128 614 222 679 c 128,-1,4
 316 744 316 744 442 744 c 0,5,6
 507 744 507 744 573.5 724.5 c 128,-1,7
 640 705 640 705 675 665 c 1,8,-1
 595 583 l 1,9,10
 550 622 550 622 517 636 c 128,-1,11
 484 650 484 650 424.5 650 c 128,-1,12
 365 650 365 650 314.5 618.5 c 128,-1,13
 264 587 264 587 235.5 536 c 0,14,15
 178 433.105263158 178 433.105263158 178 308 c 0,16,17
 178 252 178 252 191 204.5 c 128,-1,18
 204 157 204 157 241 121 c 128,-1,19
 278 85 278 85 340.5 85 c 128,-1,20
 403 85 403 85 450 131 c 128,-1,21
 497 177 497 177 506 240 c 2,22,-1
 514 302 l 1,23,-1
 370 302 l 1,24,-1
 381 390 l 1,25,-1
 658 390 l 1,26,27
 619 124 619 124 609 -1 c 1,28,-1
 541 -1 l 1,29,-1
 520 75 l 1,30,31
 468 30 468 30 417 9.5 c 128,-1,32
 366 -11 366 -11 301 -11 c 0,33,0
 171 -11 171 -11 104 70.5 c 128,-1,1
EndSplineSet
EndChar

StartChar: H
Encoding: 72 72 43
Width: 687
Flags: HMW
HStem: 0 21G<26 157 26 26 448 448 448 580> 327 99<213 492 200 505> 712 20G<110 254 254 254 546 678 678 678>
LayerCount: 2
Fore
SplineSet
157 0 m 1,0,-1
 26 0 l 1,1,-1
 116 671 l 1,2,-1
 110 732 l 1,3,-1
 254 732 l 1,4,-1
 213 426 l 1,5,-1
 505 426 l 1,6,-1
 546 732 l 1,7,-1
 678 732 l 1,8,-1
 580 0 l 1,9,-1
 448 0 l 1,10,-1
 492 327 l 1,11,-1
 200 327 l 1,12,-1
 157 0 l 1,0,-1
EndSplineSet
EndChar

StartChar: I
Encoding: 73 73 44
Width: 263
Flags: HMW
HStem: 0 21G<26 157 26 26> 712 20G<110 254 254 254>
LayerCount: 2
Fore
SplineSet
157 0 m 1,0,-1
 26 0 l 1,1,-1
 116 671 l 1,2,-1
 110 732 l 1,3,-1
 254 732 l 1,4,-1
 157 0 l 1,0,-1
EndSplineSet
EndChar

StartChar: J
Encoding: 74 74 45
Width: 263
Flags: HMW
HStem: -230 91<-92.5 -38 -92.5 27> 712 20G<110 254 254 254>
LayerCount: 2
Fore
SplineSet
-215 -186 m 1,0,-1
 -153 -103 l 1,1,2
 -121 -139 -121 -139 -79 -139 c 0,3,4
 9 -139 9 -139 32 47 c 1,5,-1
 116 671 l 1,6,-1
 110 732 l 1,7,-1
 254 732 l 1,8,-1
 168 81 l 2,9,10
 148.651376147 -64.1146788991 148.651376147 -64.1146788991 127 -108.5 c 0,11,12
 94.6551724138 -174.806896552 94.6551724138 -174.806896552 58.5 -196.5 c 0,13,14
 2.66666666667 -230 2.66666666667 -230 -74.1666666667 -230 c 128,-1,15
 -151 -230 -151 -230 -215 -186 c 1,0,-1
EndSplineSet
EndChar

StartChar: K
Encoding: 75 75 46
Width: 558
Flags: HMW
HStem: 0 21G<26 157 26 26 376 376 376 530> 712 20G<110 254 254 254 462 603 603 603>
LayerCount: 2
Fore
SplineSet
157 0 m 1,0,-1
 26 0 l 1,1,-1
 116 671 l 1,2,-1
 110 732 l 1,3,-1
 254 732 l 1,4,-1
 207 383 l 1,5,-1
 462 732 l 1,6,-1
 603 732 l 1,7,-1
 345 387 l 1,8,-1
 530 0 l 1,9,-1
 376 0 l 1,10,-1
 207 377 l 1,11,-1
 157 0 l 1,0,-1
EndSplineSet
EndChar

StartChar: L
Encoding: 76 76 47
Width: 478
Flags: HMW
HStem: 0 99<171 430> 712 20G<111 255 255 255>
LayerCount: 2
Fore
SplineSet
430 0 m 1,0,-1
 26 0 l 1,1,-1
 116 671 l 1,2,-1
 111 732 l 1,3,-1
 255 732 l 1,4,-1
 171 99 l 1,5,-1
 443 99 l 1,6,-1
 430 0 l 1,0,-1
EndSplineSet
EndChar

StartChar: M
Encoding: 77 77 48
Width: 843
Flags: HMW
HStem: -1 21G<329 417 329 329> 0 21G<26 135 26 26 605 605 605 736> 712 20G<110 302 302 302 647 834 834 834>
LayerCount: 2
Fore
SplineSet
135 0 m 1,0,-1
 26 0 l 1,1,-1
 115 671 l 1,2,-1
 110 732 l 1,3,-1
 302 732 l 1,4,-1
 394 311 l 2,5,6
 401.111111111 279 401.111111111 279 402.555555556 240 c 128,-1,7
 404 201 404 201 405 190 c 1,8,9
 429 273 429 273 447 307 c 1,10,-1
 647 732 l 1,11,-1
 834 732 l 1,12,-1
 736 0 l 1,13,-1
 605 0 l 1,14,-1
 671 496 l 2,15,16
 673 510 673 510 678.5 535 c 128,-1,17
 684 560 684 560 685 568 c 1,18,19
 681 560 681 560 670.5 535 c 128,-1,20
 660 510 660 510 653 496 c 2,21,-1
 417 -1 l 1,22,-1
 329 -1 l 1,23,-1
 220 496 l 1,24,25
 210 524 210 524 206 568 c 1,26,27
 203 507 203 507 202 496 c 2,28,-1
 135 0 l 1,0,-1
EndSplineSet
EndChar

StartChar: N
Encoding: 78 78 49
Width: 695
Flags: HMW
HStem: -5 21G<480 587 480 480> 0 21G<26 134 26 26> 712 20G<110 269 269 269 575 686 686 686>
LayerCount: 2
Fore
SplineSet
134 0 m 1,0,-1
 26 0 l 1,1,-1
 115 671 l 1,2,-1
 110 732 l 1,3,-1
 269 732 l 1,4,-1
 485 293 l 1,5,-1
 514 227 l 1,6,7
 516 240 516 240 516 266 c 128,-1,8
 516 292 516 292 518 304 c 2,9,-1
 575 732 l 1,10,-1
 686 732 l 1,11,-1
 587 -5 l 1,12,-1
 480 -5 l 1,13,14
 461 35 461 35 359 243 c 128,-1,15
 257 451 257 451 204 564 c 1,16,17
 201 498 201 498 201 497 c 2,18,-1
 134 0 l 1,0,-1
EndSplineSet
EndChar

StartChar: O
Encoding: 79 79 50
Width: 731
Flags: HMW
HStem: -11 95<275 424.5 275 445.5> 648 95<324.5 473>
VStem: 38 140<245.5 368 245.5 409> 570 141<364 487.5>
LayerCount: 2
Fore
SplineSet
111.5 73 m 128,-1,1
 38 157 38 157 38 284.5 c 128,-1,2
 38 412 38 412 81.5 512.5 c 128,-1,3
 125 613 125 613 214 678 c 128,-1,4
 303 743 303 743 422 743 c 0,5,6
 561 743 561 743 636 661 c 128,-1,7
 711 579 711 579 711 439 c 0,8,9
 711 322 711 322 666.5 221 c 128,-1,10
 622 120 622 120 531.5 54.5 c 128,-1,11
 441 -11 441 -11 313 -11 c 128,-1,0
 185 -11 185 -11 111.5 73 c 128,-1,1
215 145.5 m 128,-1,13
 252 84 252 84 337 84 c 0,14,15
 399 84 399 84 446.5 118.5 c 128,-1,16
 494 153 494 153 519.5 207.5 c 0,17,18
 570 315.431372549 570 315.431372549 570 434 c 0,19,20
 570 493 570 493 557 538 c 128,-1,21
 544 583 544 583 507 615.5 c 128,-1,22
 470 648 470 648 410 648 c 128,-1,23
 350 648 350 648 302.5 613.5 c 128,-1,24
 255 579 255 579 229 524.5 c 0,25,26
 178 417.596153846 178 417.596153846 178 312.298076923 c 128,-1,12
 178 207 178 207 215 145.5 c 128,-1,13
EndSplineSet
EndChar

StartChar: P
Encoding: 80 80 51
Width: 549
Flags: HMW
HStem: 0 21G<26 157 26 26> 294 97<210 273 196 290> 633 99<242 242 242 323>
VStem: 417 139<500 568.5>
LayerCount: 2
Fore
SplineSet
157 0 m 1,0,-1
 26 0 l 1,1,-1
 116 671 l 1,2,-1
 110 732 l 1,3,-1
 331 732 l 2,4,5
 429 732 429 732 492.5 685 c 128,-1,6
 556 638 556 638 556 541 c 0,7,8
 556 421 556 421 477 357.5 c 128,-1,9
 398 294 398 294 273 294 c 2,10,-1
 196 294 l 1,11,-1
 157 0 l 1,0,-1
242 633 m 1,12,-1
 210 391 l 1,13,-1
 290 391 l 2,14,15
 349 391 349 391 383 434.5 c 128,-1,16
 417 478 417 478 417 531 c 0,17,18
 417 633 417 633 323 633 c 2,19,-1
 242 633 l 1,12,-1
EndSplineSet
EndChar

StartChar: Q
Encoding: 81 81 52
Width: 730
Flags: HMW
HStem: -216 94<822.5 882> 648 96<327.5 473.5>
VStem: 37 141<245 365.5 245 404> 571 139<362 484>
LayerCount: 2
Fore
SplineSet
37 290 m 0,0,1
 37 407 37 407 81 509 c 128,-1,2
 125 611 125 611 215.5 677.5 c 128,-1,3
 306 744 306 744 425 744 c 0,4,5
 562 744 562 744 636 658 c 128,-1,6
 710 572 710 572 710 439 c 128,-1,7
 710 306 710 306 652.5 194.5 c 128,-1,8
 595 83 595 83 488 27 c 1,9,10
 562 -15 562 -15 614.5 -41 c 128,-1,11
 667 -67 667 -67 747 -94.5 c 128,-1,12
 827 -122 827 -122 880.5 -122 c 128,-1,13
 934 -122 934 -122 1066 -87 c 1,14,-1
 1090 -160 l 1,15,16
 1036 -179 1036 -179 1004.5 -189 c 0,17,18
 919.45 -216 919.45 -216 850.225 -216 c 128,-1,19
 781 -216 781 -216 714.5 -196 c 128,-1,20
 648 -176 648 -176 601.5 -154 c 128,-1,21
 555 -132 555 -132 481 -94 c 128,-1,22
 407 -56 407 -56 383.5 -44.5 c 128,-1,23
 360 -33 360 -33 341 -27.5 c 128,-1,24
 322 -22 322 -22 297 -16.5 c 128,-1,25
 272 -11 272 -11 260 -8 c 0,26,27
 37 45 37 45 37 290 c 0,0,1
191.5 410 m 128,-1,29
 178 352 178 352 178 303.5 c 128,-1,30
 178 255 178 255 186 219.5 c 128,-1,31
 194 184 194 184 211 152.5 c 128,-1,32
 228 121 228 121 260.5 103 c 128,-1,33
 293 85 293 85 345.5 85 c 128,-1,34
 398 85 398 85 445 119 c 128,-1,35
 492 153 492 153 518.5 206.5 c 0,36,37
 571 312.490566038 571 312.490566038 571 432 c 0,38,39
 571 489 571 489 558 535 c 128,-1,40
 545 581 545 581 507.5 614.5 c 128,-1,41
 470 648 470 648 411 648 c 128,-1,42
 352 648 352 648 304.5 613 c 128,-1,43
 257 578 257 578 231 523 c 128,-1,28
 205 468 205 468 191.5 410 c 128,-1,29
EndSplineSet
EndChar

StartChar: R
Encoding: 82 82 53
Width: 584
Flags: HMW
HStem: 0 21G<26 157 26 26 402 402 402 550> 632 100<241 241 241 323>
VStem: 419 139<503 577>
LayerCount: 2
Fore
SplineSet
157 0 m 1,0,-1
 26 0 l 1,1,-1
 116 671 l 1,2,-1
 110 732 l 1,3,-1
 349 732 l 2,4,5
 437 732 437 732 497.5 686 c 128,-1,6
 558 640 558 640 558 559 c 0,7,8
 558 478 558 478 509 421.5 c 128,-1,9
 460 365 460 365 384 347 c 1,10,-1
 550 0 l 1,11,-1
 402 0 l 1,12,-1
 253 326 l 1,13,-1
 201 326 l 1,14,-1
 157 0 l 1,0,-1
241 632 m 1,15,-1
 214 424 l 1,16,-1
 274 424 l 2,17,18
 419 424 419 424 419 549 c 0,19,20
 419 589 419 589 391.5 610.5 c 128,-1,21
 364 632 364 632 323 632 c 2,22,-1
 241 632 l 1,15,-1
EndSplineSet
EndChar

StartChar: S
Encoding: 83 83 54
Width: 537
Flags: HMW
HStem: -12 96<183 247.5 183 286> 648 96<307.5 359>
VStem: 83 144<486.5 581 486.5 595.5> 346 143<167.5 269.5>
LayerCount: 2
Fore
SplineSet
-7 49 m 1,0,-1
 56 157 l 1,1,2
 122 84 122 84 213 84 c 0,3,4
 267 84 267 84 306.5 117.5 c 128,-1,5
 346 151 346 151 346 204 c 0,6,7
 346 234 346 234 326.5 259.5 c 128,-1,8
 307 285 307 285 278 301 c 128,-1,9
 249 317 249 317 214.5 338 c 128,-1,10
 180 359 180 359 151 379.5 c 128,-1,11
 122 400 122 400 102.5 435 c 128,-1,12
 83 470 83 470 83 514 c 0,13,14
 83 629 83 629 162 686.5 c 128,-1,15
 241 744 241 744 362 744 c 0,16,17
 402 744 402 744 455.5 726.5 c 128,-1,18
 509 709 509 709 538 684 c 1,19,-1
 479 592 l 1,20,21
 455 616 455 616 413 632 c 128,-1,22
 371 648 371 648 331 648 c 0,23,24
 291 648 291 648 259 621.5 c 128,-1,25
 227 595 227 595 227 550 c 0,26,27
 227 521 227 521 246.5 496.5 c 128,-1,28
 266 472 266 472 295 456.5 c 128,-1,29
 324 441 324 441 358 420 c 128,-1,30
 392 399 392 399 421 378 c 128,-1,31
 450 357 450 357 469.5 321 c 128,-1,32
 489 285 489 285 489 240 c 0,33,34
 489 127 489 127 408 57.5 c 128,-1,35
 327 -12 327 -12 205.5 -12 c 0,36,37
 84 -12 84 -12 -7 49 c 1,0,-1
EndSplineSet
EndChar

StartChar: T
Encoding: 84 84 55
Width: 543
Flags: HMW
HStem: 0 21G<163 299 163 163> 633 99<68 247 55 593 384 384 384 579>
LayerCount: 2
Fore
SplineSet
247 633 m 1,0,-1
 55 633 l 1,1,-1
 68 732 l 1,2,-1
 593 732 l 1,3,-1
 579 633 l 1,4,-1
 384 633 l 1,5,-1
 299 0 l 1,6,-1
 163 0 l 1,7,-1
 247 633 l 1,0,-1
EndSplineSet
EndChar

StartChar: U
Encoding: 85 85 56
Width: 667
Flags: HMW
HStem: -11 95<276.5 367 276.5 393.5> 712 20G<102 251 251 251 558 665 665 665>
VStem: 52 132<174.5 220.5 174.5 226.5>
LayerCount: 2
Fore
SplineSet
52 216 m 0,0,1
 52 250 52 250 56 278 c 2,2,-1
 109 672 l 1,3,-1
 102 732 l 1,4,-1
 251 732 l 1,5,-1
 186 243 l 2,6,7
 184 225 184 225 184 216 c 0,8,9
 184 154 184 154 220 119 c 128,-1,10
 256 84 256 84 322.5 84 c 0,11,12
 389 84 389 84 436 131 c 128,-1,13
 483 178 483 178 492 245 c 2,14,-1
 558 732 l 1,15,-1
 665 732 l 1,16,-1
 604 278 l 2,17,18
 585 138 585 138 511.5 63.5 c 128,-1,19
 438 -11 438 -11 291 -11 c 0,20,21
 177 -11 177 -11 114.5 46 c 128,-1,22
 52 103 52 103 52 216 c 0,0,1
EndSplineSet
EndChar

StartChar: V
Encoding: 86 86 57
Width: 586
Flags: HMW
HStem: -1 21G<201 201 201 303> 712 20G<60 199 199 199 517 641 641 641>
LayerCount: 2
Fore
SplineSet
201 -1 m 1,0,-1
 60 732 l 1,1,-1
 199 732 l 1,2,-1
 278 314 l 2,3,4
 280 303 280 303 282.5 277.5 c 128,-1,5
 285 252 285 252 286 243 c 2,6,-1
 289 200 l 1,7,-1
 305 252 l 2,8,9
 323 309 323 309 336 337 c 2,10,-1
 517 732 l 1,11,-1
 641 732 l 1,12,-1
 303 -1 l 1,13,-1
 201 -1 l 1,0,-1
EndSplineSet
EndChar

StartChar: W
Encoding: 87 87 58
Width: 910
Flags: HMW
HStem: -2 21G<159 159 159 291 543 543 543 677> 712 20G<66 203 203 203 466 585 585 585 849 961 961 961>
LayerCount: 2
Fore
SplineSet
159 -2 m 1,0,-1
 66 732 l 1,1,-1
 203 732 l 1,2,-1
 256 309 l 2,3,4
 258 298 258 298 259.5 270.5 c 128,-1,5
 261 243 261 243 262 230 c 2,6,-1
 265 182 l 1,7,-1
 280 244 l 1,8,9
 298 314 298 314 311 346 c 2,10,-1
 466 732 l 1,11,-1
 585 732 l 1,12,-1
 639 307 l 2,13,14
 642 287 642 287 644 229 c 2,15,-1
 646 182 l 1,16,-1
 663 244 l 1,17,18
 689 325 689 325 697 346 c 2,19,-1
 849 732 l 1,20,-1
 961 732 l 1,21,-1
 677 -2 l 1,22,-1
 543 -2 l 1,23,-1
 491 414 l 1,24,-1
 488 477 l 2,25,26
 487 492 487 492 487 526 c 1,27,28
 453.133333333 407.466666667 453.133333333 407.466666667 434 361 c 2,29,-1
 291 -2 l 1,30,-1
 159 -2 l 1,0,-1
EndSplineSet
EndChar

StartChar: X
Encoding: 88 88 59
Width: 571
Flags: HMW
HStem: 0 21G<-49 97 -49 -49 387 387 387 538> 712 20G<71 222 222 222 472 617 617 617>
LayerCount: 2
Fore
SplineSet
97 0 m 1,0,-1
 -49 0 l 1,1,-1
 225 377 l 1,2,-1
 71 732 l 1,3,-1
 222 732 l 1,4,-1
 320 510 l 1,5,-1
 472 732 l 1,6,-1
 617 732 l 1,7,-1
 371 391 l 1,8,-1
 538 0 l 1,9,-1
 387 0 l 1,10,-1
 274 260 l 1,11,-1
 97 0 l 1,0,-1
EndSplineSet
EndChar

StartChar: Y
Encoding: 89 89 60
Width: 544
Flags: HMW
HStem: 0 21G<164 294 164 164> 712 20G<58 204 204 204 471 601 601 601>
LayerCount: 2
Fore
SplineSet
207 330 m 1,0,-1
 58 732 l 1,1,-1
 204 732 l 1,2,-1
 300 472 l 1,3,-1
 471 732 l 1,4,-1
 601 732 l 1,5,-1
 338 327 l 1,6,-1
 294 0 l 1,7,-1
 164 0 l 1,8,-1
 207 330 l 1,0,-1
EndSplineSet
EndChar

StartChar: Z
Encoding: 90 90 61
Width: 547
Flags: HMW
HStem: 0 99<167 483> 633 99<97 380 84 564>
LayerCount: 2
Fore
SplineSet
483 0 m 1,0,-1
 -14 0 l 1,1,-1
 -14 82 l 1,2,-1
 380 633 l 1,3,-1
 84 633 l 1,4,-1
 97 732 l 1,5,-1
 564 732 l 1,6,-1
 564 659 l 1,7,-1
 167 99 l 1,8,-1
 497 99 l 1,9,-1
 483 0 l 1,0,-1
EndSplineSet
EndChar

StartChar: bracketleft
Encoding: 91 91 62
Width: 293
Flags: HMW
HStem: -132 59<126 212> 673 59<226 320 226 226>
LayerCount: 2
Fore
SplineSet
212 -132 m 1,0,-1
 5 -132 l 1,1,-1
 121 732 l 1,2,-1
 328 732 l 1,3,-1
 320 673 l 1,4,-1
 226 673 l 1,5,-1
 126 -73 l 1,6,-1
 220 -73 l 1,7,-1
 212 -132 l 1,0,-1
EndSplineSet
EndChar

StartChar: backslash
Encoding: 92 92 63
Width: 520
Flags: HMW
HStem: 0 21G<355 355 355 449> 712 20G<86 179 179 179>
LayerCount: 2
Fore
SplineSet
355 0 m 1,0,-1
 86 732 l 1,1,-1
 179 732 l 1,2,-1
 449 0 l 1,3,-1
 355 0 l 1,0,-1
EndSplineSet
EndChar

StartChar: bracketright
Encoding: 93 93 64
Width: 293
Flags: HMW
HStem: -132 59<-28 66 -28 171 -36 66> 673 59<79 165 72 286>
LayerCount: 2
Fore
SplineSet
171 -132 m 1,0,-1
 -36 -132 l 1,1,-1
 -28 -73 l 1,2,-1
 66 -73 l 1,3,-1
 165 673 l 1,4,-1
 72 673 l 1,5,-1
 79 732 l 1,6,-1
 286 732 l 1,7,-1
 171 -132 l 1,0,-1
EndSplineSet
EndChar

StartChar: asciicircum
Encoding: 94 94 65
Width: 618
Flags: HMW
HStem: 0 21G<48 136 48 48 479 479 479 570> 478 20G<283 335 335 335>
LayerCount: 2
Fore
SplineSet
136 0 m 1,0,-1
 48 0 l 1,1,-1
 283 498 l 1,2,-1
 335 498 l 1,3,-1
 570 0 l 1,4,-1
 479 0 l 1,5,-1
 309 368 l 1,6,-1
 136 0 l 1,0,-1
EndSplineSet
EndChar

StartChar: underscore
Encoding: 95 95 66
Width: 704
Flags: HMW
HStem: -143 96<48 543 35 556>
LayerCount: 2
Fore
SplineSet
543 -143 m 1,0,-1
 35 -143 l 1,1,-1
 48 -47 l 1,2,-1
 556 -47 l 1,3,-1
 543 -143 l 1,0,-1
EndSplineSet
EndChar

StartChar: grave
Encoding: 96 96 67
Width: 248
Flags: HMW
HStem: 590 21G<155 155 155 258> 735 20G<4 149 149 149>
LayerCount: 2
Fore
SplineSet
155 590 m 1,0,-1
 4 755 l 1,1,-1
 149 755 l 1,2,-1
 258 590 l 1,3,-1
 155 590 l 1,0,-1
EndSplineSet
EndChar

StartChar: a
Encoding: 97 97 68
Width: 546
Flags: HMW
HStem: -12 83<180.5 211.5> -9 21G<399 436.5> 427 82<223.5 292.5> 480 20G<428 491 491 491>
VStem: 16 121<165.5 232.5 165.5 273>
LayerCount: 2
Fore
SplineSet
59 48.5 m 128,-1,1
 16 109 16 109 16 192 c 128,-1,2
 16 275 16 275 46 345 c 128,-1,3
 76 415 76 415 139 462 c 128,-1,4
 202 509 202 509 285 509 c 0,5,6
 313 509 313 509 347 496.5 c 128,-1,7
 381 484 381 484 405 459 c 1,8,-1
 428 500 l 1,9,-1
 491 500 l 1,10,-1
 437 130 l 2,11,12
 435 116 435 116 435 109 c 0,13,14
 435 73 435 73 460 73 c 0,15,16
 477 73 477 73 508 85 c 1,17,-1
 525 22 l 1,18,19
 478 -9 478 -9 419 -9 c 0,20,21
 389 -9 389 -9 366 10.5 c 128,-1,22
 343 30 343 30 337 59 c 1,23,-1
 333 59 l 1,24,25
 280 -12 280 -12 191 -12 c 128,-1,0
 102 -12 102 -12 59 48.5 c 128,-1,1
137 197 m 0,26,27
 137 71 137 71 210 71 c 0,28,29
 245 71 245 71 272.5 99 c 128,-1,30
 300 127 300 127 317 178 c 0,31,32
 348.435897436 272.307692308 348.435897436 272.307692308 363 387 c 1,33,34
 323 427 323 427 281 427 c 128,-1,35
 239 427 239 427 210 401.5 c 128,-1,36
 181 376 181 376 166 338 c 0,37,38
 137 264.533333333 137 264.533333333 137 197 c 0,26,27
EndSplineSet
EndChar

StartChar: b
Encoding: 98 98 69
Width: 518
Flags: HMW
HStem: -11 82<166.5 241 166.5 269> 426 84<294.5 320.5> 748 20G<102 229 229 229>
VStem: 366 121<271 355>
LayerCount: 2
Fore
SplineSet
17 40 m 1,0,-1
 107 713 l 1,1,-1
 102 768 l 1,2,-1
 229 768 l 1,3,-1
 188 460 l 1,4,5
 242 510 242 510 322 510 c 0,6,7
 402 510 402 510 444.5 453.5 c 128,-1,8
 487 397 487 397 487 310 c 0,9,10
 487 223 487 223 450 153 c 128,-1,11
 413 83 413 83 339 36 c 128,-1,12
 265 -11 265 -11 168.5 -11 c 0,13,14
 72 -11 72 -11 17 40 c 1,0,-1
140 98 m 0,15,16
 140 71 140 71 182 71 c 0,17,18
 264 71 264 71 315 152.5 c 128,-1,19
 366 234 366 234 366 330 c 0,20,21
 366 426 366 426 295 426 c 0,22,23
 267 426 267 426 232.5 404 c 128,-1,24
 198 382 198 382 174 354 c 1,25,-1
 141 108 l 2,26,27
 140 105 140 105 140 98 c 0,15,16
EndSplineSet
EndChar

StartChar: c
Encoding: 99 99 70
Width: 432
Flags: HMW
HStem: -12 88<201.5 250> 427 83<226.5 296.5>
VStem: 16 126<175.5 247.5 175.5 280.5>
LayerCount: 2
Fore
SplineSet
16 197 m 0,0,1
 16 327 16 327 92 418.5 c 128,-1,2
 168 510 168 510 291 510 c 0,3,4
 327 510 327 510 368 496.5 c 128,-1,5
 409 483 409 483 436 462 c 1,6,-1
 367 383 l 1,7,8
 325 427 325 427 283 427 c 128,-1,9
 241 427 241 427 213.5 404 c 128,-1,10
 186 381 186 381 171.5 346 c 0,11,12
 142 274.793103448 142 274.793103448 142 212.896551724 c 0,13,14
 142 76 142 76 239 76 c 0,15,16
 292 76 292 76 349 121 c 1,17,-1
 386 35 l 1,18,19
 297 -12 297 -12 211.5 -12 c 128,-1,20
 126 -12 126 -12 71 47.5 c 128,-1,21
 16 107 16 107 16 197 c 0,0,1
EndSplineSet
EndChar

StartChar: d
Encoding: 100 100 71
Width: 561
Flags: HMW
HStem: -12 83<181.5 211.5> -9 21G<399 436.5> 427 82<224.5 291.5 191 293.5> 749 20G<402 529 529 529>
VStem: 16 122<164 235.5 164 273>
LayerCount: 2
Fore
SplineSet
16 197 m 0,0,1
 16 320 16 320 86 414.5 c 128,-1,2
 156 509 156 509 275 509 c 0,3,4
 343 509 343 509 376 477 c 1,5,-1
 407 714 l 1,6,-1
 402 769 l 1,7,-1
 529 769 l 1,8,-1
 437 131 l 2,9,10
 435 117 435 117 435 110 c 0,11,12
 435 74 435 74 460 74 c 0,13,14
 477 74 477 74 508 86 c 1,15,-1
 525 22 l 1,16,17
 478 -9 478 -9 419 -9 c 0,18,19
 389 -9 389 -9 365.5 10 c 128,-1,20
 342 29 342 29 334 59 c 1,21,22
 281 -12 281 -12 191.5 -12 c 128,-1,23
 102 -12 102 -12 59 48.5 c 128,-1,24
 16 109 16 109 16 197 c 0,0,1
138 200 m 0,25,26
 138 71 138 71 211 71 c 0,27,28
 241 71 241 71 265 91.5 c 128,-1,29
 289 112 289 112 304 141 c 128,-1,30
 319 170 319 170 331.5 216.5 c 0,31,32
 350.08974359 285.653846154 350.08974359 285.653846154 364 387 c 1,33,34
 324 427 324 427 282 427 c 128,-1,35
 240 427 240 427 211 402 c 128,-1,36
 182 377 182 377 167 339.5 c 0,37,38
 138 267 138 267 138 200 c 0,25,26
EndSplineSet
EndChar

StartChar: e
Encoding: 101 101 72
Width: 475
Flags: HMW
HStem: -12 88<218 262.5> 194 85 426 84<268.5 297.5>
VStem: 15 127 323 123<362 402>
LayerCount: 2
Fore
SplineSet
86 406 m 0,0,1
 120 452 120 452 174 481 c 128,-1,2
 228 510 228 510 294 510 c 128,-1,3
 360 510 360 510 403 480 c 128,-1,4
 446 450 446 450 446 394 c 0,5,6
 446 326.107692308 446 326.107692308 384.5 266.5 c 0,7,8
 352 235 352 235 289.5 215 c 128,-1,9
 227 195 227 195 142 194 c 1,10,11
 146 137 146 137 174.5 106.5 c 128,-1,12
 203 76 203 76 244 76 c 0,13,14
 308 76 308 76 388 137 c 1,15,-1
 430 54 l 1,16,17
 408 35 408 35 377 21 c 0,18,19
 309 -12 309 -12 223 -12 c 128,-1,20
 137 -12 137 -12 76 45 c 128,-1,21
 15 102 15 102 15 205.970588235 c 128,-1,22
 15 309.941176471 15 309.941176471 86 406 c 0,0,1
149 279 m 1,23,24
 227 281 227 281 275 313.5 c 128,-1,25
 323 346 323 346 323 392 c 0,26,27
 323 426 323 426 287 426 c 128,-1,28
 251 426 251 426 208 389 c 128,-1,29
 165 352 165 352 149 279 c 1,23,24
EndSplineSet
EndChar

StartChar: f
Encoding: 102 102 73
Width: 335
Flags: HMW
HStem: -230 79<-44 -9.5 -51.5 34.5> 414 83<37 106 27 116 231 338> 694 82<316.5 384.5>
LayerCount: 2
Fore
SplineSet
-161 -186 m 1,0,-1
 -113 -120 l 1,1,2
 -100 -132 -100 -132 -78.5 -141.5 c 128,-1,3
 -57 -151 -57 -151 -40 -151 c 0,4,5
 27 -151 27 -151 45 -35 c 1,6,-1
 106 414 l 1,7,-1
 27 414 l 1,8,-1
 37 497 l 1,9,-1
 116 497 l 1,10,11
 132 627 132 627 188.5 701.5 c 128,-1,12
 245 776 245 776 366 776 c 0,13,14
 448 776 448 776 510 733 c 1,15,-1
 461 654 l 1,16,17
 417 694 417 694 363 694 c 0,18,19
 262 694 262 694 231 497 c 1,20,-1
 349 497 l 1,21,-1
 338 414 l 1,22,-1
 220 414 l 1,23,-1
 158 -47 l 1,24,25
 131 -230 131 -230 -24 -230 c 0,26,27
 -61 -230 -61 -230 -101.5 -219 c 128,-1,28
 -142 -208 -142 -208 -161 -186 c 1,0,-1
EndSplineSet
EndChar

StartChar: g
Encoding: 103 103 74
Width: 519
Flags: HMW
HStem: -230 80<132.5 209 132.5 245> -12 83<181.5 208.5> 426 84<231 302.5> 501 20G<494 494>
VStem: 16 122<164 235.5 164 273>
LayerCount: 2
Fore
SplineSet
-11 -174 m 1,0,-1
 45 -93 l 1,1,2
 53 -106 53 -106 89 -128 c 128,-1,3
 125 -150 125 -150 159.5 -150 c 128,-1,4
 194 -150 194 -150 224.5 -127 c 128,-1,5
 255 -104 255 -104 274 -71.5 c 0,6,7
 312.385135135 -5.84121621622 312.385135135 -5.84121621622 317 38 c 1,8,-1
 313 38 l 1,9,10
 260 -12 260 -12 181 -12 c 128,-1,11
 102 -12 102 -12 59 48.5 c 128,-1,12
 16 109 16 109 16 192.5 c 128,-1,13
 16 276 16 276 46 345.5 c 128,-1,14
 76 415 76 415 141 462.5 c 128,-1,15
 206 510 206 510 294 510 c 0,16,17
 351 510 351 510 396 490 c 1,18,-1
 494 521 l 1,19,-1
 433 66 l 2,20,21
 414 -69 414 -69 347 -149.5 c 128,-1,22
 280 -230 280 -230 165 -230 c 0,23,24
 102 -230 102 -230 56 -211.5 c 128,-1,25
 10 -193 10 -193 -11 -174 c 1,0,-1
138 200 m 0,26,27
 138 71 138 71 211 71 c 0,28,29
 264.771929825 71 264.771929825 71 295.5 127.5 c 0,30,31
 327.993652626 187.246393537 327.993652626 187.246393537 339.496826313 244.123196769 c 0,32,33
 355.408163265 322.795918367 355.408163265 322.795918367 366 404 c 1,34,35
 320 426 320 426 284 426 c 128,-1,36
 248 426 248 426 217 401 c 128,-1,37
 186 376 186 376 170 339 c 0,38,39
 138 265 138 265 138 200 c 0,26,27
EndSplineSet
EndChar

StartChar: h
Encoding: 104 104 75
Width: 497
Flags: HMW
HStem: 0 21G<13 127 13 13 288 288 288 414> 414 97<269.5 373> 749 20G<104 230 230 230>
VStem: 335 117<354 428.5>
LayerCount: 2
Fore
SplineSet
127 0 m 1,0,-1
 13 0 l 1,1,-1
 108 715 l 1,2,-1
 104 769 l 1,3,-1
 230 769 l 1,4,-1
 186 450 l 1,5,6
 265 511 265 511 329 511 c 0,7,8
 393 511 393 511 422.5 480.5 c 128,-1,9
 452 450 452 450 452 387 c 0,10,11
 452 360 452 360 449 336 c 2,12,-1
 411 54 l 1,13,-1
 414 0 l 1,14,-1
 288 0 l 1,15,-1
 332 324 l 2,16,17
 335 342 335 342 335 360 c 0,18,19
 335 414 335 414 285 414 c 0,20,21
 263 414 263 414 227.5 396 c 128,-1,22
 192 378 192 378 175 361 c 1,23,-1
 127 0 l 1,0,-1
EndSplineSet
EndChar

StartChar: i
Encoding: 105 105 76
Width: 224
Flags: HMW
HStem: 0 21G<14 138 14 14> 477 20G<70 194 194 194> 601 153<150 174.5>
VStem: 89 146<667 689>
LayerCount: 2
Fore
SplineSet
138 0 m 1,0,-1
 14 0 l 1,1,-1
 73 443 l 1,2,-1
 70 497 l 1,3,-1
 194 497 l 1,4,-1
 135 55 l 1,5,-1
 138 0 l 1,0,-1
107 620.5 m 128,-1,7
 89 640 89 640 89 670.5 c 128,-1,8
 89 701 89 701 114 727.5 c 128,-1,9
 139 754 139 754 169.5 754 c 128,-1,10
 200 754 200 754 217.5 735 c 128,-1,11
 235 716 235 716 235 685.5 c 128,-1,12
 235 655 235 655 210 628 c 128,-1,13
 185 601 185 601 155 601 c 128,-1,6
 125 601 125 601 107 620.5 c 128,-1,7
EndSplineSet
EndChar

StartChar: j
Encoding: 106 106 77
Width: 223
Flags: HMW
HStem: -230 80<-92.5 -41.5 -92.5 11> 477 20G<69 195 195 195> 601 153<149 173.5>
VStem: 87 147<666.5 689>
LayerCount: 2
Fore
SplineSet
-219 -188 m 1,0,-1
 -164 -108 l 1,1,2
 -134 -150 -134 -150 -77 -150 c 0,3,4
 -10 -150 -10 -150 13.4433223548 5.00381087042 c 0,5,6
 15 12 15 12 15 15 c 2,7,-1
 73 444 l 1,8,-1
 69 497 l 1,9,-1
 195 497 l 1,10,-1
 132 34 l 2,11,12
 116.532293987 -80.4610244989 116.532293987 -80.4610244989 95.5 -125 c 0,13,14
 68.7958333333 -181.55 68.7958333333 -181.55 38 -201 c 0,15,16
 -7.91666666667 -230 -7.91666666667 -230 -78.9583333333 -230 c 128,-1,17
 -150 -230 -150 -230 -219 -188 c 1,0,-1
105.5 620.5 m 128,-1,19
 87 640 87 640 87 670 c 128,-1,20
 87 700 87 700 112.5 727 c 128,-1,21
 138 754 138 754 168 754 c 128,-1,22
 198 754 198 754 216 735 c 128,-1,23
 234 716 234 716 234 685.5 c 128,-1,24
 234 655 234 655 209 628 c 128,-1,25
 184 601 184 601 154 601 c 128,-1,18
 124 601 124 601 105.5 620.5 c 128,-1,19
EndSplineSet
EndChar

StartChar: k
Encoding: 107 107 78
Width: 452
Flags: HMW
HStem: 0 21G<13 129 13 13 283 283 283 415> 477 20G<332 460 460 460> 749 20G<103 232 232 232>
LayerCount: 2
Fore
SplineSet
129 0 m 1,0,-1
 13 0 l 1,1,-1
 108 715 l 1,2,-1
 103 769 l 1,3,-1
 232 769 l 1,4,-1
 165 269 l 1,5,-1
 332 497 l 1,6,-1
 460 497 l 1,7,-1
 281 267 l 1,8,-1
 415 0 l 1,9,-1
 283 0 l 1,10,-1
 163 255 l 1,11,-1
 129 0 l 1,0,-1
EndSplineSet
EndChar

StartChar: l
Encoding: 108 108 79
Width: 226
Flags: HMW
HStem: 0 21G<13 140 13 13> 749 20G<105 233 233 233>
LayerCount: 2
Fore
SplineSet
140 0 m 1,0,-1
 13 0 l 1,1,-1
 108 715 l 1,2,-1
 105 769 l 1,3,-1
 233 769 l 1,4,-1
 137 54 l 1,5,-1
 140 0 l 1,0,-1
EndSplineSet
EndChar

StartChar: m
Encoding: 109 109 80
Width: 766
Flags: HMW
HStem: 0 21G<16 130 16 16 286 286 286 401 559 559 559 683> 414 96<264.5 361.5>
VStem: 605 117<355.5 427.5>
LayerCount: 2
Fore
SplineSet
130 0 m 1,0,-1
 16 0 l 1,1,-1
 64 356 l 2,2,3
 67 384 67 384 67 427.5 c 0,4,5
 67 471 67 471 53 493 c 1,6,-1
 174 508 l 1,7,8
 182 484 182 484 182 444 c 1,9,10
 262 510 262 510 336 510 c 0,11,12
 423 510 423 510 444 437 c 1,13,14
 520 510 520 510 608 510 c 0,15,16
 722 510 722 510 722 389 c 0,17,18
 722 360 722 360 718 339 c 1,19,-1
 680 53 l 1,20,-1
 683 0 l 1,21,-1
 559 0 l 1,22,-1
 603 332 l 2,23,24
 605 350 605 350 605 369 c 0,25,26
 605 388 605 388 593 401 c 128,-1,27
 581 414 581 414 552 414 c 0,28,29
 508 414 508 414 449 362 c 1,30,-1
 401 0 l 1,31,-1
 286 0 l 1,32,-1
 331 335 l 2,33,34
 333 351 333 351 333 359 c 0,35,36
 333 414 333 414 282 414 c 0,37,38
 258 414 258 414 229 398 c 128,-1,39
 200 382 200 382 179 361 c 1,40,-1
 130 0 l 1,0,-1
EndSplineSet
EndChar

StartChar: n
Encoding: 110 110 81
Width: 501
Flags: HMW
HStem: 0 21G<16 130 16 16 293 293 293 418> 414 97<273.5 377>
VStem: 339 117<354 428.5>
LayerCount: 2
Fore
SplineSet
130 0 m 1,0,-1
 16 0 l 1,1,-1
 64 356 l 2,2,3
 67 384 67 384 67 427.5 c 0,4,5
 67 471 67 471 53 493 c 1,6,-1
 174 508 l 1,7,8
 182 484 182 484 182 444 c 1,9,10
 260 511 260 511 328.5 511 c 0,11,12
 397 511 397 511 426.5 480.5 c 128,-1,13
 456 450 456 450 456 387 c 0,14,15
 456 360 456 360 453 336 c 2,16,-1
 415 54 l 1,17,-1
 418 0 l 1,18,-1
 293 0 l 1,19,-1
 336 324 l 2,20,21
 339 342 339 342 339 360 c 0,22,23
 339 414 339 414 289 414 c 0,24,25
 267 414 267 414 231.5 396 c 128,-1,26
 196 378 196 378 179 361 c 1,27,-1
 130 0 l 1,0,-1
EndSplineSet
EndChar

StartChar: o
Encoding: 111 111 82
Width: 514
Flags: HMW
HStem: -12 80<190.5 278.5 190.5 296.5> 428 82<222.5 307.5>
VStem: 16 125<169 236 169 279.5> 357 125<264.5 333.5>
LayerCount: 2
Fore
SplineSet
16 203 m 0,0,1
 16 324 16 324 91 417 c 128,-1,2
 166 510 166 510 284 510 c 0,3,4
 377 510 377 510 429.5 450 c 128,-1,5
 482 390 482 390 482 303.5 c 128,-1,6
 482 217 482 217 450 147.5 c 128,-1,7
 418 78 418 78 355.5 33 c 128,-1,8
 293 -12 293 -12 207 -12 c 128,-1,9
 121 -12 121 -12 68.5 48 c 128,-1,10
 16 108 16 108 16 203 c 0,0,1
141 197 m 128,-1,12
 141 164 141 164 147 137.5 c 128,-1,13
 153 111 153 111 173 89.5 c 128,-1,14
 193 68 193 68 228 68 c 128,-1,15
 263 68 263 68 290.5 93 c 128,-1,16
 318 118 318 118 331.5 157 c 0,17,18
 357 230.666666667 357 230.666666667 357 305 c 0,19,20
 357 428 357 428 273 428 c 0,21,22
 237 428 237 428 210 403.5 c 128,-1,23
 183 379 183 379 169 341 c 128,-1,24
 155 303 155 303 148 266.5 c 128,-1,11
 141 230 141 230 141 197 c 128,-1,12
EndSplineSet
EndChar

StartChar: p
Encoding: 112 112 83
Width: 526
Flags: HMW
HStem: -225 21G<-14 113 -14 -14> -11 82<218 284.5 215.5 318> 426 84<297.5 327.5>
VStem: 371 122<261.5 333>
LayerCount: 2
Fore
SplineSet
113 -225 m 1,0,-1
 -14 -225 l 1,1,-1
 64 356 l 2,2,3
 68 381 68 381 68 423 c 128,-1,4
 68 465 68 465 55 492 c 1,5,-1
 172 507 l 1,6,7
 181 474 181 474 182 447 c 1,8,9
 205 475 205 475 244.5 492.5 c 128,-1,10
 284 510 284 510 322 510 c 0,11,12
 407 510 407 510 450 449.5 c 128,-1,13
 493 389 493 389 493 301 c 0,14,15
 493 178 493 178 423 83.5 c 128,-1,16
 353 -11 353 -11 234 -11 c 0,17,18
 166 -11 166 -11 133 21 c 1,19,-1
 108 -170 l 1,20,-1
 113 -225 l 1,0,-1
145 111 m 1,21,22
 185 71 185 71 231 71 c 0,23,24
 261 71 261 71 286 88 c 128,-1,25
 311 105 311 105 326.5 130 c 128,-1,26
 342 155 342 155 352.5 187 c 0,27,28
 371 243.380952381 371 243.380952381 371 297 c 0,29,30
 371 426 371 426 298 426 c 0,31,32
 257.533333333 426 257.533333333 426 223 389 c 0,33,34
 201.1 365.535714286 201.1 365.535714286 179 294.5 c 0,35,36
 160.507462687 235.059701493 160.507462687 235.059701493 145 111 c 1,21,22
EndSplineSet
EndChar

StartChar: q
Encoding: 113 113 84
Width: 520
Flags: HMW
HStem: -224 21G<281 408 281 281> -12 83<180.5 208.5> 427 82<223.5 292.5> 517 20G<449 496 496 496>
VStem: 16 121<165.5 232.5 165.5 273>
LayerCount: 2
Fore
SplineSet
59 48.5 m 128,-1,1
 16 109 16 109 16 192 c 128,-1,2
 16 275 16 275 46 345 c 128,-1,3
 76 415 76 415 139 462 c 128,-1,4
 202 509 202 509 279.5 509 c 128,-1,5
 357 509 357 509 406 460 c 1,6,-1
 449 537 l 1,7,-1
 496 537 l 1,8,-1
 403 -169 l 1,9,-1
 408 -224 l 1,10,-1
 281 -224 l 1,11,-1
 316 39 l 1,12,13
 262 -12 262 -12 182 -12 c 128,-1,0
 102 -12 102 -12 59 48.5 c 128,-1,1
137 197 m 0,14,15
 137 71 137 71 210 71 c 0,16,17
 245 71 245 71 272.5 99 c 128,-1,18
 300 127 300 127 317 178 c 0,19,20
 348.435897436 272.307692308 348.435897436 272.307692308 363 387 c 1,21,22
 323 427 323 427 281 427 c 128,-1,23
 239 427 239 427 210 401.5 c 128,-1,24
 181 376 181 376 166 338 c 0,25,26
 137 264.533333333 137 264.533333333 137 197 c 0,14,15
EndSplineSet
EndChar

StartChar: r
Encoding: 114 114 85
Width: 333
Flags: HMW
HStem: 0 21G<17 131 17 17> 388 119<175 316>
LayerCount: 2
Fore
SplineSet
131 0 m 1,0,-1
 17 0 l 1,1,-1
 65 363 l 1,2,3
 69 380 69 380 69 426 c 0,4,5
 69 472 69 472 53 497 c 1,6,-1
 175 507 l 1,7,8
 185 473 185 473 185 431 c 2,9,-1
 185 416 l 2,10,11
 185 407 185 407 184 402 c 1,12,13
 216 445 216 445 262 476 c 128,-1,14
 308 507 308 507 355 507 c 1,15,-1
 320 388 l 1,16,-1
 316 388 l 2,17,18
 241 388 241 388 171 296 c 1,19,-1
 131 0 l 1,0,-1
EndSplineSet
EndChar

StartChar: s
Encoding: 115 115 86
Width: 389
Flags: HMW
HStem: -12 83<118.5 159.5 118.5 190> 426 84<219 253>
VStem: 37 128<329.5 389 329.5 401> 218 127<123.5 189>
LayerCount: 2
Fore
SplineSet
-16 32 m 1,0,-1
 36 114 l 1,1,2
 37 113 37 113 46 107.5 c 128,-1,3
 55 102 55 102 57 100.5 c 128,-1,4
 59 99 59 99 67 94 c 128,-1,5
 75 89 75 89 78.5 87.5 c 128,-1,6
 82 86 82 86 89.5 82.5 c 128,-1,7
 97 79 97 79 101.5 77.5 c 128,-1,8
 106 76 106 76 112.5 74 c 0,9,10
 122.25 71 122.25 71 146.625 71 c 128,-1,11
 171 71 171 71 194.5 92 c 128,-1,12
 218 113 218 113 218 143.5 c 128,-1,13
 218 174 218 174 189.5 194 c 128,-1,14
 161 214 161 214 127.5 226 c 128,-1,15
 94 238 94 238 65.5 267.5 c 128,-1,16
 37 297 37 297 37 342 c 0,17,18
 37 425 37 425 96.5 467.5 c 128,-1,19
 156 510 156 510 238 510 c 128,-1,20
 320 510 320 510 378 479 c 1,21,-1
 326 395 l 1,22,23
 295 426 295 426 237 426 c 0,24,25
 207 426 207 426 186 411.5 c 128,-1,26
 165 397 165 397 165 372.5 c 128,-1,27
 165 348 165 348 183.5 332.5 c 128,-1,28
 202 317 202 317 228.5 305.5 c 128,-1,29
 255 294 255 294 281.5 279.5 c 128,-1,30
 308 265 308 265 326.5 238 c 128,-1,31
 345 211 345 211 345 172 c 0,32,33
 345 84 345 84 284 36 c 128,-1,34
 223 -12 223 -12 138.5 -12 c 128,-1,35
 54 -12 54 -12 -16 32 c 1,0,-1
EndSplineSet
EndChar

StartChar: t
Encoding: 116 116 87
Width: 334
Flags: HMW
HStem: -10 82<117 215.5> 414 83<36 94 25 105 220 323> 414 219<25 251 25 251 208 208 208 251 124 323>
VStem: 51 119<52 115.5>
LayerCount: 2
Fore
SplineSet
94 414 m 1,0,-1
 25 414 l 1,1,-1
 36 497 l 1,2,-1
 105 497 l 1,3,-1
 124 633 l 1,4,-1
 251 633 l 1,5,-1
 220 497 l 1,6,-1
 335 497 l 1,7,-1
 323 414 l 1,8,-1
 208 414 l 1,9,-1
 172 139 l 2,10,11
 170 121 170 121 170 111 c 0,12,13
 170 72 170 72 203 72 c 0,14,15
 244 72 244 72 278 82 c 1,16,-1
 289 13 l 1,17,18
 224 -10 224 -10 162 -10 c 0,19,20
 100 -10 100 -10 75.5 13 c 128,-1,21
 51 36 51 36 51 82 c 0,22,23
 51 98 51 98 54 116 c 2,24,-1
 94 414 l 1,0,-1
EndSplineSet
EndChar

StartChar: u
Encoding: 117 117 88
Width: 526
Flags: HMW
HStem: -11 95<177.5 181.5> -9 21G<376.5 413.5> 477 20G<66 193 193 193 343 471 471 471>
VStem: 28 120<69.5 146.5>
LayerCount: 2
Fore
SplineSet
28 111 m 0,0,1
 28 128 28 128 31 146 c 2,2,-1
 71 453 l 1,3,-1
 66 497 l 1,4,-1
 193 497 l 1,5,-1
 150 169 l 2,6,7
 148 151 148 151 148 142 c 0,8,9
 148 84 148 84 197 84 c 0,10,11
 228 84 228 84 253 107 c 128,-1,12
 278 130 278 130 293 168 c 0,13,14
 319.865671642 236.059701493 319.865671642 236.059701493 330 307 c 2,15,-1
 349 453 l 1,16,-1
 343 497 l 1,17,-1
 471 497 l 1,18,-1
 417 130 l 2,19,20
 415 116 415 116 415 109 c 0,21,22
 415 73 415 73 440 73 c 0,23,24
 457 73 457 73 488 85 c 1,25,-1
 505 22 l 1,26,27
 458 -9 458 -9 397 -9 c 0,28,29
 367 -9 367 -9 344 10 c 128,-1,30
 321 29 321 29 315 59 c 1,31,-1
 311 59 l 1,32,33
 286 27 286 27 241.5 8 c 128,-1,34
 197 -11 197 -11 154 -11 c 0,35,36
 28 -11 28 -11 28 111 c 0,0,1
EndSplineSet
EndChar

StartChar: v
Encoding: 118 118 89
Width: 449
Flags: HMW
HStem: -4 21G<134 134 134 240> 477 20G<28 150 150 150 355 472 472 472>
LayerCount: 2
Fore
SplineSet
134 -4 m 1,0,-1
 28 497 l 1,1,-1
 150 497 l 1,2,-1
 203 235 l 2,3,4
 205 226 205 226 213 151 c 1,5,6
 233 222 233 222 239 235 c 2,7,-1
 355 497 l 1,8,-1
 472 497 l 1,9,-1
 240 -4 l 1,10,-1
 134 -4 l 1,0,-1
EndSplineSet
EndChar

StartChar: w
Encoding: 119 119 90
Width: 676
Flags: HMW
HStem: -4 21G<106 106 106 205 377 377 377 476> 477 20G<32 154 154 154 313 425 425 425 580 695 695 695>
LayerCount: 2
Fore
SplineSet
106 -4 m 1,0,-1
 32 497 l 1,1,-1
 154 497 l 1,2,-1
 187 266 l 2,3,4
 189 250 189 250 189 218 c 2,5,-1
 189 196 l 2,6,7
 189 181 189 181 188 173 c 1,8,9
 200 228 200 228 212 258 c 2,10,-1
 313 497 l 1,11,-1
 425 497 l 1,12,-1
 458 266 l 2,13,14
 460 252 460 252 460 214 c 2,15,-1
 460 192 l 2,16,17
 460 179 460 179 459 173 c 2,18,-1
 470 217 l 2,19,20
 473 230 473 230 483 258 c 1,21,-1
 580 497 l 1,22,-1
 695 497 l 1,23,-1
 476 -4 l 1,24,-1
 377 -4 l 1,25,-1
 339 258 l 2,26,27
 337 274 337 274 337 302 c 2,28,-1
 337 335 l 1,29,-1
 331 306 l 2,30,31
 326 279 326 279 320 266 c 2,32,-1
 205 -4 l 1,33,-1
 106 -4 l 1,0,-1
EndSplineSet
EndChar

StartChar: x
Encoding: 120 120 91
Width: 450
Flags: HMW
HStem: 0 21G<-46 84 -46 -46 280 280 280 413> 477 20G<41 173 173 173 329 458 458 458>
LayerCount: 2
Fore
SplineSet
84 0 m 1,0,-1
 -46 0 l 1,1,-1
 161 264 l 1,2,-1
 41 497 l 1,3,-1
 173 497 l 1,4,-1
 234 365 l 1,5,-1
 329 497 l 1,6,-1
 458 497 l 1,7,-1
 279 267 l 1,8,-1
 413 0 l 1,9,-1
 280 0 l 1,10,-1
 204 165 l 1,11,-1
 84 0 l 1,0,-1
EndSplineSet
EndChar

StartChar: y
Encoding: 121 121 92
Width: 452
Flags: HMW
HStem: -230 80<-46.5 9.5 -46.5 48> 477 20G<29 151 151 151 361 473 473 473>
LayerCount: 2
Fore
SplineSet
-122 -113 m 1,0,1
 -80 -150 -80 -150 -41.5 -150 c 128,-1,2
 -3 -150 -3 -150 24 -135.5 c 128,-1,3
 51 -121 51 -121 72.5 -95 c 0,4,5
 106.647058824 -53.7058823529 106.647058824 -53.7058823529 134 1 c 1,6,-1
 29 497 l 1,7,-1
 151 497 l 1,8,9
 199 265 199 265 203 239.5 c 128,-1,10
 207 214 207 214 210 146 c 1,11,12
 229 210 229 210 243 242.5 c 128,-1,13
 257 275 257 275 361 497 c 1,14,-1
 473 497 l 1,15,-1
 240 -3 l 2,16,17
 221 -43 221 -43 208.5 -66 c 128,-1,18
 196 -89 196 -89 170.5 -124.5 c 128,-1,19
 145 -160 145 -160 119 -180 c 0,20,21
 54 -230 54 -230 -31 -230 c 128,-1,22
 -116 -230 -116 -230 -173 -190 c 1,23,-1
 -122 -113 l 1,0,1
EndSplineSet
EndChar

StartChar: z
Encoding: 122 122 93
Width: 427
Flags: HMW
HStem: 0 84<138 366> 414 83<63 253 52 411>
LayerCount: 2
Fore
SplineSet
366 0 m 1,0,-1
 -17 0 l 1,1,-1
 -17 61 l 1,2,-1
 253 414 l 1,3,-1
 52 414 l 1,4,-1
 63 497 l 1,5,-1
 411 497 l 1,6,-1
 411 435 l 1,7,-1
 138 84 l 1,8,-1
 377 84 l 1,9,-1
 366 0 l 1,0,-1
EndSplineSet
EndChar

StartChar: braceleft
Encoding: 123 123 94
Width: 303
Flags: HMW
HStem: -147 63<130 228 218 219> 677 62<297 329>
VStem: 44 108<-57.5 -33 -57.5 -12.5>
LayerCount: 2
Fore
SplineSet
70 199 m 0,0,1
 70 264.111111111 70 264.111111111 19 266 c 1,2,-1
 27 327 l 1,3,4
 60 327 60 327 78 353.5 c 128,-1,5
 96 380 96 380 100 416 c 2,6,-1
 120 569 l 2,7,8
 130 647 130 647 170 693 c 128,-1,9
 210 739 210 739 282 739 c 2,10,-1
 338 739 l 1,11,-1
 329 677 l 1,12,13
 280 677 280 677 260 660 c 128,-1,14
 240 643 240 643 234 593 c 2,15,-1
 212 427 l 1,16,17
 201 326 201 326 143 296 c 1,18,19
 180 272 180 272 180 209 c 0,20,21
 180 187 180 187 177 166 c 2,22,-1
 155 0 l 2,23,24
 152 -22 152 -22 152 -44.5 c 128,-1,25
 152 -67 152 -67 165.5 -75.5 c 128,-1,26
 179 -84 179 -84 218 -84 c 2,27,-1
 228 -84 l 1,28,-1
 219 -147 l 1,29,-1
 176 -147 l 2,30,31
 44 -147 44 -147 44 -19 c 0,32,33
 44 2 44 2 47 24 c 2,34,-1
 69 183 l 2,35,36
 70 186 70 186 70 199 c 0,0,1
EndSplineSet
EndChar

StartChar: bar
Encoding: 124 124 95
Width: 270
Flags: HMW
HStem: -116 21G<87 185 87 87> 725 20G<87 185 185 185>
VStem: 87 98<-116 745>
LayerCount: 2
Fore
SplineSet
185 -116 m 1,0,-1
 87 -116 l 1,1,-1
 87 745 l 1,2,-1
 185 745 l 1,3,-1
 185 -116 l 1,0,-1
EndSplineSet
EndChar

StartChar: braceright
Encoding: 125 125 96
Width: 303
Flags: HMW
HStem: -147 62<-29 6 -37 7.5> 676 63<72 136 72 136>
VStem: 120 111<376.5 390.5> 147 109<608 623 623 643.5>
LayerCount: 2
Fore
SplineSet
6 -147 m 2,0,-1
 -37 -147 l 1,1,-1
 -29 -85 l 1,2,3
 25 -85 25 -85 41.5 -70.5 c 128,-1,4
 58 -56 58 -56 66 0 c 2,5,-1
 88 166 l 1,6,7
 98 265 98 265 157 296 c 1,8,9
 120 320 120 320 120 383 c 0,10,11
 120 406 120 406 123 427 c 2,12,-1
 145 593 l 2,13,14
 147 603 147 603 147 608 c 2,15,-1
 147 623 l 2,16,17
 147 653 147 653 132 664.5 c 128,-1,18
 117 676 117 676 78 676 c 2,19,-1
 72 676 l 1,20,-1
 81 739 l 1,21,-1
 136 739 l 2,22,23
 256 739 256 739 256 610 c 0,24,25
 256 590 256 590 253 569 c 2,26,-1
 232 416 l 2,27,28
 231 413 231 413 231 405 c 2,29,-1
 231 393 l 2,30,31
 231 329 231 329 281 328 c 1,32,-1
 273 267 l 1,33,34
 243 267 243 267 224 242 c 128,-1,35
 205 217 205 217 201 183 c 2,36,-1
 180 24 l 2,37,38
 168 -60 168 -60 126.5 -103.5 c 128,-1,39
 85 -147 85 -147 6 -147 c 2,0,-1
EndSplineSet
EndChar

StartChar: asciitilde
Encoding: 126 126 97
Width: 541
Flags: HMW
HStem: 189 21G<85 85> 194 90<340.5 385.5 340.5 395> 264 20 264 90<143 197> 337 20G<451 451>
LayerCount: 2
Fore
SplineSet
85 189 m 1,0,-1
 22 244 l 1,1,2
 41 289 41 289 79.5 321.5 c 128,-1,3
 118 354 118 354 163 354 c 0,4,5
 208 354 208 354 276 319 c 128,-1,6
 344 284 344 284 367 284 c 0,7,8
 414 284 414 284 451 357 c 1,9,-1
 511 299 l 1,10,11
 486 258 486 258 446 226 c 128,-1,12
 406 194 406 194 366.5 194 c 0,13,14
 327 194 327 194 261.5 229 c 128,-1,15
 196 264 196 264 166.5 264 c 0,16,17
 137 264 137 264 117 241 c 128,-1,18
 97 218 97 218 85 189 c 1,0,-1
EndSplineSet
EndChar

StartChar: exclamdown
Encoding: 161 161 98
Width: 249
Flags: HMW
HStem: -130 21G<95.5 120.5> 457 148<137.5 178>
VStem: 83 149<510.5 551 510.5 551.5>
LayerCount: 2
Fore
SplineSet
-6 -87 m 0,0,1
 -6 -84 -6 -84 -4 -74 c 2,2,-1
 90 383 l 1,3,-1
 178 371 l 1,4,-1
 142 -96 l 2,5,6
 140 -114 140 -114 133 -122 c 128,-1,7
 126 -130 126 -130 114.5 -130 c 0,8,9
 103 -130 103 -130 29 -119 c 0,10,11
 -6 -113 -6 -113 -6 -87 c 0,0,1
83 531 m 128,-1,13
 83 562 83 562 105 583.5 c 128,-1,14
 127 605 127 605 157.5 605 c 0,15,16
 188 605 188 605 210 583 c 128,-1,17
 232 561 232 561 232 530.5 c 0,18,19
 232 500 232 500 210 478.5 c 128,-1,20
 188 457 188 457 157.5 457 c 0,21,22
 127 457 127 457 105 478.5 c 128,-1,12
 83 500 83 500 83 531 c 128,-1,13
EndSplineSet
EndChar

StartChar: cent
Encoding: 162 162 99
Width: 465
Flags: HMW
HStem: -128 200<119 275.5 119 275.5> -12 84<215.5 228 214 275.5> 425 197<306 306.5>
VStem: 26 127<175.5 247.5 175.5 274.5>
LayerCount: 2
Fore
SplineSet
26 196 m 0,0,1
 26 319 26 319 94.5 408 c 128,-1,2
 163 497 163 497 282 509 c 1,3,-1
 306 622 l 1,4,-1
 376 622 l 1,5,-1
 335 508 l 1,6,7
 399 500 399 500 446 462 c 1,8,-1
 379 386 l 1,9,10
 335 425 335 425 289.5 425 c 128,-1,11
 244 425 244 425 211.5 386 c 0,12,13
 153 315.8 153 315.8 153 209 c 0,14,15
 153 151 153 151 177 111.5 c 128,-1,16
 201 72 201 72 249 72 c 128,-1,17
 297 72 297 72 360 121 c 1,18,-1
 396 35 l 1,19,20
 309 -12 309 -12 228 -12 c 2,21,-1
 214 -12 l 1,22,-1
 188 -128 l 1,23,-1
 119 -128 l 1,24,-1
 166 -5 l 1,25,26
 95 12 95 12 60.5 65.5 c 128,-1,27
 26 119 26 119 26 196 c 0,0,1
EndSplineSet
EndChar

StartChar: sterling
Encoding: 163 163 100
Width: 563
Flags: HMW
HStem: 0 100<7 95 223 488 -7 95> 342 99<67 127 54 141 269 379> 648 96<349.5 399>
LayerCount: 2
Fore
SplineSet
488 0 m 1,0,-1
 -7 0 l 1,1,-1
 7 100 l 1,2,-1
 95 100 l 1,3,-1
 127 342 l 1,4,-1
 54 342 l 1,5,-1
 67 441 l 1,6,-1
 141 441 l 1,7,-1
 154 538 l 2,8,9
 166 635 166 635 232 689.5 c 128,-1,10
 298 744 298 744 391 744 c 0,11,12
 508 744 508 744 562 629 c 1,13,-1
 461 575 l 1,14,15
 437 648 437 648 377 648 c 0,16,17
 337 648 337 648 313 621.5 c 128,-1,18
 289 595 289 595 284 552 c 2,19,-1
 269 441 l 1,20,-1
 392 441 l 1,21,-1
 379 342 l 1,22,-1
 255 342 l 1,23,-1
 223 100 l 1,24,-1
 502 100 l 1,25,-1
 488 0 l 1,0,-1
EndSplineSet
EndChar

StartChar: currency
Encoding: 164 164 101
Width: 580
Flags: HMW
HStem: 104 21G<133 133 454 454> 121 84<272.5 313.5> 459 84<273 313 273 326> 542 20G<133 133 454 454>
VStem: 95 95<313.5 350.5> 397 95<312.5 350.5 312.5 368>
LayerCount: 2
Fore
SplineSet
133 104 m 1,0,-1
 64 173 l 1,1,-1
 120 228 l 1,2,3
 95 275 95 275 95 332 c 128,-1,4
 95 389 95 389 120 436 c 1,5,-1
 64 493 l 1,6,-1
 133 562 l 1,7,-1
 185 509 l 1,8,9
 232 543 232 543 293 543 c 128,-1,10
 354 543 354 543 401 509 c 1,11,-1
 454 562 l 1,12,-1
 523 493 l 1,13,-1
 466 436 l 1,14,15
 492 386 492 386 492 332.5 c 128,-1,16
 492 279 492 279 466 229 c 1,17,-1
 523 173 l 1,18,-1
 454 104 l 1,19,-1
 402 155 l 1,20,21
 355 121 355 121 293 121 c 128,-1,22
 231 121 231 121 184 155 c 1,23,-1
 133 104 l 1,0,-1
218.5 423 m 128,-1,25
 190 387 190 387 190 329.5 c 128,-1,26
 190 272 190 272 222 238.5 c 128,-1,27
 254 205 254 205 295 205 c 128,-1,28
 336 205 336 205 366.5 237.5 c 128,-1,29
 397 270 397 270 397 328.5 c 128,-1,30
 397 387 397 387 369 423 c 128,-1,31
 341 459 341 459 294 459 c 128,-1,24
 247 459 247 459 218.5 423 c 128,-1,25
EndSplineSet
EndChar

StartChar: yen
Encoding: 165 165 102
Width: 510
Flags: HMW
HStem: 0 211<160 188 27 275 160 160> 162 49<27 181 20 188 303 449> 271 49<41 142 41 163 34 142 375 463> 271 226<63 163 34 202 63 340 378 463>
LayerCount: 2
Fore
SplineSet
181 162 m 1,0,-1
 20 162 l 1,1,-1
 27 211 l 1,2,-1
 188 211 l 1,3,-1
 188 216 l 1,4,-1
 163 271 l 1,5,-1
 34 271 l 1,6,-1
 41 320 l 1,7,-1
 142 320 l 1,8,-1
 63 497 l 1,9,-1
 202 497 l 1,10,-1
 269 332 l 1,11,-1
 378 497 l 1,12,-1
 495 497 l 1,13,-1
 375 320 l 1,14,-1
 470 320 l 1,15,-1
 463 271 l 1,16,-1
 340 271 l 1,17,-1
 303 216 l 1,18,-1
 303 211 l 1,19,-1
 456 211 l 1,20,-1
 449 162 l 1,21,-1
 296 162 l 1,22,-1
 275 0 l 1,23,-1
 160 0 l 1,24,-1
 181 162 l 1,0,-1
EndSplineSet
EndChar

StartChar: brokenbar
Encoding: 166 166 103
Width: 270
Flags: HMW
HStem: -116 21G<87 185 87 87> 725 20G<87 185 185 185>
VStem: 87 98<-116 237 392 745>
LayerCount: 2
Fore
SplineSet
185 -116 m 1,0,-1
 87 -116 l 1,1,-1
 87 237 l 1,2,-1
 185 237 l 1,3,-1
 185 -116 l 1,0,-1
185 392 m 1,4,-1
 87 392 l 1,5,-1
 87 745 l 1,6,-1
 185 745 l 1,7,-1
 185 392 l 1,4,-1
EndSplineSet
EndChar

StartChar: section
Encoding: 167 167 104
Width: 457
Flags: HMW
HStem: -230 79<47.5 83 47.5 95> 694 81<359.5 403.5>
VStem: 80 105<425 470 425 501> 80 243<423.5 601> 119 106 257 107<56.5 111.5>
LayerCount: 2
Fore
SplineSet
-41 -209 m 1,0,-1
 -9 -134 l 1,1,2
 37 -151 37 -151 57 -151 c 0,3,4
 119 -151 119 -151 119 -54 c 0,5,6
 119 27 119 27 113 87 c 128,-1,7
 107 147 107 147 100 211.5 c 0,8,9
 80 395.785714286 80 395.785714286 80 449 c 0,10,11
 80 536 80 536 112.5 588.5 c 128,-1,12
 145 641 145 641 225 649 c 1,13,14
 252 775 252 775 394 775 c 0,15,16
 431 775 431 775 490 754 c 1,17,-1
 461 676 l 1,18,19
 421 694 421 694 390 694 c 0,20,21
 323 694 323 694 323 578 c 0,22,23
 323 522 323 522 337 418 c 1,24,25
 364 148 364 148 364 69 c 0,26,27
 364 -84.6086956522 364 -84.6086956522 223 -103 c 1,28,29
 211 -166 211 -166 165 -198 c 128,-1,30
 119 -230 119 -230 60 -230 c 128,-1,31
 1 -230 1 -230 -41 -209 c 1,0,-1
185 453 m 0,32,33
 185 430 185 430 198 287 c 1,34,-1
 214 135 l 2,35,36
 222 50 222 50 225 -18 c 1,37,38
 257 4 257 4 257 73.5 c 128,-1,39
 257 143 257 143 240 315 c 1,40,-1
 226 437 l 2,41,42
 219 506 219 506 218 559 c 1,43,44
 185 536 185 536 185 453 c 0,32,33
EndSplineSet
EndChar

StartChar: dieresis
Encoding: 168 168 105
Width: 276
Flags: HMW
HStem: 566 114<43 75 203.5 235>
VStem: 2 114<607 639> 162 115<607.5 638.5>
LayerCount: 2
Fore
SplineSet
2 623 m 128,-1,1
 2 647 2 647 18.5 663.5 c 128,-1,2
 35 680 35 680 59 680 c 128,-1,3
 83 680 83 680 99.5 663.5 c 128,-1,4
 116 647 116 647 116 623 c 128,-1,5
 116 599 116 599 99.5 582.5 c 128,-1,6
 83 566 83 566 59 566 c 128,-1,7
 35 566 35 566 18.5 582.5 c 128,-1,0
 2 599 2 599 2 623 c 128,-1,1
162 623 m 128,-1,9
 162 646 162 646 179 663 c 128,-1,10
 196 680 196 680 219.5 680 c 0,11,12
 243 680 243 680 260 663.5 c 128,-1,13
 277 647 277 647 277 623 c 128,-1,14
 277 599 277 599 260 582.5 c 128,-1,15
 243 566 243 566 219.5 566 c 0,16,17
 196 566 196 566 179 583 c 128,-1,8
 162 600 162 600 162 623 c 128,-1,9
EndSplineSet
EndChar

StartChar: copyright
Encoding: 169 169 106
Width: 624
Flags: HMW
HStem: -27 40<238.5 369.5 238.5 380> 80 63<281 308> 357 64<296 338.5> 487 40<238.5 369.5>
VStem: 27 40<184.5 315.5 184.5 326> 148 94<204.5 249 204.5 272.5> 541 40<184.5 315.5>
LayerCount: 2
Fore
SplineSet
27 250 m 128,-1,1
 27 364 27 364 108.5 445.5 c 128,-1,2
 190 527 190 527 304 527 c 128,-1,3
 418 527 418 527 499.5 445.5 c 128,-1,4
 581 364 581 364 581 250 c 128,-1,5
 581 136 581 136 499.5 54.5 c 128,-1,6
 418 -27 418 -27 304 -27 c 128,-1,7
 190 -27 190 -27 108.5 54.5 c 128,-1,0
 27 136 27 136 27 250 c 128,-1,1
67 250 m 128,-1,9
 67 152 67 152 136.5 82.5 c 128,-1,10
 206 13 206 13 304 13 c 128,-1,11
 402 13 402 13 471.5 82.5 c 128,-1,12
 541 152 541 152 541 250 c 128,-1,13
 541 348 541 348 471.5 417.5 c 128,-1,14
 402 487 402 487 304 487 c 128,-1,15
 206 487 206 487 136.5 417.5 c 128,-1,8
 67 348 67 348 67 250 c 128,-1,9
148 216 m 0,16,17
 148 303 148 303 201.5 362 c 128,-1,18
 255 421 255 421 341 421 c 0,19,20
 393 421 393 421 438 386 c 1,21,-1
 387 330 l 1,22,23
 355 357 355 357 326 357 c 0,24,25
 286 357 286 357 264 313.5 c 128,-1,26
 242 270 242 270 242 225 c 0,27,28
 242 143 242 143 305 143 c 0,29,30
 339 143 339 143 376 176 c 1,31,-1
 405 112 l 1,32,33
 336 80 336 80 278 80 c 0,34,35
 220 80 220 80 184 115.5 c 128,-1,36
 148 151 148 151 148 216 c 0,16,17
EndSplineSet
EndChar

StartChar: ordfeminine
Encoding: 170 170 107
Width: 413
Flags: HMW
HStem: 252 58<105 324 97 332> 368 56<172.5 193> 660 55<201 247>
VStem: 63 81<485.5 531 485.5 557>
LayerCount: 2
Fore
SplineSet
63 507 m 0,0,1
 63 588 63 588 112 651.5 c 128,-1,2
 161 715 161 715 242 715 c 0,3,4
 289 715 289 715 322 682 c 1,5,-1
 337 709 l 1,6,-1
 379 709 l 1,7,-1
 343 463 l 2,8,9
 342 460 342 460 342 449 c 0,10,11
 342 425 342 425 358 425 c 0,12,13
 369 425 369 425 390 433 c 1,14,-1
 402 391 l 1,15,16
 367 370 367 370 339 370 c 128,-1,17
 311 370 311 370 296 383 c 128,-1,18
 281 396 281 396 277 416 c 1,19,-1
 273 416 l 1,20,21
 236 368 236 368 178.5 368 c 128,-1,22
 121 368 121 368 92 408 c 128,-1,23
 63 448 63 448 63 507 c 0,0,1
324 252 m 1,24,-1
 97 252 l 1,25,-1
 105 310 l 1,26,-1
 332 310 l 1,27,-1
 324 252 l 1,24,-1
264 495.5 m 0,28,29
 282.981203008 555.031954887 282.981203008 555.031954887 294 634 c 1,30,31
 266 660 266 660 235 660 c 128,-1,32
 204 660 204 660 181.5 630.5 c 0,33,34
 144 581.333333333 144 581.333333333 144 502.666666667 c 128,-1,35
 144 424 144 424 192.601449275 424 c 128,-1,36
 241.202898551 424 241.202898551 424 264 495.5 c 0,28,29
EndSplineSet
EndChar

StartChar: guillemotleft
Encoding: 171 171 108
Width: 465
Flags: HMW
HStem: 162 21G<166 166 334 334> 484 20G<210 210 378 378>
LayerCount: 2
Fore
SplineSet
166 162 m 1,0,-1
 34 332 l 1,1,-1
 210 504 l 1,2,-1
 285 490 l 1,3,-1
 144 332 l 1,4,-1
 243 173 l 1,5,-1
 166 162 l 1,0,-1
334 162 m 1,6,-1
 202 332 l 1,7,-1
 378 504 l 1,8,-1
 455 490 l 1,9,-1
 312 332 l 1,10,-1
 413 173 l 1,11,-1
 334 162 l 1,6,-1
EndSplineSet
EndChar

StartChar: logicalnot
Encoding: 172 172 109
Width: 625
Flags: HMW
HStem: 79 21G<464 550 464 464> 267 83<52 464 52 550>
VStem: 464 86<79 267 267 267>
LayerCount: 2
Fore
SplineSet
464 267 m 1,0,-1
 52 267 l 1,1,-1
 52 350 l 1,2,-1
 550 350 l 1,3,-1
 550 79 l 1,4,-1
 464 79 l 1,5,-1
 464 267 l 1,0,-1
EndSplineSet
EndChar

StartChar: uni00AD
Encoding: 173 173 110
Width: 339
Flags: HMW
HStem: 210 95<52 273 52 273>
VStem: 52 221<210 305 210 305>
LayerCount: 2
Fore
SplineSet
273 210 m 1,0,-1
 52 210 l 1,1,-1
 52 305 l 1,2,-1
 273 305 l 1,3,-1
 273 210 l 1,0,-1
EndSplineSet
EndChar

StartChar: registered
Encoding: 174 174 111
Width: 497
Flags: HMW
HStem: 399 36<241 337 241 347> 497 143<188 287 188 287 268 323 268 395> 497 235<221 248 188 314 323 323 323 333.5 221 395> 785 36<241 337>
VStem: 79 35<561.5 658.5 561.5 668> 327 61<659.5 675.5> 465 35<561.5 658>
LayerCount: 2
Fore
SplineSet
79 610 m 128,-1,1
 79 697 79 697 140.5 759 c 128,-1,2
 202 821 202 821 289 821 c 128,-1,3
 376 821 376 821 438 759 c 128,-1,4
 500 697 500 697 500 610 c 128,-1,5
 500 523 500 523 438 461 c 128,-1,6
 376 399 376 399 289 399 c 128,-1,7
 202 399 202 399 140.5 461 c 128,-1,0
 79 523 79 523 79 610 c 128,-1,1
114 610 m 128,-1,9
 114 537 114 537 165.5 486 c 128,-1,10
 217 435 217 435 289 435 c 128,-1,11
 361 435 361 435 413 486.5 c 128,-1,12
 465 538 465 538 465 610 c 128,-1,13
 465 682 465 682 413 733.5 c 128,-1,14
 361 785 361 785 289 785 c 128,-1,15
 217 785 217 785 165.5 734 c 128,-1,8
 114 683 114 683 114 610 c 128,-1,9
248 497 m 1,16,-1
 188 497 l 1,17,-1
 221 732 l 1,18,-1
 314 732 l 2,19,20
 388 732 388 732 388 677 c 0,21,22
 388 625 388 625 336 604 c 1,23,-1
 395 497 l 1,24,-1
 323 497 l 1,25,-1
 272 593 l 1,26,-1
 261 593 l 1,27,-1
 248 497 l 1,16,-1
274 685 m 1,28,-1
 268 640 l 1,29,-1
 287 640 l 2,30,31
 327 640 327 640 327 668 c 0,32,33
 327 685 327 685 300 685 c 2,34,-1
 274 685 l 1,28,-1
EndSplineSet
EndChar

StartChar: overscore
Encoding: 175 175 112
Width: 276
Flags: HMW
HStem: 595 64<-28 302 -28 302>
LayerCount: 2
Fore
SplineSet
302 595 m 1,0,-1
 -28 595 l 1,1,-1
 -28 659 l 1,2,-1
 302 659 l 1,3,-1
 302 595 l 1,0,-1
EndSplineSet
EndChar

StartChar: degree
Encoding: 176 176 113
Width: 351
Flags: HMW
HStem: 448 64<191.5 236.5 191.5 254.5> 674 64<192 236>
VStem: 69 67<571 615 571 633> 293 67<571 615>
LayerCount: 2
Fore
SplineSet
69 593 m 128,-1,1
 69 653 69 653 111.5 695.5 c 128,-1,2
 154 738 154 738 214 738 c 128,-1,3
 274 738 274 738 317 695.5 c 128,-1,4
 360 653 360 653 360 593 c 128,-1,5
 360 533 360 533 317.5 490.5 c 128,-1,6
 275 448 275 448 214.5 448 c 0,7,8
 154 448 154 448 111.5 490.5 c 128,-1,0
 69 533 69 533 69 593 c 128,-1,1
136 593 m 128,-1,10
 136 560 136 560 158.5 536 c 128,-1,11
 181 512 181 512 214 512 c 128,-1,12
 247 512 247 512 270 536 c 128,-1,13
 293 560 293 560 293 593 c 128,-1,14
 293 626 293 626 270 650 c 128,-1,15
 247 674 247 674 214 674 c 128,-1,16
 181 674 181 674 158.5 650 c 128,-1,9
 136 626 136 626 136 593 c 128,-1,10
EndSplineSet
EndChar

StartChar: plusminus
Encoding: 177 177 114
Width: 609
Flags: HMW
HStem: 1 85<39 537 39 537> 267 85<332 537 332 537> 477 20G<244 332 332 332>
VStem: 244 88<120 266 266 266 352 497>
LayerCount: 2
Fore
SplineSet
537 1 m 1,0,-1
 39 1 l 1,1,-1
 39 86 l 1,2,-1
 537 86 l 1,3,-1
 537 1 l 1,0,-1
244 266 m 1,4,-1
 39 266 l 1,5,-1
 39 351 l 1,6,-1
 244 351 l 1,7,-1
 244 497 l 1,8,-1
 332 497 l 1,9,-1
 332 352 l 1,10,-1
 537 352 l 1,11,-1
 537 267 l 1,12,-1
 332 267 l 1,13,-1
 332 120 l 1,14,-1
 244 120 l 1,15,-1
 244 266 l 1,4,-1
EndSplineSet
EndChar

StartChar: uni00B2
Encoding: 178 178 115
Width: 409
Flags: HMW
HStem: 438 95<207 375> 856 79<270 283.5>
VStem: 320 113<777 820.5>
LayerCount: 2
Fore
SplineSet
433 823 m 0,0,1
 433 684 433 684 208 534 c 1,2,-1
 207 533 l 1,3,-1
 413 533 l 1,4,-1
 375 438 l 1,5,-1
 49 438 l 1,6,-1
 49 489 l 1,7,8
 127 550 127 550 184 604 c 0,9,10
 320 736 320 736 320 805 c 0,11,12
 320 828 320 828 305.5 842 c 128,-1,13
 291 856 291 856 268 856 c 0,14,15
 216 856 216 856 142 798 c 1,16,-1
 109 864 l 1,17,18
 129 880 129 880 163 899 c 0,19,20
 229 935 229 935 296.5 935 c 0,21,22
 364 935 364 935 398.5 903.5 c 128,-1,23
 433 872 433 872 433 823 c 0,0,1
EndSplineSet
EndChar

StartChar: uni00B3
Encoding: 179 179 116
Width: 389
Flags: HMW
HStem: 425 69<50 55> 856 79<261.5 278.5>
VStem: 309 99
LayerCount: 2
Fore
SplineSet
207 672 m 1,0,-1
 183 671 l 2,1,2
 180 670 180 670 174 670 c 1,3,-1
 171 728 l 1,4,5
 271.206896552 751.124668435 271.206896552 751.124668435 296 784.5 c 0,6,7
 309 802 309 802 309 820.5 c 0,8,9
 309 856 309 856 267 856 c 0,10,11
 202 856 202 856 137 806 c 1,12,-1
 104 867 l 1,13,14
 144 896 144 896 196 915.5 c 128,-1,15
 248 935 248 935 296 935 c 128,-1,16
 344 935 344 935 380 916 c 128,-1,17
 416 897 416 897 416 854 c 0,18,19
 416 771 416 771 320 738 c 1,20,21
 408 720 408 720 408 642 c 0,22,23
 408 592.911111111 408 592.911111111 372.5 544 c 0,24,25
 350 513 350 513 313.5 489 c 128,-1,26
 277 465 277 465 210 446.5 c 128,-1,27
 143 428 143 428 55 425 c 1,28,-1
 50 494 l 1,29,30
 166 500 166 500 232 534.5 c 128,-1,31
 298 569 298 569 298 620.5 c 128,-1,32
 298 672 298 672 207 672 c 1,0,-1
EndSplineSet
EndChar

StartChar: acute
Encoding: 180 180 117
Width: 235
Flags: HMW
HStem: 590 21G<21 124 21 21> 735 20G<153 298 298 298>
LayerCount: 2
Fore
SplineSet
124 590 m 1,0,-1
 21 590 l 1,1,-1
 153 755 l 1,2,-1
 298 755 l 1,3,-1
 124 590 l 1,0,-1
EndSplineSet
EndChar

StartChar: uni00B5
Encoding: 181 181 118
Width: 572
Flags: HMW
HStem: -187 21G<-2 115 -2 -2> -11 94<190 223> -9 21G<372.5 410> 477 20G<79 204 204 204 355 481 481 481>
LayerCount: 2
Fore
SplineSet
115 -187 m 1,0,-1
 -2 -187 l 1,1,-1
 82 444 l 1,2,-1
 79 497 l 1,3,-1
 204 497 l 1,4,-1
 162 186 l 2,5,6
 159 168 159 168 159 149 c 0,7,8
 159 83 159 83 211 83 c 0,9,10
 267 83 267 83 317 130 c 1,11,-1
 359 444 l 1,12,-1
 355 497 l 1,13,-1
 481 497 l 1,14,-1
 433 131 l 2,15,16
 431 117 431 117 431 108 c 0,17,18
 431 79 431 79 449 79 c 0,19,20
 451 79 451 79 496 91 c 1,21,-1
 506 18 l 1,22,23
 418 -9 418 -9 390.5 -9 c 0,24,25
 363 -9 363 -9 346 9 c 128,-1,26
 329 27 329 27 327 57 c 1,27,28
 263 -11 263 -11 201 -11 c 0,29,30
 168 -11 168 -11 141 4 c 1,31,-1
 115 -187 l 1,0,-1
EndSplineSet
EndChar

StartChar: paragraph
Encoding: 182 182 119
Width: 484
Flags: HMW
HStem: -231 54<85 112.5> -63 54<97.5 115> 710 54<334 334 334 395 449 505 449 449>
VStem: -5 54<-142 -110 -142 -102>
LayerCount: 2
Fore
SplineSet
22 -204.5 m 128,-1,1
 -5 -178 -5 -178 -5 -131.5 c 128,-1,2
 -5 -85 -5 -85 33.5 -47 c 128,-1,3
 72 -9 72 -9 123 -9 c 1,4,-1
 115 -63 l 1,5,6
 88 -63 88 -63 68.5 -82 c 128,-1,7
 49 -101 49 -101 49 -125 c 128,-1,8
 49 -149 49 -149 63.5 -163 c 128,-1,9
 78 -177 78 -177 100.5 -177 c 128,-1,10
 123 -177 123 -177 141.5 -160 c 128,-1,11
 160 -143 160 -143 163 -120 c 2,12,-1
 232 378 l 1,13,14
 161 378 161 378 114.5 422.5 c 128,-1,15
 68 467 68 467 68 538 c 0,16,17
 68 644 68 644 140.5 704 c 128,-1,18
 213 764 213 764 321 764 c 2,19,-1
 513 764 l 1,20,-1
 505 710 l 1,21,-1
 449 710 l 1,22,-1
 341 -63 l 2,23,24
 335 -108 335 -108 298.5 -141 c 128,-1,25
 262 -174 262 -174 217 -174 c 0,26,27
 212 -174 212 -174 198 -172 c 1,28,29
 158 -231 158 -231 91 -231 c 0,30,0
 49 -231 49 -231 22 -204.5 c 128,-1,1
334 710 m 1,31,-1
 218 -120 l 1,32,-1
 222 -120 l 2,33,34
 246 -120 246 -120 265 -103 c 128,-1,35
 284 -86 284 -86 287 -63 c 2,36,-1
 395 710 l 1,37,-1
 334 710 l 1,31,-1
EndSplineSet
EndChar

StartChar: middot
Encoding: 183 183 120
Width: 233
Flags: HMW
HStem: 182 151<88.5 130.5>
VStem: 34 151<236.5 278.5>
LayerCount: 2
Fore
SplineSet
56 204 m 128,-1,1
 34 226 34 226 34 257.5 c 128,-1,2
 34 289 34 289 56 311 c 128,-1,3
 78 333 78 333 109.5 333 c 128,-1,4
 141 333 141 333 163 311 c 128,-1,5
 185 289 185 289 185 257.5 c 128,-1,6
 185 226 185 226 163 204 c 128,-1,7
 141 182 141 182 109.5 182 c 128,-1,0
 78 182 78 182 56 204 c 128,-1,1
EndSplineSet
EndChar

StartChar: cedilla
Encoding: 184 184 121
Width: 229
Flags: HMW
HStem: -220 21G<51 51> -7 20G<119 195 195 195>
VStem: 111 98<-134 -109.5>
LayerCount: 2
Fore
SplineSet
51 -220 m 1,0,-1
 35 -158 l 1,1,2
 90.2920353982 -151.088495575 90.2920353982 -151.088495575 100.646017699 -140.044247788 c 128,-1,3
 111 -129 111 -129 111 -117.5 c 128,-1,4
 111 -106 111 -106 98 -99 c 128,-1,5
 85 -92 85 -92 54 -82 c 1,6,-1
 119 13 l 1,7,-1
 195 13 l 1,8,-1
 159 -42 l 1,9,10
 209 -66 209 -66 209 -112 c 0,11,12
 209 -197 209 -197 51 -220 c 1,0,-1
EndSplineSet
EndChar

StartChar: uni00B9
Encoding: 185 185 122
Width: 399
Flags: HMW
HStem: 438 79<61 188 296 388 51 188> 904 20G<268 349 349 349>
LayerCount: 2
Fore
SplineSet
89 855 m 1,0,1
 184.984962406 884.533834586 184.984962406 884.533834586 268 924 c 1,2,-1
 349 924 l 1,3,-1
 296 517 l 1,4,-1
 398 517 l 1,5,-1
 388 438 l 1,6,-1
 51 438 l 1,7,-1
 61 517 l 1,8,-1
 188 517 l 1,9,-1
 228 820 l 1,10,-1
 104 785 l 1,11,-1
 89 855 l 1,0,1
EndSplineSet
EndChar

StartChar: ordmasculine
Encoding: 186 186 123
Width: 388
Flags: HMW
HStem: 252 58<81 300 73 308> 366 55<187 246 187 259.5> 660 55<206.5 265.5>
VStem: 68 84<485 532 485 561> 300 85<548.5 596>
LayerCount: 2
Fore
SplineSet
103 404.5 m 128,-1,1
 68 443 68 443 68 517.5 c 128,-1,2
 68 592 68 592 118 653.5 c 128,-1,3
 168 715 168 715 250 715 c 0,4,5
 315 715 315 715 350 676.5 c 128,-1,6
 385 638 385 638 385 573 c 0,7,8
 385 488 385 488 335 427 c 128,-1,9
 285 366 285 366 202 366 c 0,10,0
 138 366 138 366 103 404.5 c 128,-1,1
300 252 m 1,11,-1
 73 252 l 1,12,-1
 81 310 l 1,13,-1
 308 310 l 1,14,-1
 300 252 l 1,11,-1
211 421 m 0,15,16
 243 421 243 421 264.5 449.5 c 0,17,18
 300 496.558139535 300 496.558139535 300 578.279069767 c 128,-1,19
 300 660 300 660 242 660 c 0,20,21
 209 660 209 660 187.5 631 c 0,22,23
 152 583.11627907 152 583.11627907 152 502.058139535 c 128,-1,24
 152 421 152 421 211 421 c 0,15,16
EndSplineSet
EndChar

StartChar: guillemotright
Encoding: 187 187 124
Width: 463
Flags: HMW
HStem: 162 21G<88 88 256 256> 484 20G<140 140 308 308>
LayerCount: 2
Fore
SplineSet
88 162 m 1,0,-1
 13 173 l 1,1,-1
 158 332 l 1,2,-1
 60 490 l 1,3,-1
 140 504 l 1,4,-1
 268 332 l 1,5,-1
 88 162 l 1,0,-1
256 162 m 1,6,-1
 182 173 l 1,7,-1
 326 332 l 1,8,-1
 229 490 l 1,9,-1
 308 504 l 1,10,-1
 436 332 l 1,11,-1
 256 162 l 1,6,-1
EndSplineSet
EndChar

StartChar: onequarter
Encoding: 188 188 125
Width: 995
Flags: HMW
HStem: -27 21G<296 375 296 296> 0 180<748 771 666 856 748 748> 101 79<666 761 879 936> 246 79<56 182 290 382 46 182> 712 20G<264 344 344 344> 733 20G<695 775 775 775>
LayerCount: 2
Fore
SplineSet
382 246 m 1,0,-1
 46 246 l 1,1,-1
 56 325 l 1,2,-1
 182 325 l 1,3,-1
 222 628 l 1,4,-1
 99 593 l 1,5,-1
 85 663 l 1,6,7
 96 666 96 666 151 685 c 0,8,9
 206 704 206 704 264 732 c 1,10,-1
 344 732 l 1,11,-1
 290 325 l 1,12,-1
 392 325 l 1,13,-1
 382 246 l 1,0,-1
375 -27 m 1,14,-1
 296 -27 l 1,15,-1
 695 753 l 1,16,-1
 775 753 l 1,17,-1
 375 -27 l 1,14,-1
761 101 m 1,18,-1
 554 101 l 1,19,-1
 554 153 l 1,20,-1
 813 486 l 1,21,-1
 920 486 l 1,22,-1
 879 180 l 1,23,-1
 947 180 l 1,24,-1
 936 101 l 1,25,-1
 869 101 l 1,26,-1
 856 0 l 1,27,-1
 748 0 l 1,28,-1
 761 101 l 1,18,-1
745 283 m 2,29,-1
 666 180 l 1,30,-1
 771 180 l 1,31,-1
 787 297 l 2,32,33
 790 315 790 315 797 349 c 2,34,-1
 803 375 l 1,35,-1
 806 386 l 1,36,37
 785 335 785 335 745 283 c 2,29,-1
EndSplineSet
EndChar

StartChar: onehalf
Encoding: 189 189 126
Width: 1032
Flags: HMW
HStem: -27 21G<293 372 293 293> 0 106<791 933> 246 79<53 179 287 379 43 179> 409 88<825.5 840.5> 712 20G<261 341 341 341> 733 20G<692 772 772 772>
VStem: 878 122<329.5 376.5>
LayerCount: 2
Fore
SplineSet
379 246 m 1,0,-1
 43 246 l 1,1,-1
 53 325 l 1,2,-1
 179 325 l 1,3,-1
 219 628 l 1,4,-1
 96 593 l 1,5,-1
 82 663 l 1,6,7
 93 666 93 666 148 685 c 0,8,9
 203 704 203 704 261 732 c 1,10,-1
 341 732 l 1,11,-1
 287 325 l 1,12,-1
 389 325 l 1,13,-1
 379 246 l 1,0,-1
372 -27 m 1,14,-1
 293 -27 l 1,15,-1
 692 753 l 1,16,-1
 772 753 l 1,17,-1
 372 -27 l 1,14,-1
933 0 m 1,18,-1
 610 0 l 1,19,-1
 610 52 l 1,20,-1
 620 60 l 2,21,22
 673 103 673 103 724.5 149.5 c 128,-1,23
 776 196 776 196 827 259.5 c 128,-1,24
 878 323 878 323 878 361 c 0,25,26
 878 384 878 384 863.5 396.5 c 128,-1,27
 849 409 849 409 824 409 c 0,28,29
 799 409 799 409 764 393 c 128,-1,30
 729 377 729 377 702 357 c 1,31,-1
 669 426 l 1,32,33
 766 497 766 497 861 497 c 0,34,35
 922 497 922 497 961 469 c 128,-1,36
 1000 441 1000 441 1000 384 c 0,37,38
 1000 311 1000 311 936.5 236.5 c 128,-1,39
 873 162 873 162 791 106 c 1,40,-1
 973 106 l 1,41,-1
 933 0 l 1,18,-1
EndSplineSet
EndChar

StartChar: threequarters
Encoding: 190 190 127
Width: 951
Flags: HMW
HStem: -27 21G<252 331 252 252> 0 180<703 726 622 811 703 703> 101 79<622 716 834 892> 233 69<37 43> 664 79<250.5 266> 733 20G<650 730 730 730>
VStem: 285 110<421.5 452.5> 297 98
LayerCount: 2
Fore
SplineSet
195 480 m 1,0,-1
 171 479 l 2,1,2
 168 478 168 478 162 478 c 1,3,-1
 159 536 l 1,4,5
 257.438502674 558.71657754 257.438502674 558.71657754 283.5 592.5 c 0,6,7
 297 610 297 610 297 628.5 c 0,8,9
 297 664 297 664 254 664 c 0,10,11
 223 664 223 664 187 649.5 c 128,-1,12
 151 635 151 635 125 614 c 1,13,-1
 92 675 l 1,14,15
 131 704 131 704 183.5 723.5 c 128,-1,16
 236 743 236 743 284 743 c 128,-1,17
 332 743 332 743 367.5 724 c 128,-1,18
 403 705 403 705 403 663 c 0,19,20
 403 580 403 580 309 546 c 1,21,22
 395 528 395 528 395 450 c 0,23,24
 395 400.533333333 395 400.533333333 366.5 361.266666667 c 128,-1,25
 338 322 338 322 302 298 c 128,-1,26
 266 274 266 274 198.5 255 c 128,-1,27
 131 236 131 236 43 233 c 1,28,-1
 37 302 l 1,29,30
 155 308 155 308 220 342 c 128,-1,31
 285 376 285 376 285 429 c 0,32,33
 285 480 285 480 195 480 c 1,0,-1
331 -27 m 1,34,-1
 252 -27 l 1,35,-1
 650 753 l 1,36,-1
 730 753 l 1,37,-1
 331 -27 l 1,34,-1
716 101 m 1,38,-1
 509 101 l 1,39,-1
 509 153 l 1,40,-1
 768 486 l 1,41,-1
 875 486 l 1,42,-1
 834 180 l 1,43,-1
 903 180 l 1,44,-1
 892 101 l 1,45,-1
 824 101 l 1,46,-1
 811 0 l 1,47,-1
 703 0 l 1,48,-1
 716 101 l 1,38,-1
700 283 m 2,49,-1
 622 180 l 1,50,-1
 726 180 l 1,51,-1
 742 297 l 2,52,53
 743 310 743 310 753 348 c 2,54,-1
 762 386 l 1,55,56
 737 332 737 332 700 283 c 2,49,-1
EndSplineSet
EndChar

StartChar: questiondown
Encoding: 191 191 128
Width: 408
Flags: HMW
HStem: -132 81<155.5 179> 310 93<114 140 114 140> 464 148<276 316>
VStem: -10 123<-21.5 48 -21.5 88> 221 149<518 558 518 558.5> 241 114<220.5 280.5>
LayerCount: 2
Fore
SplineSet
-10 -1 m 0,0,1
 -10 48 -10 48 16 86 c 128,-1,2
 42 124 42 124 79 146 c 128,-1,3
 116 168 116 168 152.5 185 c 128,-1,4
 189 202 189 202 215 220 c 128,-1,5
 241 238 241 238 241 262.5 c 128,-1,6
 241 287 241 287 206 298.5 c 128,-1,7
 171 310 171 310 134 310 c 2,8,-1
 114 310 l 1,9,-1
 140 403 l 1,10,11
 192 400 192 400 237 386.5 c 128,-1,12
 282 373 282 373 318.5 337.5 c 128,-1,13
 355 302 355 302 355 254 c 128,-1,14
 355 206 355 206 330 174 c 128,-1,15
 305 142 305 142 269.5 122.5 c 128,-1,16
 234 103 234 103 198.5 86 c 0,17,18
 113 45.0563380282 113 45.0563380282 113 -8 c 0,19,20
 113 -27 113 -27 130.5 -39 c 128,-1,21
 148 -51 148 -51 167 -51 c 0,22,23
 214 -51 214 -51 258 -28 c 1,24,-1
 283 -112 l 1,25,26
 211 -132 211 -132 151 -132 c 128,-1,27
 91 -132 91 -132 40.5 -98 c 128,-1,28
 -10 -64 -10 -64 -10 -1 c 0,0,1
221 538 m 128,-1,30
 221 568 221 568 243.5 590 c 128,-1,31
 266 612 266 612 296 612 c 128,-1,32
 326 612 326 612 348 590 c 128,-1,33
 370 568 370 568 370 538 c 128,-1,34
 370 508 370 508 348 486 c 128,-1,35
 326 464 326 464 296 464 c 128,-1,36
 266 464 266 464 243.5 486 c 128,-1,29
 221 508 221 508 221 538 c 128,-1,30
EndSplineSet
EndChar

StartChar: Agrave
Encoding: 192 192 129
Width: 605
Flags: HMW
HStem: 0 21G<-38 86 -38 -38 422 422 422 562> 210 98<231 360 231 381 185 360> 712 20G<306 414 414 414> 916 20G<169 314 314 314>
LayerCount: 2
Fore
SplineSet
86 0 m 1,0,-1
 -38 0 l 1,1,-1
 306 732 l 1,2,-1
 414 732 l 1,3,-1
 562 0 l 1,4,-1
 422 0 l 1,5,-1
 381 210 l 1,6,-1
 185 210 l 1,7,-1
 86 0 l 1,0,-1
320 771 m 1,8,-1
 169 936 l 1,9,-1
 314 936 l 1,10,-1
 423 771 l 1,11,-1
 320 771 l 1,8,-1
231 308 m 1,12,-1
 360 308 l 1,13,14
 355 335 355 335 326 558 c 1,15,16
 318 537 318 537 285.5 447 c 128,-1,17
 253 357 253 357 231 308 c 1,12,-1
EndSplineSet
EndChar

StartChar: Aacute
Encoding: 193 193 130
Width: 605
Flags: HMW
HStem: 0 21G<-38 86 -38 -38 422 422 422 562> 210 98<231 360 231 381 185 360> 712 20G<306 414 414 414> 916 20G<426 571 571 571>
LayerCount: 2
Fore
SplineSet
86 0 m 1,0,-1
 -38 0 l 1,1,-1
 306 732 l 1,2,-1
 414 732 l 1,3,-1
 562 0 l 1,4,-1
 422 0 l 1,5,-1
 381 210 l 1,6,-1
 185 210 l 1,7,-1
 86 0 l 1,0,-1
231 308 m 1,8,-1
 360 308 l 1,9,10
 355 335 355 335 326 558 c 1,11,12
 318 537 318 537 285.5 447 c 128,-1,13
 253 357 253 357 231 308 c 1,8,-1
397 771 m 1,14,-1
 294 771 l 1,15,-1
 426 936 l 1,16,-1
 571 936 l 1,17,-1
 397 771 l 1,14,-1
EndSplineSet
EndChar

StartChar: Acircumflex
Encoding: 194 194 131
Width: 605
Flags: HMW
HStem: 0 21G<-38 86 -38 -38 422 422 422 562> 210 98<231 360 231 381 185 360> 712 20G<306 414 414 414> 896 20G<330 428 428 428>
LayerCount: 2
Fore
SplineSet
86 0 m 1,0,-1
 -38 0 l 1,1,-1
 306 732 l 1,2,-1
 414 732 l 1,3,-1
 562 0 l 1,4,-1
 422 0 l 1,5,-1
 381 210 l 1,6,-1
 185 210 l 1,7,-1
 86 0 l 1,0,-1
290 771 m 1,8,-1
 214 771 l 1,9,-1
 330 916 l 1,10,-1
 428 916 l 1,11,-1
 507 771 l 1,12,-1
 429 771 l 1,13,-1
 369 845 l 1,14,-1
 290 771 l 1,8,-1
231 308 m 1,15,-1
 360 308 l 1,16,17
 355 335 355 335 326 558 c 1,18,19
 318 537 318 537 285.5 447 c 128,-1,20
 253 357 253 357 231 308 c 1,15,-1
EndSplineSet
EndChar

StartChar: Atilde
Encoding: 195 195 132
Width: 605
Flags: HMW
HStem: 0 21G<-38 86 -38 -38 422 422 422 562> 210 98<231 360 231 381 185 360> 712 20G<306 414 414 414> 764 79<417 434> 793 50 793 78<287.5 302.5>
LayerCount: 2
Fore
SplineSet
86 0 m 1,0,-1
 -38 0 l 1,1,-1
 306 732 l 1,2,-1
 414 732 l 1,3,-1
 562 0 l 1,4,-1
 422 0 l 1,5,-1
 381 210 l 1,6,-1
 185 210 l 1,7,-1
 86 0 l 1,0,-1
180 795 m 1,8,9
 230.666666667 871 230.666666667 871 310 871 c 0,10,11
 340 871 340 871 380 857 c 128,-1,12
 420 843 420 843 435 843 c 128,-1,13
 450 843 450 843 489 870 c 1,14,-1
 535 839 l 1,15,16
 487 764 487 764 414 764 c 0,17,18
 384 764 384 764 342.5 778.5 c 128,-1,19
 301 793 301 793 281 793 c 128,-1,20
 261 793 261 793 230 768 c 1,21,-1
 180 795 l 1,8,9
231 308 m 1,22,-1
 360 308 l 1,23,24
 355 335 355 335 326 558 c 1,25,26
 318 537 318 537 285.5 447 c 128,-1,27
 253 357 253 357 231 308 c 1,22,-1
EndSplineSet
EndChar

StartChar: Adieresis
Encoding: 196 196 133
Width: 605
Flags: HMW
HStem: 0 21G<-38 86 -38 -38 422 422 422 562> 210 98<231 360 231 381 185 360> 712 20G<306 414 414 414> 763 114<264 296 424.5 456>
VStem: 223 114<804 836> 383 115<804.5 835.5>
LayerCount: 2
Fore
SplineSet
86 0 m 1,0,-1
 -38 0 l 1,1,-1
 306 732 l 1,2,-1
 414 732 l 1,3,-1
 562 0 l 1,4,-1
 422 0 l 1,5,-1
 381 210 l 1,6,-1
 185 210 l 1,7,-1
 86 0 l 1,0,-1
223 820 m 128,-1,9
 223 844 223 844 239.5 860.5 c 128,-1,10
 256 877 256 877 280 877 c 128,-1,11
 304 877 304 877 320.5 860.5 c 128,-1,12
 337 844 337 844 337 820 c 128,-1,13
 337 796 337 796 320.5 779.5 c 128,-1,14
 304 763 304 763 280 763 c 128,-1,15
 256 763 256 763 239.5 779.5 c 128,-1,8
 223 796 223 796 223 820 c 128,-1,9
231 308 m 1,16,-1
 360 308 l 1,17,18
 355 335 355 335 326 558 c 1,19,20
 318 537 318 537 285.5 447 c 128,-1,21
 253 357 253 357 231 308 c 1,16,-1
383 820 m 128,-1,23
 383 843 383 843 400 860 c 128,-1,24
 417 877 417 877 440.5 877 c 0,25,26
 464 877 464 877 481 860.5 c 128,-1,27
 498 844 498 844 498 820 c 128,-1,28
 498 796 498 796 481 779.5 c 128,-1,29
 464 763 464 763 440.5 763 c 0,30,31
 417 763 417 763 400 780 c 128,-1,22
 383 797 383 797 383 820 c 128,-1,23
EndSplineSet
EndChar

StartChar: Aring
Encoding: 197 197 134
Width: 605
Flags: HMW
HStem: 0 21G<-38 86 -38 -38 422 422 422 562> 210 98<231 360 231 381 185 360> 712 20G<306 414 414 414> 763 66<359.5 382.5 359.5 400.5> 910 67<359.5 381.5>
VStem: 264 66<858.5 881.5 858.5 899.5> 411 68<858.5 881.5>
LayerCount: 2
Fore
SplineSet
86 0 m 1,0,-1
 -38 0 l 1,1,-1
 306 732 l 1,2,-1
 414 732 l 1,3,-1
 562 0 l 1,4,-1
 422 0 l 1,5,-1
 381 210 l 1,6,-1
 185 210 l 1,7,-1
 86 0 l 1,0,-1
231 308 m 1,8,-1
 360 308 l 1,9,10
 355 335 355 335 326 558 c 1,11,12
 318 537 318 537 285.5 447 c 128,-1,13
 253 357 253 357 231 308 c 1,8,-1
264 870 m 128,-1,15
 264 914 264 914 295.5 945.5 c 128,-1,16
 327 977 327 977 371 977 c 128,-1,17
 415 977 415 977 447 945.5 c 128,-1,18
 479 914 479 914 479 870 c 128,-1,19
 479 826 479 826 447 794.5 c 128,-1,20
 415 763 415 763 371 763 c 128,-1,21
 327 763 327 763 295.5 794.5 c 128,-1,14
 264 826 264 826 264 870 c 128,-1,15
330 870 m 128,-1,23
 330 853 330 853 342 841 c 128,-1,24
 354 829 354 829 371 829 c 128,-1,25
 388 829 388 829 399.5 841 c 128,-1,26
 411 853 411 853 411 870 c 128,-1,27
 411 887 411 887 399 898.5 c 128,-1,28
 387 910 387 910 370.5 910 c 0,29,30
 354 910 354 910 342 898.5 c 128,-1,22
 330 887 330 887 330 870 c 128,-1,23
EndSplineSet
EndChar

StartChar: AE
Encoding: 198 198 135
Width: 859
Flags: HMW
HStem: 0 99<531 784> 210 98<268 409 204 422> 327 99<577 778 563 792> 633 99<466 466 606 873 606 606>
LayerCount: 2
Fore
SplineSet
67 0 m 1,0,-1
 -55 0 l 1,1,-1
 378 670 l 1,2,-1
 373 732 l 1,3,-1
 887 732 l 1,4,-1
 873 633 l 1,5,-1
 606 633 l 1,6,-1
 577 426 l 1,7,-1
 792 426 l 1,8,-1
 778 327 l 1,9,-1
 563 327 l 1,10,-1
 531 99 l 1,11,-1
 798 99 l 1,12,-1
 784 0 l 1,13,-1
 379 0 l 1,14,-1
 409 210 l 1,15,-1
 204 210 l 1,16,-1
 67 0 l 1,0,-1
429 562 m 1,17,-1
 268 308 l 1,18,-1
 422 308 l 1,19,-1
 466 633 l 1,20,-1
 429 562 l 1,17,-1
EndSplineSet
EndChar

StartChar: Ccedilla
Encoding: 199 199 136
Width: 608
Flags: HMW
HStem: -220 21G<235 235> 649 97<334 443.5>
VStem: 37 143<269.5 390.5 269.5 407.5> 295 98<-134 -109.5>
LayerCount: 2
Fore
SplineSet
101 82 m 128,-1,1
 37 162 37 162 37 286 c 128,-1,2
 37 410 37 410 81.5 512 c 128,-1,3
 126 614 126 614 216.5 680 c 128,-1,4
 307 746 307 746 426 746 c 0,5,6
 485 746 485 746 547 728 c 128,-1,7
 609 710 609 710 642 675 c 1,8,-1
 561 583 l 1,9,10
 539 614 539 614 498.5 631.5 c 128,-1,11
 458 649 458 649 408 649 c 128,-1,12
 358 649 358 649 310.5 618 c 128,-1,13
 263 587 263 587 235.5 537 c 128,-1,14
 208 487 208 487 194 431.5 c 128,-1,15
 180 376 180 376 180 320 c 128,-1,16
 180 264 180 264 194 213 c 128,-1,17
 208 162 208 162 247 122 c 128,-1,18
 286 82 286 82 344 82 c 0,19,20
 432 82 432 82 516 157 c 1,21,-1
 563 62 l 1,22,23
 459 -1 459 -1 364 -10 c 1,24,-1
 343 -42 l 1,25,26
 393 -66 393 -66 393 -112 c 0,27,28
 393 -197 393 -197 235 -220 c 1,29,-1
 219 -158 l 1,30,31
 274.292035398 -151.088495575 274.292035398 -151.088495575 284.646017699 -140.044247788 c 128,-1,32
 295 -129 295 -129 295 -117.5 c 128,-1,33
 295 -106 295 -106 282 -99 c 128,-1,34
 269 -92 269 -92 238 -82 c 1,35,-1
 287 -10 l 1,36,0
 165 2 165 2 101 82 c 128,-1,1
EndSplineSet
EndChar

StartChar: Egrave
Encoding: 200 200 137
Width: 520
Flags: HMW
HStem: 0 99<170 449> 327 99<213 424 200 437> 633 99<241 534 241 241> 916 20G<154 299 299 299>
LayerCount: 2
Fore
SplineSet
449 0 m 1,0,-1
 26 0 l 1,1,-1
 116 671 l 1,2,-1
 109 732 l 1,3,-1
 547 732 l 1,4,-1
 534 633 l 1,5,-1
 241 633 l 1,6,-1
 213 426 l 1,7,-1
 437 426 l 1,8,-1
 424 327 l 1,9,-1
 200 327 l 1,10,-1
 170 99 l 1,11,-1
 462 99 l 1,12,-1
 449 0 l 1,0,-1
305 771 m 1,13,-1
 154 936 l 1,14,-1
 299 936 l 1,15,-1
 408 771 l 1,16,-1
 305 771 l 1,13,-1
EndSplineSet
EndChar

StartChar: Eacute
Encoding: 201 201 138
Width: 520
Flags: HMW
HStem: 0 99<170 449> 327 99<213 424 200 437> 633 99<241 534 241 241> 916 20G<417 562 562 562>
LayerCount: 2
Fore
SplineSet
449 0 m 1,0,-1
 26 0 l 1,1,-1
 116 671 l 1,2,-1
 109 732 l 1,3,-1
 547 732 l 1,4,-1
 534 633 l 1,5,-1
 241 633 l 1,6,-1
 213 426 l 1,7,-1
 437 426 l 1,8,-1
 424 327 l 1,9,-1
 200 327 l 1,10,-1
 170 99 l 1,11,-1
 462 99 l 1,12,-1
 449 0 l 1,0,-1
388 771 m 1,13,-1
 285 771 l 1,14,-1
 417 936 l 1,15,-1
 562 936 l 1,16,-1
 388 771 l 1,13,-1
EndSplineSet
EndChar

StartChar: Ecircumflex
Encoding: 202 202 139
Width: 520
Flags: HMW
HStem: 0 99<170 449> 327 99<213 424 200 437> 633 99<241 534 241 241> 896 20G<314 412 412 412>
LayerCount: 2
Fore
SplineSet
449 0 m 1,0,-1
 26 0 l 1,1,-1
 116 671 l 1,2,-1
 109 732 l 1,3,-1
 547 732 l 1,4,-1
 534 633 l 1,5,-1
 241 633 l 1,6,-1
 213 426 l 1,7,-1
 437 426 l 1,8,-1
 424 327 l 1,9,-1
 200 327 l 1,10,-1
 170 99 l 1,11,-1
 462 99 l 1,12,-1
 449 0 l 1,0,-1
274 771 m 1,13,-1
 198 771 l 1,14,-1
 314 916 l 1,15,-1
 412 916 l 1,16,-1
 491 771 l 1,17,-1
 413 771 l 1,18,-1
 353 845 l 1,19,-1
 274 771 l 1,13,-1
EndSplineSet
EndChar

StartChar: Edieresis
Encoding: 203 203 140
Width: 520
Flags: HMW
HStem: 0 99<170 449> 327 99<213 424 200 437> 633 99<241 534 241 241> 764 114<247 279 407.5 439>
VStem: 206 114<805 837> 366 115<805.5 836.5>
LayerCount: 2
Fore
SplineSet
449 0 m 1,0,-1
 26 0 l 1,1,-1
 116 671 l 1,2,-1
 109 732 l 1,3,-1
 547 732 l 1,4,-1
 534 633 l 1,5,-1
 241 633 l 1,6,-1
 213 426 l 1,7,-1
 437 426 l 1,8,-1
 424 327 l 1,9,-1
 200 327 l 1,10,-1
 170 99 l 1,11,-1
 462 99 l 1,12,-1
 449 0 l 1,0,-1
206 821 m 128,-1,14
 206 845 206 845 222.5 861.5 c 128,-1,15
 239 878 239 878 263 878 c 128,-1,16
 287 878 287 878 303.5 861.5 c 128,-1,17
 320 845 320 845 320 821 c 128,-1,18
 320 797 320 797 303.5 780.5 c 128,-1,19
 287 764 287 764 263 764 c 128,-1,20
 239 764 239 764 222.5 780.5 c 128,-1,13
 206 797 206 797 206 821 c 128,-1,14
366 821 m 128,-1,22
 366 844 366 844 383 861 c 128,-1,23
 400 878 400 878 423.5 878 c 0,24,25
 447 878 447 878 464 861.5 c 128,-1,26
 481 845 481 845 481 821 c 128,-1,27
 481 797 481 797 464 780.5 c 128,-1,28
 447 764 447 764 423.5 764 c 0,29,30
 400 764 400 764 383 781 c 128,-1,21
 366 798 366 798 366 821 c 128,-1,22
EndSplineSet
EndChar

StartChar: Igrave
Encoding: 204 204 141
Width: 263
Flags: HMW
HStem: 0 21G<26 157 26 26> 712 20G<110 254 254 254> 916 20G<2 147 147 147>
LayerCount: 2
Fore
SplineSet
153 771 m 1,0,-1
 2 936 l 1,1,-1
 147 936 l 1,2,-1
 256 771 l 1,3,-1
 153 771 l 1,0,-1
157 0 m 1,4,-1
 26 0 l 1,5,-1
 116 671 l 1,6,-1
 110 732 l 1,7,-1
 254 732 l 1,8,-1
 157 0 l 1,4,-1
EndSplineSet
EndChar

StartChar: Iacute
Encoding: 205 205 142
Width: 263
Flags: HMW
HStem: 0 21G<26 157 26 26> 712 20G<110 254 254 254> 916 20G<259 404 404 404>
LayerCount: 2
Fore
SplineSet
157 0 m 1,0,-1
 26 0 l 1,1,-1
 116 671 l 1,2,-1
 110 732 l 1,3,-1
 254 732 l 1,4,-1
 157 0 l 1,0,-1
230 771 m 1,5,-1
 127 771 l 1,6,-1
 259 936 l 1,7,-1
 404 936 l 1,8,-1
 230 771 l 1,5,-1
EndSplineSet
EndChar

StartChar: Icircumflex
Encoding: 206 206 143
Width: 263
Flags: HMW
HStem: 0 21G<26 157 26 26> 712 20G<110 254 254 254> 896 20G<162 260 260 260>
LayerCount: 2
Fore
SplineSet
157 0 m 1,0,-1
 26 0 l 1,1,-1
 116 671 l 1,2,-1
 110 732 l 1,3,-1
 254 732 l 1,4,-1
 157 0 l 1,0,-1
122 771 m 1,5,-1
 46 771 l 1,6,-1
 162 916 l 1,7,-1
 260 916 l 1,8,-1
 339 771 l 1,9,-1
 261 771 l 1,10,-1
 201 845 l 1,11,-1
 122 771 l 1,5,-1
EndSplineSet
EndChar

StartChar: Idieresis
Encoding: 207 207 144
Width: 263
Flags: HMW
HStem: 0 21G<26 157 26 26> 712 20G<110 254 254 254> 763 114<99 131 259.5 291>
VStem: 58 114<804 836> 218 115<804.5 835.5>
LayerCount: 2
Fore
SplineSet
157 0 m 1,0,-1
 26 0 l 1,1,-1
 116 671 l 1,2,-1
 110 732 l 1,3,-1
 254 732 l 1,4,-1
 157 0 l 1,0,-1
58 820 m 128,-1,6
 58 844 58 844 74.5 860.5 c 128,-1,7
 91 877 91 877 115 877 c 128,-1,8
 139 877 139 877 155.5 860.5 c 128,-1,9
 172 844 172 844 172 820 c 128,-1,10
 172 796 172 796 155.5 779.5 c 128,-1,11
 139 763 139 763 115 763 c 128,-1,12
 91 763 91 763 74.5 779.5 c 128,-1,5
 58 796 58 796 58 820 c 128,-1,6
218 820 m 128,-1,14
 218 843 218 843 235 860 c 128,-1,15
 252 877 252 877 275.5 877 c 0,16,17
 299 877 299 877 316 860.5 c 128,-1,18
 333 844 333 844 333 820 c 128,-1,19
 333 796 333 796 316 779.5 c 128,-1,20
 299 763 299 763 275.5 763 c 0,21,22
 252 763 252 763 235 780 c 128,-1,13
 218 797 218 797 218 820 c 128,-1,14
EndSplineSet
EndChar

StartChar: Eth
Encoding: 208 208 145
Width: 699
Flags: HMW
HStem: 0 99<186 289> 324 88<18 85 7 97 228 359> 633 99<257 366 257 257>
VStem: 536 142<376 478>
LayerCount: 2
Fore
SplineSet
131 672 m 1,0,-1
 124 732 l 1,1,-1
 387 732 l 2,2,3
 526 732 526 732 602 652 c 128,-1,4
 678 572 678 572 678 435 c 0,5,6
 678 341 678 341 643.5 249.5 c 128,-1,7
 609 158 609 158 540 95 c 0,8,9
 435 0 435 0 289 0 c 2,10,-1
 42 0 l 1,11,-1
 85 324 l 1,12,-1
 7 324 l 1,13,-1
 18 412 l 1,14,-1
 97 412 l 1,15,-1
 131 672 l 1,0,-1
216 324 m 1,16,-1
 186 99 l 1,17,-1
 297 99 l 2,18,19
 375 99 375 99 431 148.5 c 0,20,21
 536 241.3125 536 241.3125 536 422 c 0,22,23
 536 515 536 515 495 574 c 128,-1,24
 454 633 454 633 366 633 c 2,25,-1
 257 633 l 1,26,-1
 228 412 l 1,27,-1
 371 412 l 1,28,-1
 359 324 l 1,29,-1
 216 324 l 1,16,-1
EndSplineSet
EndChar

StartChar: Ntilde
Encoding: 209 209 146
Width: 695
Flags: HMW
HStem: -5 21G<480 587 480 480> 0 21G<26 134 26 26> 712 20G<110 269 269 269 575 686 686 686> 763 79<483 500> 792 50 792 78<353.5 368.5>
LayerCount: 2
Fore
SplineSet
134 0 m 1,0,-1
 26 0 l 1,1,-1
 115 671 l 1,2,-1
 110 732 l 1,3,-1
 269 732 l 1,4,-1
 485 293 l 1,5,-1
 514 227 l 1,6,7
 516 240 516 240 516 266 c 128,-1,8
 516 292 516 292 518 304 c 2,9,-1
 575 732 l 1,10,-1
 686 732 l 1,11,-1
 587 -5 l 1,12,-1
 480 -5 l 1,13,14
 461 35 461 35 359 243 c 128,-1,15
 257 451 257 451 204 564 c 1,16,17
 201 498 201 498 201 497 c 2,18,-1
 134 0 l 1,0,-1
246 794 m 1,19,20
 296.666666667 870 296.666666667 870 376 870 c 0,21,22
 406 870 406 870 446 856 c 128,-1,23
 486 842 486 842 501 842 c 128,-1,24
 516 842 516 842 555 869 c 1,25,-1
 601 838 l 1,26,27
 553 763 553 763 480 763 c 0,28,29
 450 763 450 763 408.5 777.5 c 128,-1,30
 367 792 367 792 347 792 c 128,-1,31
 327 792 327 792 296 767 c 1,32,-1
 246 794 l 1,19,20
EndSplineSet
EndChar

StartChar: Ograve
Encoding: 210 210 147
Width: 729
Flags: HMW
HStem: -11 95<274 423.5 274 444.5> 648 95<323.5 472> 916 20G<239 384 384 384>
VStem: 37 140<245.5 368 245.5 409> 569 141<364 487.5>
LayerCount: 2
Fore
SplineSet
110.5 73 m 128,-1,1
 37 157 37 157 37 284.5 c 128,-1,2
 37 412 37 412 80.5 512.5 c 128,-1,3
 124 613 124 613 213 678 c 128,-1,4
 302 743 302 743 421 743 c 0,5,6
 560 743 560 743 635 661 c 128,-1,7
 710 579 710 579 710 439 c 0,8,9
 710 322 710 322 665.5 221 c 128,-1,10
 621 120 621 120 530.5 54.5 c 128,-1,11
 440 -11 440 -11 312 -11 c 128,-1,0
 184 -11 184 -11 110.5 73 c 128,-1,1
214 145.5 m 128,-1,13
 251 84 251 84 336 84 c 0,14,15
 398 84 398 84 445.5 118.5 c 128,-1,16
 493 153 493 153 518.5 207.5 c 0,17,18
 569 315.431372549 569 315.431372549 569 434 c 0,19,20
 569 493 569 493 556 538 c 128,-1,21
 543 583 543 583 506 615.5 c 128,-1,22
 469 648 469 648 409 648 c 128,-1,23
 349 648 349 648 301.5 613.5 c 128,-1,24
 254 579 254 579 228 524.5 c 0,25,26
 177 417.596153846 177 417.596153846 177 312.298076923 c 128,-1,12
 177 207 177 207 214 145.5 c 128,-1,13
390 771 m 1,27,-1
 239 936 l 1,28,-1
 384 936 l 1,29,-1
 493 771 l 1,30,-1
 390 771 l 1,27,-1
EndSplineSet
EndChar

StartChar: Oacute
Encoding: 211 211 148
Width: 729
Flags: HMW
HStem: -11 95<274 423.5 274 444.5> 648 95<323.5 472> 916 20G<512 657 657 657>
VStem: 37 140<245.5 368 245.5 409> 569 141<364 487.5>
LayerCount: 2
Fore
SplineSet
110.5 73 m 128,-1,1
 37 157 37 157 37 284.5 c 128,-1,2
 37 412 37 412 80.5 512.5 c 128,-1,3
 124 613 124 613 213 678 c 128,-1,4
 302 743 302 743 421 743 c 0,5,6
 560 743 560 743 635 661 c 128,-1,7
 710 579 710 579 710 439 c 0,8,9
 710 322 710 322 665.5 221 c 128,-1,10
 621 120 621 120 530.5 54.5 c 128,-1,11
 440 -11 440 -11 312 -11 c 128,-1,0
 184 -11 184 -11 110.5 73 c 128,-1,1
214 145.5 m 128,-1,13
 251 84 251 84 336 84 c 0,14,15
 398 84 398 84 445.5 118.5 c 128,-1,16
 493 153 493 153 518.5 207.5 c 0,17,18
 569 315.431372549 569 315.431372549 569 434 c 0,19,20
 569 493 569 493 556 538 c 128,-1,21
 543 583 543 583 506 615.5 c 128,-1,22
 469 648 469 648 409 648 c 128,-1,23
 349 648 349 648 301.5 613.5 c 128,-1,24
 254 579 254 579 228 524.5 c 0,25,26
 177 417.596153846 177 417.596153846 177 312.298076923 c 128,-1,12
 177 207 177 207 214 145.5 c 128,-1,13
483 771 m 1,27,-1
 380 771 l 1,28,-1
 512 936 l 1,29,-1
 657 936 l 1,30,-1
 483 771 l 1,27,-1
EndSplineSet
EndChar

StartChar: Ocircumflex
Encoding: 212 212 149
Width: 729
Flags: HMW
HStem: -11 95<274 423.5 274 444.5> 648 95<323.5 472> 896 20G<405 503 503 503>
VStem: 37 140<245.5 368 245.5 409> 569 141<364 487.5>
LayerCount: 2
Fore
SplineSet
110.5 73 m 128,-1,1
 37 157 37 157 37 284.5 c 128,-1,2
 37 412 37 412 80.5 512.5 c 128,-1,3
 124 613 124 613 213 678 c 128,-1,4
 302 743 302 743 421 743 c 0,5,6
 560 743 560 743 635 661 c 128,-1,7
 710 579 710 579 710 439 c 0,8,9
 710 322 710 322 665.5 221 c 128,-1,10
 621 120 621 120 530.5 54.5 c 128,-1,11
 440 -11 440 -11 312 -11 c 128,-1,0
 184 -11 184 -11 110.5 73 c 128,-1,1
214 145.5 m 128,-1,13
 251 84 251 84 336 84 c 0,14,15
 398 84 398 84 445.5 118.5 c 128,-1,16
 493 153 493 153 518.5 207.5 c 0,17,18
 569 315.431372549 569 315.431372549 569 434 c 0,19,20
 569 493 569 493 556 538 c 128,-1,21
 543 583 543 583 506 615.5 c 128,-1,22
 469 648 469 648 409 648 c 128,-1,23
 349 648 349 648 301.5 613.5 c 128,-1,24
 254 579 254 579 228 524.5 c 0,25,26
 177 417.596153846 177 417.596153846 177 312.298076923 c 128,-1,12
 177 207 177 207 214 145.5 c 128,-1,13
365 771 m 1,27,-1
 289 771 l 1,28,-1
 405 916 l 1,29,-1
 503 916 l 1,30,-1
 582 771 l 1,31,-1
 504 771 l 1,32,-1
 444 845 l 1,33,-1
 365 771 l 1,27,-1
EndSplineSet
EndChar

StartChar: Otilde
Encoding: 213 213 150
Width: 729
Flags: HMW
HStem: -11 95<274 423.5 274 444.5> 648 95<323.5 472> 764 79<487 504> 793 50 793 78<357.5 372.5>
VStem: 37 140<245.5 368 245.5 409> 569 141<364 487.5>
LayerCount: 2
Fore
SplineSet
110.5 73 m 128,-1,1
 37 157 37 157 37 284.5 c 128,-1,2
 37 412 37 412 80.5 512.5 c 128,-1,3
 124 613 124 613 213 678 c 128,-1,4
 302 743 302 743 421 743 c 0,5,6
 560 743 560 743 635 661 c 128,-1,7
 710 579 710 579 710 439 c 0,8,9
 710 322 710 322 665.5 221 c 128,-1,10
 621 120 621 120 530.5 54.5 c 128,-1,11
 440 -11 440 -11 312 -11 c 128,-1,0
 184 -11 184 -11 110.5 73 c 128,-1,1
214 145.5 m 128,-1,13
 251 84 251 84 336 84 c 0,14,15
 398 84 398 84 445.5 118.5 c 128,-1,16
 493 153 493 153 518.5 207.5 c 0,17,18
 569 315.431372549 569 315.431372549 569 434 c 0,19,20
 569 493 569 493 556 538 c 128,-1,21
 543 583 543 583 506 615.5 c 128,-1,22
 469 648 469 648 409 648 c 128,-1,23
 349 648 349 648 301.5 613.5 c 128,-1,24
 254 579 254 579 228 524.5 c 0,25,26
 177 417.596153846 177 417.596153846 177 312.298076923 c 128,-1,12
 177 207 177 207 214 145.5 c 128,-1,13
250 795 m 1,27,28
 300.666666667 871 300.666666667 871 380 871 c 0,29,30
 410 871 410 871 450 857 c 128,-1,31
 490 843 490 843 505 843 c 128,-1,32
 520 843 520 843 559 870 c 1,33,-1
 605 839 l 1,34,35
 557 764 557 764 484 764 c 0,36,37
 454 764 454 764 412.5 778.5 c 128,-1,38
 371 793 371 793 351 793 c 128,-1,39
 331 793 331 793 300 768 c 1,40,-1
 250 795 l 1,27,28
EndSplineSet
EndChar

StartChar: Odieresis
Encoding: 214 214 151
Width: 729
Flags: HMW
HStem: -11 95<274 423.5 274 444.5> 648 95<323.5 472> 763 114<344 376 504.5 536>
VStem: 37 140<245.5 368 245.5 409> 303 114<804 836> 463 115<804.5 835.5> 569 141<364 487.5>
LayerCount: 2
Fore
SplineSet
110.5 73 m 128,-1,1
 37 157 37 157 37 284.5 c 128,-1,2
 37 412 37 412 80.5 512.5 c 128,-1,3
 124 613 124 613 213 678 c 128,-1,4
 302 743 302 743 421 743 c 0,5,6
 560 743 560 743 635 661 c 128,-1,7
 710 579 710 579 710 439 c 0,8,9
 710 322 710 322 665.5 221 c 128,-1,10
 621 120 621 120 530.5 54.5 c 128,-1,11
 440 -11 440 -11 312 -11 c 128,-1,0
 184 -11 184 -11 110.5 73 c 128,-1,1
214 145.5 m 128,-1,13
 251 84 251 84 336 84 c 0,14,15
 398 84 398 84 445.5 118.5 c 128,-1,16
 493 153 493 153 518.5 207.5 c 0,17,18
 569 315.431372549 569 315.431372549 569 434 c 0,19,20
 569 493 569 493 556 538 c 128,-1,21
 543 583 543 583 506 615.5 c 128,-1,22
 469 648 469 648 409 648 c 128,-1,23
 349 648 349 648 301.5 613.5 c 128,-1,24
 254 579 254 579 228 524.5 c 0,25,26
 177 417.596153846 177 417.596153846 177 312.298076923 c 128,-1,12
 177 207 177 207 214 145.5 c 128,-1,13
303 820 m 128,-1,28
 303 844 303 844 319.5 860.5 c 128,-1,29
 336 877 336 877 360 877 c 128,-1,30
 384 877 384 877 400.5 860.5 c 128,-1,31
 417 844 417 844 417 820 c 128,-1,32
 417 796 417 796 400.5 779.5 c 128,-1,33
 384 763 384 763 360 763 c 128,-1,34
 336 763 336 763 319.5 779.5 c 128,-1,27
 303 796 303 796 303 820 c 128,-1,28
463 820 m 128,-1,36
 463 843 463 843 480 860 c 128,-1,37
 497 877 497 877 520.5 877 c 128,-1,38
 544 877 544 877 561 860.5 c 128,-1,39
 578 844 578 844 578 820 c 128,-1,40
 578 796 578 796 561 779.5 c 128,-1,41
 544 763 544 763 520.5 763 c 128,-1,42
 497 763 497 763 480 780 c 128,-1,35
 463 797 463 797 463 820 c 128,-1,36
EndSplineSet
EndChar

StartChar: multiply
Encoding: 215 215 152
Width: 511
Flags: HMW
HStem: 42 21G<103 103 393 393> 435 20G<103 103 393 393>
LayerCount: 2
Fore
SplineSet
103 42 m 1,0,-1
 41 104 l 1,1,-1
 186 248 l 1,2,-1
 41 393 l 1,3,-1
 103 455 l 1,4,-1
 248 311 l 1,5,-1
 393 455 l 1,6,-1
 455 393 l 1,7,-1
 310 248 l 1,8,-1
 455 104 l 1,9,-1
 393 42 l 1,10,-1
 248 186 l 1,11,-1
 103 42 l 1,0,-1
EndSplineSet
EndChar

StartChar: Oslash
Encoding: 216 216 153
Width: 731
Flags: HMW
HStem: -66 21G<99 99> -11 95<28 102 316.5 424.5> 648 95<324.5 433.5> 750 20G<640 640>
VStem: 38 140<279.5 368 279.5 409> 570 141<364 449.5>
LayerCount: 2
Fore
SplineSet
99 -66 m 1,0,-1
 28 -11 l 1,1,-1
 102 84 l 1,2,3
 38 163 38 163 38 287.5 c 128,-1,4
 38 412 38 412 81.5 512.5 c 128,-1,5
 125 613 125 613 214 678 c 128,-1,6
 303 743 303 743 412 743 c 128,-1,7
 521 743 521 743 586 702 c 1,8,-1
 640 770 l 1,9,-1
 711 715 l 1,10,-1
 653 641 l 1,11,12
 711 564 711 564 711 443 c 128,-1,13
 711 322 711 322 666.5 221 c 128,-1,14
 622 120 622 120 531 54.5 c 128,-1,15
 440 -11 440 -11 320 -11 c 0,16,17
 234 -11 234 -11 170 25 c 1,18,-1
 99 -66 l 1,0,-1
178 298 m 128,-1,20
 178 241 178 241 191 198 c 1,21,-1
 514 610 l 1,22,23
 474 648 474 648 412 648 c 128,-1,24
 350 648 350 648 302.5 613.5 c 128,-1,25
 255 579 255 579 229 524.5 c 128,-1,26
 203 470 203 470 190.5 412.5 c 128,-1,19
 178 355 178 355 178 298 c 128,-1,20
560 523 m 1,27,-1
 241 116 l 1,28,29
 279 84 279 84 339 84 c 128,-1,30
 399 84 399 84 446.5 118.5 c 128,-1,31
 494 153 494 153 519.5 207.5 c 0,32,33
 570 315.431372549 570 315.431372549 570 434 c 0,34,35
 570 483 570 483 560 523 c 1,27,-1
EndSplineSet
EndChar

StartChar: Ugrave
Encoding: 217 217 154
Width: 665
Flags: HMW
HStem: -11 95<275.5 366 275.5 392.5> 712 20G<101 250 250 250 557 664 664 664> 916 20G<212 357 357 357>
VStem: 51 132<174.5 220.5 174.5 226.5>
LayerCount: 2
Fore
SplineSet
51 216 m 0,0,1
 51 250 51 250 55 278 c 2,2,-1
 108 672 l 1,3,-1
 101 732 l 1,4,-1
 250 732 l 1,5,-1
 185 243 l 2,6,7
 183 225 183 225 183 216 c 0,8,9
 183 154 183 154 219 119 c 128,-1,10
 255 84 255 84 321.5 84 c 0,11,12
 388 84 388 84 435 131 c 128,-1,13
 482 178 482 178 491 245 c 2,14,-1
 557 732 l 1,15,-1
 664 732 l 1,16,-1
 603 278 l 2,17,18
 584 138 584 138 510.5 63.5 c 128,-1,19
 437 -11 437 -11 290 -11 c 0,20,21
 176 -11 176 -11 113.5 46 c 128,-1,22
 51 103 51 103 51 216 c 0,0,1
363 771 m 1,23,-1
 212 936 l 1,24,-1
 357 936 l 1,25,-1
 466 771 l 1,26,-1
 363 771 l 1,23,-1
EndSplineSet
EndChar

StartChar: Uacute
Encoding: 218 218 155
Width: 665
Flags: HMW
HStem: -11 95<275.5 366 275.5 392.5> 712 20G<101 250 250 250 557 664 664 664> 916 20G<482 627 627 627>
VStem: 51 132<174.5 220.5 174.5 226.5>
LayerCount: 2
Fore
SplineSet
51 216 m 0,0,1
 51 250 51 250 55 278 c 2,2,-1
 108 672 l 1,3,-1
 101 732 l 1,4,-1
 250 732 l 1,5,-1
 185 243 l 2,6,7
 183 225 183 225 183 216 c 0,8,9
 183 154 183 154 219 119 c 128,-1,10
 255 84 255 84 321.5 84 c 0,11,12
 388 84 388 84 435 131 c 128,-1,13
 482 178 482 178 491 245 c 2,14,-1
 557 732 l 1,15,-1
 664 732 l 1,16,-1
 603 278 l 2,17,18
 584 138 584 138 510.5 63.5 c 128,-1,19
 437 -11 437 -11 290 -11 c 0,20,21
 176 -11 176 -11 113.5 46 c 128,-1,22
 51 103 51 103 51 216 c 0,0,1
453 771 m 1,23,-1
 350 771 l 1,24,-1
 482 936 l 1,25,-1
 627 936 l 1,26,-1
 453 771 l 1,23,-1
EndSplineSet
EndChar

StartChar: Ucircumflex
Encoding: 219 219 156
Width: 665
Flags: HMW
HStem: -11 95<275.5 366 275.5 392.5> 712 20G<101 250 250 250 557 664 664 664> 896 20G<376 474 474 474>
VStem: 51 132<174.5 220.5 174.5 226.5>
LayerCount: 2
Fore
SplineSet
51 216 m 0,0,1
 51 250 51 250 55 278 c 2,2,-1
 108 672 l 1,3,-1
 101 732 l 1,4,-1
 250 732 l 1,5,-1
 185 243 l 2,6,7
 183 225 183 225 183 216 c 0,8,9
 183 154 183 154 219 119 c 128,-1,10
 255 84 255 84 321.5 84 c 0,11,12
 388 84 388 84 435 131 c 128,-1,13
 482 178 482 178 491 245 c 2,14,-1
 557 732 l 1,15,-1
 664 732 l 1,16,-1
 603 278 l 2,17,18
 584 138 584 138 510.5 63.5 c 128,-1,19
 437 -11 437 -11 290 -11 c 0,20,21
 176 -11 176 -11 113.5 46 c 128,-1,22
 51 103 51 103 51 216 c 0,0,1
336 771 m 1,23,-1
 260 771 l 1,24,-1
 376 916 l 1,25,-1
 474 916 l 1,26,-1
 553 771 l 1,27,-1
 475 771 l 1,28,-1
 415 845 l 1,29,-1
 336 771 l 1,23,-1
EndSplineSet
EndChar

StartChar: Udieresis
Encoding: 220 220 157
Width: 665
Flags: HMW
HStem: -11 95<275.5 366 275.5 392.5> 712 20G<101 250 250 250 557 664 664 664> 766 114<316 348 476.5 508>
VStem: 51 132<174.5 220.5 174.5 226.5> 275 114<807 839> 435 115<807.5 838.5>
LayerCount: 2
Fore
SplineSet
51 216 m 0,0,1
 51 250 51 250 55 278 c 2,2,-1
 108 672 l 1,3,-1
 101 732 l 1,4,-1
 250 732 l 1,5,-1
 185 243 l 2,6,7
 183 225 183 225 183 216 c 0,8,9
 183 154 183 154 219 119 c 128,-1,10
 255 84 255 84 321.5 84 c 0,11,12
 388 84 388 84 435 131 c 128,-1,13
 482 178 482 178 491 245 c 2,14,-1
 557 732 l 1,15,-1
 664 732 l 1,16,-1
 603 278 l 2,17,18
 584 138 584 138 510.5 63.5 c 128,-1,19
 437 -11 437 -11 290 -11 c 0,20,21
 176 -11 176 -11 113.5 46 c 128,-1,22
 51 103 51 103 51 216 c 0,0,1
275 823 m 128,-1,24
 275 847 275 847 291.5 863.5 c 128,-1,25
 308 880 308 880 332 880 c 128,-1,26
 356 880 356 880 372.5 863.5 c 128,-1,27
 389 847 389 847 389 823 c 128,-1,28
 389 799 389 799 372.5 782.5 c 128,-1,29
 356 766 356 766 332 766 c 128,-1,30
 308 766 308 766 291.5 782.5 c 128,-1,23
 275 799 275 799 275 823 c 128,-1,24
435 823 m 128,-1,32
 435 846 435 846 452 863 c 128,-1,33
 469 880 469 880 492.5 880 c 0,34,35
 516 880 516 880 533 863.5 c 128,-1,36
 550 847 550 847 550 823 c 128,-1,37
 550 799 550 799 533 782.5 c 128,-1,38
 516 766 516 766 492.5 766 c 0,39,40
 469 766 469 766 452 783 c 128,-1,31
 435 800 435 800 435 823 c 128,-1,32
EndSplineSet
EndChar

StartChar: Yacute
Encoding: 221 221 158
Width: 563
Flags: HMW
HStem: 0 21G<173 303 173 173> 712 20G<67 213 213 213 480 610 610 610> 917 20G<423 568 568 568>
LayerCount: 2
Fore
SplineSet
216 330 m 1,0,-1
 67 732 l 1,1,-1
 213 732 l 1,2,-1
 309 472 l 1,3,-1
 480 732 l 1,4,-1
 610 732 l 1,5,-1
 347 327 l 1,6,-1
 303 0 l 1,7,-1
 173 0 l 1,8,-1
 216 330 l 1,0,-1
394 772 m 1,9,-1
 291 772 l 1,10,-1
 423 937 l 1,11,-1
 568 937 l 1,12,-1
 394 772 l 1,9,-1
EndSplineSet
EndChar

StartChar: Thorn
Encoding: 222 222 159
Width: 546
Flags: HMW
HStem: 0 21G<26 156 26 26> 179 97<194 258 180 274> 518 99<226 314 240 307> 518 214<226 226 226 255 110 307>
VStem: 400 141<380 452>
LayerCount: 2
Fore
SplineSet
115 671 m 1,0,-1
 110 732 l 1,1,-1
 255 732 l 1,2,-1
 240 617 l 1,3,-1
 314 617 l 2,4,5
 541 617 541 617 541 437 c 0,6,7
 541 311 541 311 457.5 245 c 128,-1,8
 374 179 374 179 258 179 c 2,9,-1
 180 179 l 1,10,-1
 156 0 l 1,11,-1
 26 0 l 1,12,-1
 115 671 l 1,0,-1
226 518 m 1,13,-1
 194 276 l 1,14,-1
 274 276 l 2,15,16
 330 276 330 276 365 317 c 128,-1,17
 400 358 400 358 400 422 c 0,18,19
 400 518 400 518 307 518 c 2,20,-1
 226 518 l 1,13,-1
EndSplineSet
EndChar

StartChar: germandbls
Encoding: 223 223 160
Width: 584
Flags: HMW
HStem: -230 90<-56 -20.5 -56 18.5> -12 90<297.5 342 297.5 376.5> 406 91<40 100 28 112> 647 97<306.5 368.5>
VStem: 250 134<384 426.5 384 427> 410 135
LayerCount: 2
Fore
SplineSet
-122 -101 m 1,0,1
 -83 -140 -83 -140 -45 -140 c 128,-1,2
 -7 -140 -7 -140 12 -120 c 128,-1,3
 31 -100 31 -100 39 -44 c 2,4,-1
 100 406 l 1,5,-1
 28 406 l 1,6,-1
 40 497 l 1,7,-1
 112 497 l 1,8,-1
 113 502 l 1,9,10
 127 613 127 613 194 678.5 c 128,-1,11
 261 744 261 744 364 744 c 0,12,13
 439 744 439 744 488.5 708.5 c 128,-1,14
 538 673 538 673 538 602 c 0,15,16
 538 558 538 558 522 525.5 c 128,-1,17
 506 493 506 493 483.5 476 c 128,-1,18
 461 459 461 459 438.5 447.5 c 128,-1,19
 416 436 416 436 400 426 c 128,-1,20
 384 416 384 416 384 405 c 128,-1,21
 384 394 384 394 400.5 384 c 128,-1,22
 417 374 417 374 440.5 363 c 128,-1,23
 464 352 464 352 488 336 c 128,-1,24
 512 320 512 320 528.5 290.5 c 128,-1,25
 545 261 545 261 545 221 c 0,26,27
 545 121 545 121 477.5 54.5 c 128,-1,28
 410 -12 410 -12 310 -12 c 0,29,30
 248 -12 248 -12 190 18 c 1,31,-1
 238 95 l 1,32,33
 281 78 281 78 310 78 c 0,34,35
 356 78 356 78 385.5 114.5 c 128,-1,36
 415 151 415 151 415 192 c 128,-1,37
 415 233 415 233 389 257.5 c 128,-1,38
 363 282 363 282 332.5 293.5 c 128,-1,39
 302 305 302 305 276 326 c 128,-1,40
 250 347 250 347 250 375.5 c 128,-1,41
 250 404 250 404 266.5 425.5 c 128,-1,42
 283 447 283 447 306.5 462 c 128,-1,43
 330 477 330 477 353.5 492.5 c 0,44,45
 410 529.765957447 410 529.765957447 410 587 c 0,46,47
 410 611 410 611 393 629 c 128,-1,48
 376 647 376 647 352 647 c 0,49,50
 252 647 252 647 226 464 c 1,51,-1
 158 -42 l 2,52,53
 146 -131 146 -131 95.5 -180.5 c 128,-1,54
 45 -230 45 -230 -38 -230 c 0,55,56
 -90 -230 -90 -230 -136 -208 c 1,57,58
 -158 -196 -158 -196 -169 -185 c 1,59,-1
 -122 -101 l 1,0,1
EndSplineSet
EndChar

StartChar: agrave
Encoding: 224 224 161
Width: 546
Flags: HMW
HStem: -12 83<180.5 211.5> -9 21G<399 436.5> 427 82<223.5 292.5> 480 20G<428 491 491 491> 737 20G<97 242 242 242>
VStem: 16 121<165.5 232.5 165.5 273>
LayerCount: 2
Fore
SplineSet
59 48.5 m 128,-1,1
 16 109 16 109 16 192 c 128,-1,2
 16 275 16 275 46 345 c 128,-1,3
 76 415 76 415 139 462 c 128,-1,4
 202 509 202 509 285 509 c 0,5,6
 313 509 313 509 347 496.5 c 128,-1,7
 381 484 381 484 405 459 c 1,8,-1
 428 500 l 1,9,-1
 491 500 l 1,10,-1
 437 130 l 2,11,12
 435 116 435 116 435 109 c 0,13,14
 435 73 435 73 460 73 c 0,15,16
 477 73 477 73 508 85 c 1,17,-1
 525 22 l 1,18,19
 478 -9 478 -9 419 -9 c 0,20,21
 389 -9 389 -9 366 10.5 c 128,-1,22
 343 30 343 30 337 59 c 1,23,-1
 333 59 l 1,24,25
 280 -12 280 -12 191 -12 c 128,-1,0
 102 -12 102 -12 59 48.5 c 128,-1,1
248 592 m 1,26,-1
 97 757 l 1,27,-1
 242 757 l 1,28,-1
 351 592 l 1,29,-1
 248 592 l 1,26,-1
137 197 m 0,30,31
 137 71 137 71 210 71 c 0,32,33
 245 71 245 71 272.5 99 c 128,-1,34
 300 127 300 127 317 178 c 0,35,36
 348.435897436 272.307692308 348.435897436 272.307692308 363 387 c 1,37,38
 323 427 323 427 281 427 c 128,-1,39
 239 427 239 427 210 401.5 c 128,-1,40
 181 376 181 376 166 338 c 0,41,42
 137 264.533333333 137 264.533333333 137 197 c 0,30,31
EndSplineSet
EndChar

StartChar: aacute
Encoding: 225 225 162
Width: 546
Flags: HMW
HStem: -12 83<180.5 211.5> -9 21G<399 436.5> 427 82<223.5 292.5> 480 20G<428 491 491 491> 737 20G<377 522 522 522>
VStem: 16 121<165.5 232.5 165.5 273>
LayerCount: 2
Fore
SplineSet
59 48.5 m 128,-1,1
 16 109 16 109 16 192 c 128,-1,2
 16 275 16 275 46 345 c 128,-1,3
 76 415 76 415 139 462 c 128,-1,4
 202 509 202 509 285 509 c 0,5,6
 313 509 313 509 347 496.5 c 128,-1,7
 381 484 381 484 405 459 c 1,8,-1
 428 500 l 1,9,-1
 491 500 l 1,10,-1
 437 130 l 2,11,12
 435 116 435 116 435 109 c 0,13,14
 435 73 435 73 460 73 c 0,15,16
 477 73 477 73 508 85 c 1,17,-1
 525 22 l 1,18,19
 478 -9 478 -9 419 -9 c 0,20,21
 389 -9 389 -9 366 10.5 c 128,-1,22
 343 30 343 30 337 59 c 1,23,-1
 333 59 l 1,24,25
 280 -12 280 -12 191 -12 c 128,-1,0
 102 -12 102 -12 59 48.5 c 128,-1,1
137 197 m 0,26,27
 137 71 137 71 210 71 c 0,28,29
 245 71 245 71 272.5 99 c 128,-1,30
 300 127 300 127 317 178 c 0,31,32
 348.435897436 272.307692308 348.435897436 272.307692308 363 387 c 1,33,34
 323 427 323 427 281 427 c 128,-1,35
 239 427 239 427 210 401.5 c 128,-1,36
 181 376 181 376 166 338 c 0,37,38
 137 264.533333333 137 264.533333333 137 197 c 0,26,27
348 592 m 1,39,-1
 245 592 l 1,40,-1
 377 757 l 1,41,-1
 522 757 l 1,42,-1
 348 592 l 1,39,-1
EndSplineSet
EndChar

StartChar: acircumflex
Encoding: 226 226 163
Width: 546
Flags: HMW
HStem: -12 83<180.5 211.5> -9 21G<399 436.5> 427 82<223.5 292.5> 480 20G<428 491 491 491> 717 20G<286 384 384 384>
VStem: 16 121<165.5 232.5 165.5 273>
LayerCount: 2
Fore
SplineSet
59 48.5 m 128,-1,1
 16 109 16 109 16 192 c 128,-1,2
 16 275 16 275 46 345 c 128,-1,3
 76 415 76 415 139 462 c 128,-1,4
 202 509 202 509 285 509 c 0,5,6
 313 509 313 509 347 496.5 c 128,-1,7
 381 484 381 484 405 459 c 1,8,-1
 428 500 l 1,9,-1
 491 500 l 1,10,-1
 437 130 l 2,11,12
 435 116 435 116 435 109 c 0,13,14
 435 73 435 73 460 73 c 0,15,16
 477 73 477 73 508 85 c 1,17,-1
 525 22 l 1,18,19
 478 -9 478 -9 419 -9 c 0,20,21
 389 -9 389 -9 366 10.5 c 128,-1,22
 343 30 343 30 337 59 c 1,23,-1
 333 59 l 1,24,25
 280 -12 280 -12 191 -12 c 128,-1,0
 102 -12 102 -12 59 48.5 c 128,-1,1
137 197 m 0,26,27
 137 71 137 71 210 71 c 0,28,29
 245 71 245 71 272.5 99 c 128,-1,30
 300 127 300 127 317 178 c 0,31,32
 348.435897436 272.307692308 348.435897436 272.307692308 363 387 c 1,33,34
 323 427 323 427 281 427 c 128,-1,35
 239 427 239 427 210 401.5 c 128,-1,36
 181 376 181 376 166 338 c 0,37,38
 137 264.533333333 137 264.533333333 137 197 c 0,26,27
246 592 m 1,39,-1
 170 592 l 1,40,-1
 286 737 l 1,41,-1
 384 737 l 1,42,-1
 463 592 l 1,43,-1
 385 592 l 1,44,-1
 325 666 l 1,45,-1
 246 592 l 1,39,-1
EndSplineSet
EndChar

StartChar: atilde
Encoding: 227 227 164
Width: 546
Flags: HMW
HStem: -12 83<180.5 211.5> -9 21G<399 436.5> 427 82<223.5 292.5> 480 20G<428 491 491 491> 578 79<380 397> 607 50 607 78<250.5 265.5>
VStem: 16 121<165.5 232.5 165.5 273>
LayerCount: 2
Fore
SplineSet
59 48.5 m 128,-1,1
 16 109 16 109 16 192 c 128,-1,2
 16 275 16 275 46 345 c 128,-1,3
 76 415 76 415 139 462 c 128,-1,4
 202 509 202 509 285 509 c 0,5,6
 313 509 313 509 347 496.5 c 128,-1,7
 381 484 381 484 405 459 c 1,8,-1
 428 500 l 1,9,-1
 491 500 l 1,10,-1
 437 130 l 2,11,12
 435 116 435 116 435 109 c 0,13,14
 435 73 435 73 460 73 c 0,15,16
 477 73 477 73 508 85 c 1,17,-1
 525 22 l 1,18,19
 478 -9 478 -9 419 -9 c 0,20,21
 389 -9 389 -9 366 10.5 c 128,-1,22
 343 30 343 30 337 59 c 1,23,-1
 333 59 l 1,24,25
 280 -12 280 -12 191 -12 c 128,-1,0
 102 -12 102 -12 59 48.5 c 128,-1,1
137 197 m 0,26,27
 137 71 137 71 210 71 c 0,28,29
 245 71 245 71 272.5 99 c 128,-1,30
 300 127 300 127 317 178 c 0,31,32
 348.435897436 272.307692308 348.435897436 272.307692308 363 387 c 1,33,34
 323 427 323 427 281 427 c 128,-1,35
 239 427 239 427 210 401.5 c 128,-1,36
 181 376 181 376 166 338 c 0,37,38
 137 264.533333333 137 264.533333333 137 197 c 0,26,27
143 609 m 1,39,40
 193.666666667 685 193.666666667 685 273 685 c 0,41,42
 303 685 303 685 343 671 c 128,-1,43
 383 657 383 657 398 657 c 128,-1,44
 413 657 413 657 452 684 c 1,45,-1
 498 653 l 1,46,47
 450 578 450 578 377 578 c 0,48,49
 347 578 347 578 305.5 592.5 c 128,-1,50
 264 607 264 607 244 607 c 128,-1,51
 224 607 224 607 193 582 c 1,52,-1
 143 609 l 1,39,40
EndSplineSet
EndChar

StartChar: adieresis
Encoding: 228 228 165
Width: 546
Flags: HMW
HStem: -12 83<180.5 211.5> -9 21G<399 436.5> 427 82<223.5 292.5> 480 20G<428 491 491 491> 576 114<208 240 368.5 400>
VStem: 16 121<165.5 232.5 165.5 273> 167 114<617 649> 327 115<617.5 648.5>
LayerCount: 2
Fore
SplineSet
59 48.5 m 128,-1,1
 16 109 16 109 16 192 c 128,-1,2
 16 275 16 275 46 345 c 128,-1,3
 76 415 76 415 139 462 c 128,-1,4
 202 509 202 509 285 509 c 0,5,6
 313 509 313 509 347 496.5 c 128,-1,7
 381 484 381 484 405 459 c 1,8,-1
 428 500 l 1,9,-1
 491 500 l 1,10,-1
 437 130 l 2,11,12
 435 116 435 116 435 109 c 0,13,14
 435 73 435 73 460 73 c 0,15,16
 477 73 477 73 508 85 c 1,17,-1
 525 22 l 1,18,19
 478 -9 478 -9 419 -9 c 0,20,21
 389 -9 389 -9 366 10.5 c 128,-1,22
 343 30 343 30 337 59 c 1,23,-1
 333 59 l 1,24,25
 280 -12 280 -12 191 -12 c 128,-1,0
 102 -12 102 -12 59 48.5 c 128,-1,1
137 197 m 0,26,27
 137 71 137 71 210 71 c 0,28,29
 245 71 245 71 272.5 99 c 128,-1,30
 300 127 300 127 317 178 c 0,31,32
 348.435897436 272.307692308 348.435897436 272.307692308 363 387 c 1,33,34
 323 427 323 427 281 427 c 128,-1,35
 239 427 239 427 210 401.5 c 128,-1,36
 181 376 181 376 166 338 c 0,37,38
 137 264.533333333 137 264.533333333 137 197 c 0,26,27
167 633 m 128,-1,40
 167 657 167 657 183.5 673.5 c 128,-1,41
 200 690 200 690 224 690 c 128,-1,42
 248 690 248 690 264.5 673.5 c 128,-1,43
 281 657 281 657 281 633 c 128,-1,44
 281 609 281 609 264.5 592.5 c 128,-1,45
 248 576 248 576 224 576 c 128,-1,46
 200 576 200 576 183.5 592.5 c 128,-1,39
 167 609 167 609 167 633 c 128,-1,40
327 633 m 128,-1,48
 327 656 327 656 344 673 c 128,-1,49
 361 690 361 690 384.5 690 c 128,-1,50
 408 690 408 690 425 673.5 c 128,-1,51
 442 657 442 657 442 633 c 128,-1,52
 442 609 442 609 425 592.5 c 128,-1,53
 408 576 408 576 384.5 576 c 128,-1,54
 361 576 361 576 344 593 c 128,-1,47
 327 610 327 610 327 633 c 128,-1,48
EndSplineSet
EndChar

StartChar: aring
Encoding: 229 229 166
Width: 546
Flags: HMW
HStem: -12 83<180.5 211.5> -9 21G<399 436.5> 427 82<223.5 292.5> 480 20G<428 491 491 491> 562 66<315.5 338.5 315.5 356.5> 709 67<315.5 337.5>
VStem: 16 121<165.5 232.5 165.5 273> 220 66<657.5 680.5 657.5 698.5> 368 67<657.5 680.5>
LayerCount: 2
Fore
SplineSet
59 48.5 m 128,-1,1
 16 109 16 109 16 192 c 128,-1,2
 16 275 16 275 46 345 c 128,-1,3
 76 415 76 415 139 462 c 128,-1,4
 202 509 202 509 285 509 c 0,5,6
 313 509 313 509 347 496.5 c 128,-1,7
 381 484 381 484 405 459 c 1,8,-1
 428 500 l 1,9,-1
 491 500 l 1,10,-1
 437 130 l 2,11,12
 435 116 435 116 435 109 c 0,13,14
 435 73 435 73 460 73 c 0,15,16
 477 73 477 73 508 85 c 1,17,-1
 525 22 l 1,18,19
 478 -9 478 -9 419 -9 c 0,20,21
 389 -9 389 -9 366 10.5 c 128,-1,22
 343 30 343 30 337 59 c 1,23,-1
 333 59 l 1,24,25
 280 -12 280 -12 191 -12 c 128,-1,0
 102 -12 102 -12 59 48.5 c 128,-1,1
137 197 m 0,26,27
 137 71 137 71 210 71 c 0,28,29
 245 71 245 71 272.5 99 c 128,-1,30
 300 127 300 127 317 178 c 0,31,32
 348.435897436 272.307692308 348.435897436 272.307692308 363 387 c 1,33,34
 323 427 323 427 281 427 c 128,-1,35
 239 427 239 427 210 401.5 c 128,-1,36
 181 376 181 376 166 338 c 0,37,38
 137 264.533333333 137 264.533333333 137 197 c 0,26,27
220 669 m 128,-1,40
 220 713 220 713 251.5 744.5 c 128,-1,41
 283 776 283 776 327 776 c 128,-1,42
 371 776 371 776 403 744.5 c 128,-1,43
 435 713 435 713 435 669 c 128,-1,44
 435 625 435 625 403 593.5 c 128,-1,45
 371 562 371 562 327 562 c 128,-1,46
 283 562 283 562 251.5 593.5 c 128,-1,39
 220 625 220 625 220 669 c 128,-1,40
286 669 m 128,-1,48
 286 652 286 652 298 640 c 128,-1,49
 310 628 310 628 327 628 c 128,-1,50
 344 628 344 628 356 640 c 128,-1,51
 368 652 368 652 368 669 c 128,-1,52
 368 686 368 686 355.5 697.5 c 128,-1,53
 343 709 343 709 326.5 709 c 128,-1,54
 310 709 310 709 298 697.5 c 128,-1,47
 286 686 286 686 286 669 c 128,-1,48
EndSplineSet
EndChar

StartChar: ae
Encoding: 230 230 167
Width: 776
Flags: HMW
HStem: -12 88<519 563.5> 194 85 427 82<223.5 292.5> 490 20G<592.5 653.5>
VStem: 16 121<165.5 232.5 165.5 273> 624 123<362 402>
LayerCount: 2
Fore
SplineSet
59 48.5 m 128,-1,1
 16 109 16 109 16 192 c 128,-1,2
 16 275 16 275 46 345 c 128,-1,3
 76 415 76 415 139 462 c 128,-1,4
 202 509 202 509 285 509 c 0,5,6
 388 509 388 509 438 426 c 1,7,8
 509 510 509 510 612 510 c 0,9,10
 676 510 676 510 711.5 481 c 128,-1,11
 747 452 747 452 747 394 c 0,12,13
 747 326.546875 747 326.546875 686 266.5 c 0,14,15
 654 235 654 235 591.5 215 c 128,-1,16
 529 195 529 195 444 194 c 1,17,18
 448 137 448 137 476 106.5 c 128,-1,19
 504 76 504 76 545 76 c 0,20,21
 609 76 609 76 689 137 c 1,22,-1
 731 54 l 1,23,24
 709 35 709 35 678 21 c 0,25,26
 610 -12 610 -12 533 -12 c 0,27,28
 418 -12 418 -12 363 72 c 1,29,30
 290 -12 290 -12 187 -12 c 0,31,0
 102 -12 102 -12 59 48.5 c 128,-1,1
137 197 m 0,32,33
 137 71 137 71 210 71 c 0,34,35
 245 71 245 71 272.5 99 c 128,-1,36
 300 127 300 127 317 178 c 0,37,38
 348.435897436 272.307692308 348.435897436 272.307692308 363 387 c 1,39,40
 323 427 323 427 281 427 c 128,-1,41
 239 427 239 427 210 401.5 c 128,-1,42
 181 376 181 376 166 338 c 0,43,44
 137 264.533333333 137 264.533333333 137 197 c 0,32,33
450 279 m 1,45,46
 528 281 528 281 576 313.5 c 128,-1,47
 624 346 624 346 624 392 c 0,48,49
 624 426 624 426 588 426 c 128,-1,50
 552 426 552 426 509 389 c 128,-1,51
 466 352 466 352 450 279 c 1,45,46
EndSplineSet
EndChar

StartChar: ccedilla
Encoding: 231 231 168
Width: 432
Flags: HMW
HStem: -220 21G<125 125> 427 83<227 296.5>
VStem: 16 127<175.5 247.5 175.5 280.5> 185 98<-134 -109.5>
LayerCount: 2
Fore
SplineSet
16 197 m 0,0,1
 16 327 16 327 92 418.5 c 128,-1,2
 168 510 168 510 291 510 c 0,3,4
 327 510 327 510 368 496.5 c 128,-1,5
 409 483 409 483 436 462 c 1,6,-1
 367 383 l 1,7,8
 325 427 325 427 283.5 427 c 128,-1,9
 242 427 242 427 214.5 404.5 c 128,-1,10
 187 382 187 382 172 346.5 c 0,11,12
 143 277.866666667 143 277.866666667 143 214.933333333 c 0,13,14
 143 76 143 76 239 76 c 0,15,16
 289 76 289 76 350 121 c 1,17,-1
 386 35 l 1,18,19
 319 -1 319 -1 254 -10 c 1,20,-1
 233 -42 l 1,21,22
 283 -66 283 -66 283 -112 c 0,23,24
 283 -197 283 -197 125 -220 c 1,25,-1
 109 -158 l 1,26,27
 164.292035398 -151.088495575 164.292035398 -151.088495575 174.646017699 -140.044247788 c 128,-1,28
 185 -129 185 -129 185 -117.5 c 128,-1,29
 185 -106 185 -106 172 -99 c 128,-1,30
 159 -92 159 -92 128 -82 c 1,31,-1
 178 -9 l 1,32,33
 104 3 104 3 60 60.5 c 128,-1,34
 16 118 16 118 16 197 c 0,0,1
EndSplineSet
EndChar

StartChar: egrave
Encoding: 232 232 169
Width: 475
Flags: HMW
HStem: -12 88<218 262.5> 194 85 426 84<268.5 297.5> 737 20G<75 220 220 220>
VStem: 15 127 323 123<362 402>
LayerCount: 2
Fore
SplineSet
86 406 m 0,0,1
 120 452 120 452 174 481 c 128,-1,2
 228 510 228 510 294 510 c 128,-1,3
 360 510 360 510 403 480 c 128,-1,4
 446 450 446 450 446 394 c 0,5,6
 446 326.107692308 446 326.107692308 384.5 266.5 c 0,7,8
 352 235 352 235 289.5 215 c 128,-1,9
 227 195 227 195 142 194 c 1,10,11
 146 137 146 137 174.5 106.5 c 128,-1,12
 203 76 203 76 244 76 c 0,13,14
 308 76 308 76 388 137 c 1,15,-1
 430 54 l 1,16,17
 408 35 408 35 377 21 c 0,18,19
 309 -12 309 -12 223 -12 c 128,-1,20
 137 -12 137 -12 76 45 c 128,-1,21
 15 102 15 102 15 205.970588235 c 128,-1,22
 15 309.941176471 15 309.941176471 86 406 c 0,0,1
226 592 m 1,23,-1
 75 757 l 1,24,-1
 220 757 l 1,25,-1
 329 592 l 1,26,-1
 226 592 l 1,23,-1
149 279 m 1,27,28
 227 281 227 281 275 313.5 c 128,-1,29
 323 346 323 346 323 392 c 0,30,31
 323 426 323 426 287 426 c 128,-1,32
 251 426 251 426 208 389 c 128,-1,33
 165 352 165 352 149 279 c 1,27,28
EndSplineSet
EndChar

StartChar: eacute
Encoding: 233 233 170
Width: 475
Flags: HMW
HStem: -12 88<218 262.5> 194 85 426 84<268.5 297.5> 737 20G<366 511 511 511>
VStem: 15 127 323 123<362 402>
LayerCount: 2
Fore
SplineSet
86 406 m 0,0,1
 120 452 120 452 174 481 c 128,-1,2
 228 510 228 510 294 510 c 128,-1,3
 360 510 360 510 403 480 c 128,-1,4
 446 450 446 450 446 394 c 0,5,6
 446 326.107692308 446 326.107692308 384.5 266.5 c 0,7,8
 352 235 352 235 289.5 215 c 128,-1,9
 227 195 227 195 142 194 c 1,10,11
 146 137 146 137 174.5 106.5 c 128,-1,12
 203 76 203 76 244 76 c 0,13,14
 308 76 308 76 388 137 c 1,15,-1
 430 54 l 1,16,17
 408 35 408 35 377 21 c 0,18,19
 309 -12 309 -12 223 -12 c 128,-1,20
 137 -12 137 -12 76 45 c 128,-1,21
 15 102 15 102 15 205.970588235 c 128,-1,22
 15 309.941176471 15 309.941176471 86 406 c 0,0,1
149 279 m 1,23,24
 227 281 227 281 275 313.5 c 128,-1,25
 323 346 323 346 323 392 c 0,26,27
 323 426 323 426 287 426 c 128,-1,28
 251 426 251 426 208 389 c 128,-1,29
 165 352 165 352 149 279 c 1,23,24
337 592 m 1,30,-1
 234 592 l 1,31,-1
 366 757 l 1,32,-1
 511 757 l 1,33,-1
 337 592 l 1,30,-1
EndSplineSet
EndChar

StartChar: ecircumflex
Encoding: 234 234 171
Width: 475
Flags: HMW
HStem: -12 88<218 262.5> 194 85 426 84<268.5 297.5> 717 20G<255 353 353 353>
VStem: 15 127 323 123<362 402>
LayerCount: 2
Fore
SplineSet
86 406 m 0,0,1
 120 452 120 452 174 481 c 128,-1,2
 228 510 228 510 294 510 c 128,-1,3
 360 510 360 510 403 480 c 128,-1,4
 446 450 446 450 446 394 c 0,5,6
 446 326.107692308 446 326.107692308 384.5 266.5 c 0,7,8
 352 235 352 235 289.5 215 c 128,-1,9
 227 195 227 195 142 194 c 1,10,11
 146 137 146 137 174.5 106.5 c 128,-1,12
 203 76 203 76 244 76 c 0,13,14
 308 76 308 76 388 137 c 1,15,-1
 430 54 l 1,16,17
 408 35 408 35 377 21 c 0,18,19
 309 -12 309 -12 223 -12 c 128,-1,20
 137 -12 137 -12 76 45 c 128,-1,21
 15 102 15 102 15 205.970588235 c 128,-1,22
 15 309.941176471 15 309.941176471 86 406 c 0,0,1
215 592 m 1,23,-1
 139 592 l 1,24,-1
 255 737 l 1,25,-1
 353 737 l 1,26,-1
 432 592 l 1,27,-1
 354 592 l 1,28,-1
 294 666 l 1,29,-1
 215 592 l 1,23,-1
149 279 m 1,30,31
 227 281 227 281 275 313.5 c 128,-1,32
 323 346 323 346 323 392 c 0,33,34
 323 426 323 426 287 426 c 128,-1,35
 251 426 251 426 208 389 c 128,-1,36
 165 352 165 352 149 279 c 1,30,31
EndSplineSet
EndChar

StartChar: edieresis
Encoding: 235 235 172
Width: 475
Flags: HMW
HStem: -12 88<218 262.5> 194 85 426 84<268.5 297.5> 576 114<188 220 348.5 380>
VStem: 15 127 147 114<617 649> 307 115<617.5 648.5> 323 123<362 402>
LayerCount: 2
Fore
SplineSet
86 406 m 0,0,1
 120 452 120 452 174 481 c 128,-1,2
 228 510 228 510 294 510 c 128,-1,3
 360 510 360 510 403 480 c 128,-1,4
 446 450 446 450 446 394 c 0,5,6
 446 326.107692308 446 326.107692308 384.5 266.5 c 0,7,8
 352 235 352 235 289.5 215 c 128,-1,9
 227 195 227 195 142 194 c 1,10,11
 146 137 146 137 174.5 106.5 c 128,-1,12
 203 76 203 76 244 76 c 0,13,14
 308 76 308 76 388 137 c 1,15,-1
 430 54 l 1,16,17
 408 35 408 35 377 21 c 0,18,19
 309 -12 309 -12 223 -12 c 128,-1,20
 137 -12 137 -12 76 45 c 128,-1,21
 15 102 15 102 15 205.970588235 c 128,-1,22
 15 309.941176471 15 309.941176471 86 406 c 0,0,1
147 633 m 128,-1,24
 147 657 147 657 163.5 673.5 c 128,-1,25
 180 690 180 690 204 690 c 128,-1,26
 228 690 228 690 244.5 673.5 c 128,-1,27
 261 657 261 657 261 633 c 128,-1,28
 261 609 261 609 244.5 592.5 c 128,-1,29
 228 576 228 576 204 576 c 128,-1,30
 180 576 180 576 163.5 592.5 c 128,-1,23
 147 609 147 609 147 633 c 128,-1,24
149 279 m 1,31,32
 227 281 227 281 275 313.5 c 128,-1,33
 323 346 323 346 323 392 c 0,34,35
 323 426 323 426 287 426 c 128,-1,36
 251 426 251 426 208 389 c 128,-1,37
 165 352 165 352 149 279 c 1,31,32
307 633 m 128,-1,39
 307 656 307 656 324 673 c 128,-1,40
 341 690 341 690 364.5 690 c 128,-1,41
 388 690 388 690 405 673.5 c 128,-1,42
 422 657 422 657 422 633 c 128,-1,43
 422 609 422 609 405 592.5 c 128,-1,44
 388 576 388 576 364.5 576 c 128,-1,45
 341 576 341 576 324 593 c 128,-1,38
 307 610 307 610 307 633 c 128,-1,39
EndSplineSet
EndChar

StartChar: igrave
Encoding: 236 236 173
Width: 224
Flags: HMW
HStem: 0 21G<14 138 14 14> 477 20G<70 195 195 195> 737 20G<-44 101 101 101>
LayerCount: 2
Fore
SplineSet
107 592 m 1,0,-1
 -44 757 l 1,1,-1
 101 757 l 1,2,-1
 210 592 l 1,3,-1
 107 592 l 1,0,-1
138 0 m 1,4,-1
 14 0 l 1,5,-1
 73 443 l 1,6,-1
 70 497 l 1,7,-1
 195 497 l 1,8,-1
 135 55 l 1,9,-1
 138 0 l 1,4,-1
EndSplineSet
EndChar

StartChar: iacute
Encoding: 237 237 174
Width: 224
Flags: HMW
HStem: 0 21G<14 138 14 14> 477 20G<70 194 194 194> 737 20G<206 351 351 351>
LayerCount: 2
Fore
SplineSet
138 0 m 1,0,-1
 14 0 l 1,1,-1
 73 443 l 1,2,-1
 70 497 l 1,3,-1
 194 497 l 1,4,-1
 135 55 l 1,5,-1
 138 0 l 1,0,-1
177 592 m 1,6,-1
 74 592 l 1,7,-1
 206 757 l 1,8,-1
 351 757 l 1,9,-1
 177 592 l 1,6,-1
EndSplineSet
EndChar

StartChar: icircumflex
Encoding: 238 238 175
Width: 224
Flags: HMW
HStem: 0 21G<14 138 14 14> 477 20G<70 194 194 194> 717 20G<110 208 208 208>
LayerCount: 2
Fore
SplineSet
70 592 m 1,0,-1
 -6 592 l 1,1,-1
 110 737 l 1,2,-1
 208 737 l 1,3,-1
 287 592 l 1,4,-1
 209 592 l 1,5,-1
 149 666 l 1,6,-1
 70 592 l 1,0,-1
138 0 m 1,7,-1
 14 0 l 1,8,-1
 73 443 l 1,9,-1
 70 497 l 1,10,-1
 194 497 l 1,11,-1
 135 55 l 1,12,-1
 138 0 l 1,7,-1
EndSplineSet
EndChar

StartChar: idieresis
Encoding: 239 239 176
Width: 224
Flags: HMW
HStem: 0 21G<13 137 13 13> 477 20G<69 194 194 194> 566 114<49 81 209.5 241>
VStem: 8 114<607 639> 168 115<607.5 638.5>
LayerCount: 2
Fore
SplineSet
8 623 m 128,-1,1
 8 647 8 647 24.5 663.5 c 128,-1,2
 41 680 41 680 65 680 c 128,-1,3
 89 680 89 680 105.5 663.5 c 128,-1,4
 122 647 122 647 122 623 c 128,-1,5
 122 599 122 599 105.5 582.5 c 128,-1,6
 89 566 89 566 65 566 c 128,-1,7
 41 566 41 566 24.5 582.5 c 128,-1,0
 8 599 8 599 8 623 c 128,-1,1
137 0 m 1,8,-1
 13 0 l 1,9,-1
 73 443 l 1,10,-1
 69 497 l 1,11,-1
 194 497 l 1,12,-1
 135 55 l 1,13,-1
 137 0 l 1,8,-1
168 623 m 128,-1,15
 168 646 168 646 185 663 c 128,-1,16
 202 680 202 680 225.5 680 c 0,17,18
 249 680 249 680 266 663.5 c 128,-1,19
 283 647 283 647 283 623 c 128,-1,20
 283 599 283 599 266 582.5 c 128,-1,21
 249 566 249 566 225.5 566 c 0,22,23
 202 566 202 566 185 583 c 128,-1,14
 168 600 168 600 168 623 c 128,-1,15
EndSplineSet
EndChar

StartChar: eth
Encoding: 240 240 177
Width: 516
Flags: HMW
HStem: -11 83<192 284 192 297.5> 428 82<217 289.5 206.5 307> 763 20G<273 273 421 421>
VStem: 16 126<167.5 222.5 167.5 286> 357 126<276.5 336.5>
LayerCount: 2
Fore
SplineSet
273 783 m 1,0,1
 274 782 274 782 319 728 c 1,2,-1
 421 783 l 1,3,-1
 451 723 l 1,4,-1
 357 672 l 1,5,6
 483 477 483 477 483 307 c 0,7,8
 483 175 483 175 409 82 c 128,-1,9
 335 -11 335 -11 215 -11 c 0,10,11
 121 -11 121 -11 68.5 49.5 c 128,-1,12
 16 110 16 110 16 206 c 0,13,14
 16 329 16 329 93 419.5 c 128,-1,15
 170 510 170 510 284 510 c 0,16,17
 296 510 296 510 314 508 c 1,18,19
 287 574 287 574 260 619 c 1,20,-1
 165 568 l 1,21,-1
 130 626 l 1,22,-1
 224 677 l 1,23,-1
 182 731 l 1,24,-1
 273 783 l 1,0,1
142 198 m 0,25,26
 142 72 142 72 226 72 c 0,27,28
 267 72 267 72 295 99 c 128,-1,29
 323 126 323 126 335.5 168 c 0,30,31
 357 240.24 357 240.24 357 306 c 0,32,33
 357 428 357 428 273 428 c 0,34,35
 234 428 234 428 206 400 c 128,-1,36
 178 372 178 372 165 330.5 c 0,37,38
 142 257.076923077 142 257.076923077 142 198 c 0,25,26
EndSplineSet
EndChar

StartChar: ntilde
Encoding: 241 241 178
Width: 501
Flags: HMW
HStem: 0 21G<16 130 16 16 293 293 293 418> 414 97<273.5 377> 578 79<342 359> 607 50 607 78<212.5 227.5>
VStem: 339 117<355.5 428.5>
LayerCount: 2
Fore
SplineSet
130 0 m 1,0,-1
 16 0 l 1,1,-1
 64 356 l 2,2,3
 67 384 67 384 67 427.5 c 128,-1,4
 67 471 67 471 53 493 c 1,5,-1
 174 508 l 1,6,7
 182 484 182 484 182 444 c 1,8,9
 260 511 260 511 328.5 511 c 128,-1,10
 397 511 397 511 426.5 480.5 c 128,-1,11
 456 450 456 450 456 387 c 0,12,13
 456 360 456 360 453 336 c 2,14,-1
 415 54 l 1,15,-1
 418 0 l 1,16,-1
 293 0 l 1,17,-1
 336 324 l 1,18,19
 339 336 339 336 339 360 c 0,20,21
 339 414 339 414 289 414 c 0,22,23
 267 414 267 414 231.5 396 c 128,-1,24
 196 378 196 378 179 361 c 1,25,-1
 130 0 l 1,0,-1
105 609 m 1,26,27
 155.666666667 685 155.666666667 685 235 685 c 0,28,29
 265 685 265 685 305 671 c 128,-1,30
 345 657 345 657 360 657 c 128,-1,31
 375 657 375 657 414 684 c 1,32,-1
 460 653 l 1,33,34
 412 578 412 578 339 578 c 0,35,36
 309 578 309 578 267.5 592.5 c 128,-1,37
 226 607 226 607 205 607 c 128,-1,38
 184 607 184 607 155 582 c 1,39,-1
 105 609 l 1,26,27
EndSplineSet
EndChar

StartChar: ograve
Encoding: 242 242 179
Width: 514
Flags: HMW
HStem: -12 80<190.5 278.5 190.5 296.5> 428 82<222.5 307.5> 737 20G<85 230 230 230>
VStem: 16 125<169 236 169 279.5> 357 125<264.5 333.5>
LayerCount: 2
Fore
SplineSet
16 203 m 0,0,1
 16 324 16 324 91 417 c 128,-1,2
 166 510 166 510 284 510 c 0,3,4
 377 510 377 510 429.5 450 c 128,-1,5
 482 390 482 390 482 303.5 c 128,-1,6
 482 217 482 217 450 147.5 c 128,-1,7
 418 78 418 78 355.5 33 c 128,-1,8
 293 -12 293 -12 207 -12 c 128,-1,9
 121 -12 121 -12 68.5 48 c 128,-1,10
 16 108 16 108 16 203 c 0,0,1
236 592 m 1,11,-1
 85 757 l 1,12,-1
 230 757 l 1,13,-1
 339 592 l 1,14,-1
 236 592 l 1,11,-1
141 197 m 128,-1,16
 141 164 141 164 147 137.5 c 128,-1,17
 153 111 153 111 173 89.5 c 128,-1,18
 193 68 193 68 228 68 c 128,-1,19
 263 68 263 68 290.5 93 c 128,-1,20
 318 118 318 118 331.5 157 c 0,21,22
 357 230.666666667 357 230.666666667 357 305 c 0,23,24
 357 428 357 428 273 428 c 0,25,26
 237 428 237 428 210 403.5 c 128,-1,27
 183 379 183 379 169 341 c 128,-1,28
 155 303 155 303 148 266.5 c 128,-1,15
 141 230 141 230 141 197 c 128,-1,16
EndSplineSet
EndChar

StartChar: oacute
Encoding: 243 243 180
Width: 514
Flags: HMW
HStem: -12 80<190.5 278.5 190.5 296.5> 428 82<222.5 307.5> 736 20G<361 506 506 506>
VStem: 16 125<169 236 169 279.5> 357 125<264.5 333.5>
LayerCount: 2
Fore
SplineSet
16 203 m 0,0,1
 16 324 16 324 91 417 c 128,-1,2
 166 510 166 510 284 510 c 0,3,4
 377 510 377 510 429.5 450 c 128,-1,5
 482 390 482 390 482 303.5 c 128,-1,6
 482 217 482 217 450 147.5 c 128,-1,7
 418 78 418 78 355.5 33 c 128,-1,8
 293 -12 293 -12 207 -12 c 128,-1,9
 121 -12 121 -12 68.5 48 c 128,-1,10
 16 108 16 108 16 203 c 0,0,1
141 197 m 128,-1,12
 141 164 141 164 147 137.5 c 128,-1,13
 153 111 153 111 173 89.5 c 128,-1,14
 193 68 193 68 228 68 c 128,-1,15
 263 68 263 68 290.5 93 c 128,-1,16
 318 118 318 118 331.5 157 c 0,17,18
 357 230.666666667 357 230.666666667 357 305 c 0,19,20
 357 428 357 428 273 428 c 0,21,22
 237 428 237 428 210 403.5 c 128,-1,23
 183 379 183 379 169 341 c 128,-1,24
 155 303 155 303 148 266.5 c 128,-1,11
 141 230 141 230 141 197 c 128,-1,12
332 591 m 1,25,-1
 229 591 l 1,26,-1
 361 756 l 1,27,-1
 506 756 l 1,28,-1
 332 591 l 1,25,-1
EndSplineSet
EndChar

StartChar: ocircumflex
Encoding: 244 244 181
Width: 514
Flags: HMW
HStem: -12 80<190.5 278.5 190.5 296.5> 428 82<222.5 307.5> 716 20G<270 368 368 368>
VStem: 16 125<169 236 169 279.5> 357 125<264.5 333.5>
LayerCount: 2
Fore
SplineSet
16 203 m 0,0,1
 16 324 16 324 91 417 c 128,-1,2
 166 510 166 510 284 510 c 0,3,4
 377 510 377 510 429.5 450 c 128,-1,5
 482 390 482 390 482 303.5 c 128,-1,6
 482 217 482 217 450 147.5 c 128,-1,7
 418 78 418 78 355.5 33 c 128,-1,8
 293 -12 293 -12 207 -12 c 128,-1,9
 121 -12 121 -12 68.5 48 c 128,-1,10
 16 108 16 108 16 203 c 0,0,1
141 197 m 128,-1,12
 141 164 141 164 147 137.5 c 128,-1,13
 153 111 153 111 173 89.5 c 128,-1,14
 193 68 193 68 228 68 c 128,-1,15
 263 68 263 68 290.5 93 c 128,-1,16
 318 118 318 118 331.5 157 c 0,17,18
 357 230.666666667 357 230.666666667 357 305 c 0,19,20
 357 428 357 428 273 428 c 0,21,22
 237 428 237 428 210 403.5 c 128,-1,23
 183 379 183 379 169 341 c 128,-1,24
 155 303 155 303 148 266.5 c 128,-1,11
 141 230 141 230 141 197 c 128,-1,12
230 591 m 1,25,-1
 154 591 l 1,26,-1
 270 736 l 1,27,-1
 368 736 l 1,28,-1
 447 591 l 1,29,-1
 369 591 l 1,30,-1
 309 665 l 1,31,-1
 230 591 l 1,25,-1
EndSplineSet
EndChar

StartChar: otilde
Encoding: 245 245 182
Width: 514
Flags: HMW
HStem: -12 80<190.5 278.5 190.5 296.5> 428 82<222.5 307.5> 578 79<356 373> 607 50 607 78<226.5 241.5>
VStem: 16 125<169 236 169 279.5> 357 125<264.5 333.5>
LayerCount: 2
Fore
SplineSet
16 203 m 0,0,1
 16 324 16 324 91 417 c 128,-1,2
 166 510 166 510 284 510 c 0,3,4
 377 510 377 510 429.5 450 c 128,-1,5
 482 390 482 390 482 303.5 c 128,-1,6
 482 217 482 217 450 147.5 c 128,-1,7
 418 78 418 78 355.5 33 c 128,-1,8
 293 -12 293 -12 207 -12 c 128,-1,9
 121 -12 121 -12 68.5 48 c 128,-1,10
 16 108 16 108 16 203 c 0,0,1
119 609 m 1,11,12
 169.666666667 685 169.666666667 685 249 685 c 0,13,14
 279 685 279 685 319 671 c 128,-1,15
 359 657 359 657 374 657 c 128,-1,16
 389 657 389 657 428 684 c 1,17,-1
 474 653 l 1,18,19
 426 578 426 578 353 578 c 0,20,21
 323 578 323 578 281.5 592.5 c 128,-1,22
 240 607 240 607 219 607 c 128,-1,23
 198 607 198 607 169 582 c 1,24,-1
 119 609 l 1,11,12
141 197 m 128,-1,26
 141 164 141 164 147 137.5 c 128,-1,27
 153 111 153 111 173 89.5 c 128,-1,28
 193 68 193 68 228 68 c 128,-1,29
 263 68 263 68 290.5 93 c 128,-1,30
 318 118 318 118 331.5 157 c 0,31,32
 357 230.666666667 357 230.666666667 357 305 c 0,33,34
 357 428 357 428 273 428 c 0,35,36
 237 428 237 428 210 403.5 c 128,-1,37
 183 379 183 379 169 341 c 128,-1,38
 155 303 155 303 148 266.5 c 128,-1,25
 141 230 141 230 141 197 c 128,-1,26
EndSplineSet
EndChar

StartChar: odieresis
Encoding: 246 246 183
Width: 514
Flags: HMW
HStem: -12 80<190.5 278.5 190.5 296.5> 428 82<222.5 307.5> 576 114<206 238 366.5 398>
VStem: 16 125<169 236 169 279.5> 165 114<617 649> 325 115<617.5 648.5> 357 125<264.5 333.5>
LayerCount: 2
Fore
SplineSet
16 203 m 0,0,1
 16 324 16 324 91 417 c 128,-1,2
 166 510 166 510 284 510 c 0,3,4
 377 510 377 510 429.5 450 c 128,-1,5
 482 390 482 390 482 303.5 c 128,-1,6
 482 217 482 217 450 147.5 c 128,-1,7
 418 78 418 78 355.5 33 c 128,-1,8
 293 -12 293 -12 207 -12 c 128,-1,9
 121 -12 121 -12 68.5 48 c 128,-1,10
 16 108 16 108 16 203 c 0,0,1
141 197 m 128,-1,12
 141 164 141 164 147 137.5 c 128,-1,13
 153 111 153 111 173 89.5 c 128,-1,14
 193 68 193 68 228 68 c 128,-1,15
 263 68 263 68 290.5 93 c 128,-1,16
 318 118 318 118 331.5 157 c 0,17,18
 357 230.666666667 357 230.666666667 357 305 c 0,19,20
 357 428 357 428 273 428 c 0,21,22
 237 428 237 428 210 403.5 c 128,-1,23
 183 379 183 379 169 341 c 128,-1,24
 155 303 155 303 148 266.5 c 128,-1,11
 141 230 141 230 141 197 c 128,-1,12
165 633 m 128,-1,26
 165 657 165 657 181.5 673.5 c 128,-1,27
 198 690 198 690 222 690 c 128,-1,28
 246 690 246 690 262.5 673.5 c 128,-1,29
 279 657 279 657 279 633 c 128,-1,30
 279 609 279 609 262.5 592.5 c 128,-1,31
 246 576 246 576 222 576 c 128,-1,32
 198 576 198 576 181.5 592.5 c 128,-1,25
 165 609 165 609 165 633 c 128,-1,26
325 633 m 128,-1,34
 325 656 325 656 342 673 c 128,-1,35
 359 690 359 690 382.5 690 c 128,-1,36
 406 690 406 690 423 673.5 c 128,-1,37
 440 657 440 657 440 633 c 128,-1,38
 440 609 440 609 423 592.5 c 128,-1,39
 406 576 406 576 382.5 576 c 128,-1,40
 359 576 359 576 342 593 c 128,-1,33
 325 610 325 610 325 633 c 128,-1,34
EndSplineSet
EndChar

StartChar: divide
Encoding: 247 247 184
Width: 571
Flags: HMW
HStem: -12 155<256.5 299.5> 204 88<28 526 28 526> 354 155<255.5 298.5>
VStem: 200 155<44.5 87.5>
LayerCount: 2
Fore
SplineSet
526 204 m 1,0,-1
 28 204 l 1,1,-1
 28 292 l 1,2,-1
 526 292 l 1,3,-1
 526 204 l 1,0,-1
200 66 m 128,-1,5
 200 98 200 98 222.5 120.5 c 128,-1,6
 245 143 245 143 277.5 143 c 0,7,8
 310 143 310 143 332.5 120.5 c 128,-1,9
 355 98 355 98 355 65.5 c 0,10,11
 355 33 355 33 332.5 10.5 c 128,-1,12
 310 -12 310 -12 278 -12 c 128,-1,13
 246 -12 246 -12 223 11 c 128,-1,4
 200 34 200 34 200 66 c 128,-1,5
200 431 m 128,-1,15
 200 463 200 463 222.5 486 c 128,-1,16
 245 509 245 509 277 509 c 128,-1,17
 309 509 309 509 331.5 486 c 128,-1,18
 354 463 354 463 354 431 c 128,-1,19
 354 399 354 399 331.5 376.5 c 128,-1,20
 309 354 309 354 277 354 c 128,-1,21
 245 354 245 354 222.5 376.5 c 128,-1,14
 200 399 200 399 200 431 c 128,-1,15
EndSplineSet
EndChar

StartChar: oslash
Encoding: 248 248 185
Width: 514
Flags: HMW
HStem: -73 21G<51 51> -12 80<213.5 278.5 213.5 296.5> 428 82<222.5 284.5> 536 20G<436 436>
VStem: 16 125<175.5 197 175 279.5> 357 125<305 322 218 323 218 323>
LayerCount: 2
Fore
SplineSet
51 -73 m 1,0,-1
 -16 -29 l 1,1,-1
 56 64 l 1,2,3
 16 120 16 120 16 203 c 0,4,5
 16 324 16 324 91 417 c 128,-1,6
 166 510 166 510 284 510 c 0,7,8
 339 510 339 510 383 487 c 1,9,-1
 436 556 l 1,10,-1
 503 512 l 1,11,-1
 442 433 l 1,12,13
 482 377 482 377 482 297 c 128,-1,14
 482 217 482 217 450 147.5 c 128,-1,15
 418 78 418 78 355.5 33 c 128,-1,16
 293 -12 293 -12 214 -12 c 0,17,18
 157 -12 157 -12 116 11 c 1,19,-1
 51 -73 l 1,0,-1
141 197 m 2,20,-1
 141 175 l 1,21,-1
 323 410 l 1,22,23
 303 428 303 428 270 428 c 128,-1,24
 237 428 237 428 210 403.5 c 128,-1,25
 183 379 183 379 169 341 c 0,26,27
 141 265 141 265 141 197 c 2,20,-1
357 323 m 1,28,-1
 174 87 l 1,29,30
 195 68 195 68 229 68 c 128,-1,31
 263 68 263 68 290.5 93 c 128,-1,32
 318 118 318 118 331.5 157 c 0,33,34
 357 230.666666667 357 230.666666667 357 305 c 2,35,-1
 357 323 l 1,28,-1
EndSplineSet
EndChar

StartChar: ugrave
Encoding: 249 249 186
Width: 526
Flags: HMW
HStem: -11 95<177.5 181.5> -9 21G<376.5 413.5> 477 20G<66 193 193 193 343 471 471 471> 737 20G<71 216 216 216>
VStem: 28 120<69.5 142>
LayerCount: 2
Fore
SplineSet
28 111 m 0,0,1
 28 128 28 128 31 146 c 2,2,-1
 71 453 l 1,3,-1
 66 497 l 1,4,-1
 193 497 l 1,5,-1
 150 169 l 2,6,7
 148 159 148 159 148 156 c 2,8,-1
 148 142 l 2,9,10
 148 84 148 84 197 84 c 0,11,12
 228 84 228 84 253 107 c 128,-1,13
 278 130 278 130 293 168 c 0,14,15
 319.865671642 236.059701493 319.865671642 236.059701493 330 307 c 2,16,-1
 349 453 l 1,17,-1
 343 497 l 1,18,-1
 471 497 l 1,19,-1
 417 130 l 1,20,21
 415 124 415 124 415 120 c 2,22,-1
 415 109 l 2,23,24
 415 73 415 73 440 73 c 0,25,26
 457 73 457 73 488 85 c 1,27,-1
 505 22 l 1,28,29
 458 -9 458 -9 397 -9 c 0,30,31
 367 -9 367 -9 344 10 c 128,-1,32
 321 29 321 29 315 59 c 1,33,-1
 311 59 l 1,34,35
 286 27 286 27 241.5 8 c 128,-1,36
 197 -11 197 -11 154 -11 c 0,37,38
 28 -11 28 -11 28 111 c 0,0,1
222 592 m 1,39,-1
 71 757 l 1,40,-1
 216 757 l 1,41,-1
 325 592 l 1,42,-1
 222 592 l 1,39,-1
EndSplineSet
EndChar

StartChar: uacute
Encoding: 250 250 187
Width: 526
Flags: HMW
HStem: -11 95<177.5 181.5> -9 21G<376.5 413.5> 477 20G<66 193 193 193 343 471 471 471> 736 20G<359 504 504 504>
VStem: 28 120<69.5 146.5>
LayerCount: 2
Fore
SplineSet
28 111 m 0,0,1
 28 128 28 128 31 146 c 2,2,-1
 71 453 l 1,3,-1
 66 497 l 1,4,-1
 193 497 l 1,5,-1
 150 169 l 2,6,7
 148 151 148 151 148 142 c 0,8,9
 148 84 148 84 197 84 c 0,10,11
 228 84 228 84 253 107 c 128,-1,12
 278 130 278 130 293 168 c 0,13,14
 319.865671642 236.059701493 319.865671642 236.059701493 330 307 c 2,15,-1
 349 453 l 1,16,-1
 343 497 l 1,17,-1
 471 497 l 1,18,-1
 417 130 l 2,19,20
 415 116 415 116 415 109 c 0,21,22
 415 73 415 73 440 73 c 0,23,24
 457 73 457 73 488 85 c 1,25,-1
 505 22 l 1,26,27
 458 -9 458 -9 397 -9 c 0,28,29
 367 -9 367 -9 344 10 c 128,-1,30
 321 29 321 29 315 59 c 1,31,-1
 311 59 l 1,32,33
 286 27 286 27 241.5 8 c 128,-1,34
 197 -11 197 -11 154 -11 c 0,35,36
 28 -11 28 -11 28 111 c 0,0,1
330 591 m 1,37,-1
 227 591 l 1,38,-1
 359 756 l 1,39,-1
 504 756 l 1,40,-1
 330 591 l 1,37,-1
EndSplineSet
EndChar

StartChar: ucircumflex
Encoding: 251 251 188
Width: 526
Flags: HMW
HStem: -11 95<177.5 181.5> -9 21G<376.5 413.5> 477 20G<66 193 193 193 343 471 471 471> 716 20G<246 344 344 344>
VStem: 28 120<69.5 146.5>
LayerCount: 2
Fore
SplineSet
28 111 m 0,0,1
 28 128 28 128 31 146 c 2,2,-1
 71 453 l 1,3,-1
 66 497 l 1,4,-1
 193 497 l 1,5,-1
 150 169 l 2,6,7
 148 151 148 151 148 142 c 0,8,9
 148 84 148 84 197 84 c 0,10,11
 228 84 228 84 253 107 c 128,-1,12
 278 130 278 130 293 168 c 0,13,14
 319.865671642 236.059701493 319.865671642 236.059701493 330 307 c 2,15,-1
 349 453 l 1,16,-1
 343 497 l 1,17,-1
 471 497 l 1,18,-1
 417 130 l 2,19,20
 415 116 415 116 415 109 c 0,21,22
 415 73 415 73 440 73 c 0,23,24
 457 73 457 73 488 85 c 1,25,-1
 505 22 l 1,26,27
 458 -9 458 -9 397 -9 c 0,28,29
 367 -9 367 -9 344 10 c 128,-1,30
 321 29 321 29 315 59 c 1,31,-1
 311 59 l 1,32,33
 286 27 286 27 241.5 8 c 128,-1,34
 197 -11 197 -11 154 -11 c 0,35,36
 28 -11 28 -11 28 111 c 0,0,1
206 591 m 1,37,-1
 130 591 l 1,38,-1
 246 736 l 1,39,-1
 344 736 l 1,40,-1
 423 591 l 1,41,-1
 345 591 l 1,42,-1
 285 665 l 1,43,-1
 206 591 l 1,37,-1
EndSplineSet
EndChar

StartChar: udieresis
Encoding: 252 252 189
Width: 526
Flags: HMW
HStem: -11 95<177.5 181.5> -9 21G<376.5 413.5> 477 20G<66 193 193 193 343 471 471 471> 576 114<182 214 342.5 374>
VStem: 28 120<69.5 146.5> 141 114<617 649> 301 115<617.5 648.5>
LayerCount: 2
Fore
SplineSet
28 111 m 0,0,1
 28 128 28 128 31 146 c 2,2,-1
 71 453 l 1,3,-1
 66 497 l 1,4,-1
 193 497 l 1,5,-1
 150 169 l 2,6,7
 148 151 148 151 148 142 c 0,8,9
 148 84 148 84 197 84 c 0,10,11
 228 84 228 84 253 107 c 128,-1,12
 278 130 278 130 293 168 c 0,13,14
 319.865671642 236.059701493 319.865671642 236.059701493 330 307 c 2,15,-1
 349 453 l 1,16,-1
 343 497 l 1,17,-1
 471 497 l 1,18,-1
 417 130 l 2,19,20
 415 116 415 116 415 109 c 0,21,22
 415 73 415 73 440 73 c 0,23,24
 457 73 457 73 488 85 c 1,25,-1
 505 22 l 1,26,27
 458 -9 458 -9 397 -9 c 0,28,29
 367 -9 367 -9 344 10 c 128,-1,30
 321 29 321 29 315 59 c 1,31,-1
 311 59 l 1,32,33
 286 27 286 27 241.5 8 c 128,-1,34
 197 -11 197 -11 154 -11 c 0,35,36
 28 -11 28 -11 28 111 c 0,0,1
141 633 m 128,-1,38
 141 657 141 657 157.5 673.5 c 128,-1,39
 174 690 174 690 198 690 c 128,-1,40
 222 690 222 690 238.5 673.5 c 128,-1,41
 255 657 255 657 255 633 c 128,-1,42
 255 609 255 609 238.5 592.5 c 128,-1,43
 222 576 222 576 198 576 c 128,-1,44
 174 576 174 576 157.5 592.5 c 128,-1,37
 141 609 141 609 141 633 c 128,-1,38
301 633 m 128,-1,46
 301 656 301 656 318 673 c 128,-1,47
 335 690 335 690 358.5 690 c 128,-1,48
 382 690 382 690 399 673.5 c 128,-1,49
 416 657 416 657 416 633 c 128,-1,50
 416 609 416 609 399 592.5 c 128,-1,51
 382 576 382 576 358.5 576 c 128,-1,52
 335 576 335 576 318 593 c 128,-1,45
 301 610 301 610 301 633 c 128,-1,46
EndSplineSet
EndChar

StartChar: yacute
Encoding: 253 253 190
Width: 452
Flags: HMW
HStem: -230 80<-46.5 9.5 -46.5 48> 477 20G<29 151 151 151 361 473 473 473> 737 20G<338 483 483 483>
LayerCount: 2
Fore
SplineSet
-122 -113 m 1,0,1
 -80 -150 -80 -150 -41.5 -150 c 128,-1,2
 -3 -150 -3 -150 24 -135.5 c 128,-1,3
 51 -121 51 -121 72.5 -95 c 0,4,5
 106.647058824 -53.7058823529 106.647058824 -53.7058823529 134 1 c 1,6,-1
 29 497 l 1,7,-1
 151 497 l 1,8,9
 199 265 199 265 203 239.5 c 128,-1,10
 207 214 207 214 210 146 c 1,11,12
 229 210 229 210 243 242.5 c 128,-1,13
 257 275 257 275 361 497 c 1,14,-1
 473 497 l 1,15,-1
 240 -3 l 2,16,17
 221 -43 221 -43 208.5 -66 c 128,-1,18
 196 -89 196 -89 170.5 -124.5 c 128,-1,19
 145 -160 145 -160 119 -180 c 0,20,21
 54 -230 54 -230 -31 -230 c 128,-1,22
 -116 -230 -116 -230 -173 -190 c 1,23,-1
 -122 -113 l 1,0,1
309 592 m 1,24,-1
 206 592 l 1,25,-1
 338 757 l 1,26,-1
 483 757 l 1,27,-1
 309 592 l 1,24,-1
EndSplineSet
EndChar

StartChar: thorn
Encoding: 254 254 191
Width: 521
Flags: HMW
HStem: -217 21G<-16 98 -16 -16> -12 82<207.5 284.5 203 312.5> 416 92<299 307> 748 20G<103 227 227 227>
VStem: 151 210<145.5 313 172 313> 361 126<256.5 313>
LayerCount: 2
Fore
SplineSet
106 715 m 1,0,-1
 103 768 l 1,1,-1
 227 768 l 1,2,-1
 186 457 l 1,3,4
 250 508 250 508 327.5 508 c 128,-1,5
 405 508 405 508 446 446.5 c 128,-1,6
 487 385 487 385 487 297 c 0,7,8
 487 170 487 170 418 79 c 128,-1,9
 349 -12 349 -12 227 -12 c 0,10,11
 168 -12 168 -12 129 18 c 1,12,-1
 98 -217 l 1,13,-1
 -16 -217 l 1,14,-1
 106 715 l 1,0,-1
151 188 m 2,15,-1
 151 172 l 2,16,17
 151 128 151 128 171 99 c 128,-1,18
 191 70 191 70 230 70 c 128,-1,19
 269 70 269 70 296 95.5 c 128,-1,20
 323 121 323 121 336 158 c 0,21,22
 361 229.153846154 361 229.153846154 361 283.076923077 c 128,-1,23
 361 337 361 337 340 376.5 c 128,-1,24
 319 416 319 416 271 416 c 128,-1,25
 223 416 223 416 175 368 c 1,26,-1
 153 205 l 2,27,28
 151 195 151 195 151 188 c 2,15,-1
EndSplineSet
EndChar

StartChar: ydieresis
Encoding: 255 255 192
Width: 452
Flags: HMW
HStem: -230 80<-46.5 9.5 -46.5 48> 477 20G<29 151 151 151 361 473 473 473> 576 114<168 200 328.5 360>
VStem: 127 114<617 649> 287 115<617.5 648.5>
LayerCount: 2
Fore
SplineSet
-122 -113 m 1,0,1
 -80 -150 -80 -150 -41.5 -150 c 128,-1,2
 -3 -150 -3 -150 24 -135.5 c 128,-1,3
 51 -121 51 -121 72.5 -95 c 0,4,5
 106.647058824 -53.7058823529 106.647058824 -53.7058823529 134 1 c 1,6,-1
 29 497 l 1,7,-1
 151 497 l 1,8,9
 199 265 199 265 203 239.5 c 128,-1,10
 207 214 207 214 210 146 c 1,11,12
 229 210 229 210 243 242.5 c 128,-1,13
 257 275 257 275 361 497 c 1,14,-1
 473 497 l 1,15,-1
 240 -3 l 2,16,17
 221 -43 221 -43 208.5 -66 c 128,-1,18
 196 -89 196 -89 170.5 -124.5 c 128,-1,19
 145 -160 145 -160 119 -180 c 0,20,21
 54 -230 54 -230 -31 -230 c 128,-1,22
 -116 -230 -116 -230 -173 -190 c 1,23,-1
 -122 -113 l 1,0,1
127 633 m 128,-1,25
 127 657 127 657 143.5 673.5 c 128,-1,26
 160 690 160 690 184 690 c 128,-1,27
 208 690 208 690 224.5 673.5 c 128,-1,28
 241 657 241 657 241 633 c 128,-1,29
 241 609 241 609 224.5 592.5 c 128,-1,30
 208 576 208 576 184 576 c 128,-1,31
 160 576 160 576 143.5 592.5 c 128,-1,24
 127 609 127 609 127 633 c 128,-1,25
287 633 m 128,-1,33
 287 656 287 656 304 673 c 128,-1,34
 321 690 321 690 344.5 690 c 128,-1,35
 368 690 368 690 385 673.5 c 128,-1,36
 402 657 402 657 402 633 c 128,-1,37
 402 609 402 609 385 592.5 c 128,-1,38
 368 576 368 576 344.5 576 c 128,-1,39
 321 576 321 576 304 593 c 128,-1,32
 287 610 287 610 287 633 c 128,-1,33
EndSplineSet
EndChar

StartChar: dotlessi
Encoding: 305 305 193
Width: 224
Flags: HMW
HStem: 0 21G<14 138 14 14> 477 20G<70 194 194 194>
LayerCount: 2
Fore
SplineSet
138 0 m 1,0,-1
 14 0 l 1,1,-1
 73 443 l 1,2,-1
 70 497 l 1,3,-1
 194 497 l 1,4,-1
 135 55 l 1,5,-1
 138 0 l 1,0,-1
EndSplineSet
EndChar

StartChar: Lslash
Encoding: 321 321 194
Width: 486
Flags: HMW
HStem: 0 99<178 438> 712 20G<118 262 262 262>
LayerCount: 2
Fore
SplineSet
122 672 m 1,0,-1
 118 732 l 1,1,-1
 262 732 l 1,2,-1
 219 406 l 1,3,-1
 418 498 l 1,4,-1
 405 400 l 1,5,-1
 206 309 l 1,6,-1
 178 99 l 1,7,-1
 451 99 l 1,8,-1
 438 0 l 1,9,-1
 33 0 l 1,10,-1
 66 245 l 1,11,-1
 1 215 l 1,12,-1
 12 312 l 1,13,-1
 78 342 l 1,14,-1
 122 672 l 1,0,-1
EndSplineSet
EndChar

StartChar: lslash
Encoding: 322 322 195
Width: 256
Flags: HMW
HStem: 0 21G<31 147 31 31> 748 20G<122 248 248 248>
LayerCount: 2
Fore
SplineSet
67 274 m 1,0,-1
 7 246 l 1,1,-1
 19 343 l 1,2,-1
 80 371 l 1,3,-1
 125 715 l 1,4,-1
 122 768 l 1,5,-1
 248 768 l 1,6,-1
 203 428 l 1,7,-1
 268 458 l 1,8,-1
 255 360 l 1,9,-1
 190 330 l 1,10,-1
 147 0 l 1,11,-1
 31 0 l 1,12,-1
 67 274 l 1,0,-1
EndSplineSet
EndChar

StartChar: OE
Encoding: 338 338 196
Width: 1012
Flags: HMW
HStem: -11 95<275 361> -11 110 0 21G<518 941 518 518> 327 99<705 916 692 929> 633 99<733 1026 733 733> 648 84 723 20G<298.5 461.5>
VStem: 38 140<245.5 368 245.5 409>
LayerCount: 2
Fore
SplineSet
111.5 73 m 128,-1,1
 38 157 38 157 38 284.5 c 128,-1,2
 38 412 38 412 81.5 512.5 c 128,-1,3
 125 613 125 613 214 678 c 128,-1,4
 303 743 303 743 420 743 c 128,-1,5
 537 743 537 743 607 667 c 1,6,-1
 616 732 l 1,7,-1
 1039 732 l 1,8,-1
 1026 633 l 1,9,-1
 733 633 l 1,10,-1
 705 426 l 1,11,-1
 929 426 l 1,12,-1
 916 327 l 1,13,-1
 692 327 l 1,14,-1
 662 99 l 1,15,-1
 954 99 l 1,16,-1
 941 0 l 1,17,-1
 518 0 l 1,18,-1
 527 68 l 1,19,20
 481 24 481 24 432.5 6.5 c 128,-1,21
 384 -11 384 -11 321 -11 c 0,22,0
 185 -11 185 -11 111.5 73 c 128,-1,1
215 145.5 m 128,-1,24
 252 84 252 84 337 84 c 0,25,26
 399 84 399 84 446.5 118.5 c 128,-1,27
 494 153 494 153 519.5 207.5 c 0,28,29
 570 315.431372549 570 315.431372549 570 434 c 0,30,31
 570 493 570 493 557 538 c 128,-1,32
 544 583 544 583 507 615.5 c 128,-1,33
 470 648 470 648 410 648 c 128,-1,34
 350 648 350 648 302.5 613.5 c 128,-1,35
 255 579 255 579 229 524.5 c 0,36,37
 178 417.596153846 178 417.596153846 178 312.298076923 c 128,-1,23
 178 207 178 207 215 145.5 c 128,-1,24
EndSplineSet
EndChar

StartChar: oe
Encoding: 339 339 197
Width: 811
Flags: HMW
HStem: -12 88<554 598.5> 194 85 428 82<222.5 307.5>
VStem: 16 125<169 236 169 279.5> 357 122 659 123<362 402>
LayerCount: 2
Fore
SplineSet
16 203 m 0,0,1
 16 324 16 324 91 417 c 128,-1,2
 166 510 166 510 278.5 510 c 128,-1,3
 391 510 391 510 444 431 c 1,4,5
 523 510 523 510 629 510 c 0,6,7
 696 510 696 510 739 480 c 128,-1,8
 782 450 782 450 782 394 c 0,9,10
 782 326.546875 782 326.546875 721 266.5 c 0,11,12
 689 235 689 235 626.5 215 c 128,-1,13
 564 195 564 195 479 194 c 1,14,15
 483 137 483 137 511 106.5 c 128,-1,16
 539 76 539 76 580 76 c 0,17,18
 644 76 644 76 724 137 c 1,19,-1
 766 54 l 1,20,21
 744 35 744 35 713 21 c 0,22,23
 645 -12 645 -12 568 -12 c 0,24,25
 453 -12 453 -12 394 65 c 1,26,27
 320 -12 320 -12 220.5 -12 c 128,-1,28
 121 -12 121 -12 68.5 48 c 128,-1,29
 16 108 16 108 16 203 c 0,0,1
141 197 m 128,-1,31
 141 164 141 164 147 137.5 c 128,-1,32
 153 111 153 111 173 89.5 c 128,-1,33
 193 68 193 68 228 68 c 128,-1,34
 263 68 263 68 290.5 93 c 128,-1,35
 318 118 318 118 331.5 157 c 0,36,37
 357 230.666666667 357 230.666666667 357 305 c 0,38,39
 357 428 357 428 273 428 c 0,40,41
 237 428 237 428 210 403.5 c 128,-1,42
 183 379 183 379 169 341 c 128,-1,43
 155 303 155 303 148 266.5 c 128,-1,30
 141 230 141 230 141 197 c 128,-1,31
485 279 m 1,44,45
 563 281 563 281 611 313.5 c 128,-1,46
 659 346 659 346 659 392 c 0,47,48
 659 426 659 426 623 426 c 128,-1,49
 587 426 587 426 544 389 c 128,-1,50
 501 352 501 352 485 279 c 1,44,45
EndSplineSet
EndChar

StartChar: Scaron
Encoding: 352 352 198
Width: 537
Flags: HMW
HStem: -12 96<183 247.5 183 286> 648 96<307.5 359> 897 20G<216 294 294 294 433 509 509 509>
VStem: 83 144<486.5 581 486.5 595.5> 346 143<167.5 269.5>
LayerCount: 2
Fore
SplineSet
-7 49 m 1,0,-1
 56 157 l 1,1,2
 122 84 122 84 213 84 c 0,3,4
 267 84 267 84 306.5 117.5 c 128,-1,5
 346 151 346 151 346 204 c 0,6,7
 346 234 346 234 326.5 259.5 c 128,-1,8
 307 285 307 285 278 301 c 128,-1,9
 249 317 249 317 214.5 338 c 128,-1,10
 180 359 180 359 151 379.5 c 128,-1,11
 122 400 122 400 102.5 435 c 128,-1,12
 83 470 83 470 83 514 c 0,13,14
 83 629 83 629 162 686.5 c 128,-1,15
 241 744 241 744 362 744 c 0,16,17
 402 744 402 744 455.5 726.5 c 128,-1,18
 509 709 509 709 538 684 c 1,19,-1
 479 592 l 1,20,21
 455 616 455 616 413 632 c 128,-1,22
 371 648 371 648 331 648 c 0,23,24
 291 648 291 648 259 621.5 c 128,-1,25
 227 595 227 595 227 550 c 0,26,27
 227 521 227 521 246.5 496.5 c 128,-1,28
 266 472 266 472 295 456.5 c 128,-1,29
 324 441 324 441 358 420 c 128,-1,30
 392 399 392 399 421 378 c 128,-1,31
 450 357 450 357 469.5 321 c 128,-1,32
 489 285 489 285 489 240 c 0,33,34
 489 127 489 127 408 57.5 c 128,-1,35
 327 -12 327 -12 205.5 -12 c 0,36,37
 84 -12 84 -12 -7 49 c 1,0,-1
295 772 m 1,38,-1
 216 917 l 1,39,-1
 294 917 l 1,40,-1
 354 843 l 1,41,-1
 433 917 l 1,42,-1
 509 917 l 1,43,-1
 393 772 l 1,44,-1
 295 772 l 1,38,-1
EndSplineSet
EndChar

StartChar: scaron
Encoding: 353 353 199
Width: 389
Flags: HMW
HStem: -12 83<118.5 159.5 118.5 190> 426 84<219 253> 717 20G<98 176 176 176 315 391 391 391>
VStem: 37 128<329.5 389 329.5 401> 218 127<123.5 189>
LayerCount: 2
Fore
SplineSet
-16 32 m 1,0,-1
 36 114 l 1,1,2
 37 113 37 113 46 107.5 c 128,-1,3
 55 102 55 102 57 100.5 c 128,-1,4
 59 99 59 99 67 94 c 128,-1,5
 75 89 75 89 78.5 87.5 c 128,-1,6
 82 86 82 86 89.5 82.5 c 128,-1,7
 97 79 97 79 101.5 77.5 c 128,-1,8
 106 76 106 76 112.5 74 c 0,9,10
 122.25 71 122.25 71 146.625 71 c 128,-1,11
 171 71 171 71 194.5 92 c 128,-1,12
 218 113 218 113 218 143.5 c 128,-1,13
 218 174 218 174 189.5 194 c 128,-1,14
 161 214 161 214 127.5 226 c 128,-1,15
 94 238 94 238 65.5 267.5 c 128,-1,16
 37 297 37 297 37 342 c 0,17,18
 37 425 37 425 96.5 467.5 c 128,-1,19
 156 510 156 510 238 510 c 128,-1,20
 320 510 320 510 378 479 c 1,21,-1
 326 395 l 1,22,23
 295 426 295 426 237 426 c 0,24,25
 207 426 207 426 186 411.5 c 128,-1,26
 165 397 165 397 165 372.5 c 128,-1,27
 165 348 165 348 183.5 332.5 c 128,-1,28
 202 317 202 317 228.5 305.5 c 128,-1,29
 255 294 255 294 281.5 279.5 c 128,-1,30
 308 265 308 265 326.5 238 c 128,-1,31
 345 211 345 211 345 172 c 0,32,33
 345 84 345 84 284 36 c 128,-1,34
 223 -12 223 -12 138.5 -12 c 128,-1,35
 54 -12 54 -12 -16 32 c 1,0,-1
177 592 m 1,36,-1
 98 737 l 1,37,-1
 176 737 l 1,38,-1
 236 663 l 1,39,-1
 315 737 l 1,40,-1
 391 737 l 1,41,-1
 275 592 l 1,42,-1
 177 592 l 1,36,-1
EndSplineSet
EndChar

StartChar: Ydieresis
Encoding: 376 376 200
Width: 563
Flags: HMW
HStem: 0 21G<173 303 173 173> 712 20G<67 213 213 213 480 610 610 610> 766 114<257 289 417.5 449>
VStem: 216 114<807 839> 376 115<807.5 838.5>
LayerCount: 2
Fore
SplineSet
216 330 m 1,0,-1
 67 732 l 1,1,-1
 213 732 l 1,2,-1
 309 472 l 1,3,-1
 480 732 l 1,4,-1
 610 732 l 1,5,-1
 347 327 l 1,6,-1
 303 0 l 1,7,-1
 173 0 l 1,8,-1
 216 330 l 1,0,-1
216 823 m 128,-1,10
 216 847 216 847 232.5 863.5 c 128,-1,11
 249 880 249 880 273 880 c 128,-1,12
 297 880 297 880 313.5 863.5 c 128,-1,13
 330 847 330 847 330 823 c 128,-1,14
 330 799 330 799 313.5 782.5 c 128,-1,15
 297 766 297 766 273 766 c 128,-1,16
 249 766 249 766 232.5 782.5 c 128,-1,9
 216 799 216 799 216 823 c 128,-1,10
376 823 m 128,-1,18
 376 846 376 846 393 863 c 128,-1,19
 410 880 410 880 433.5 880 c 0,20,21
 457 880 457 880 474 863.5 c 128,-1,22
 491 847 491 847 491 823 c 128,-1,23
 491 799 491 799 474 782.5 c 128,-1,24
 457 766 457 766 433.5 766 c 0,25,26
 410 766 410 766 393 783 c 128,-1,17
 376 800 376 800 376 823 c 128,-1,18
EndSplineSet
EndChar

StartChar: Zcaron
Encoding: 381 381 201
Width: 578
Flags: HMW
HStem: 0 99<182 498> 633 99<112 395 99 579> 896 20G<216 294 294 294 433 509 509 509>
LayerCount: 2
Fore
SplineSet
498 0 m 1,0,-1
 1 0 l 1,1,-1
 1 82 l 1,2,-1
 395 633 l 1,3,-1
 99 633 l 1,4,-1
 112 732 l 1,5,-1
 579 732 l 1,6,-1
 579 659 l 1,7,-1
 182 99 l 1,8,-1
 512 99 l 1,9,-1
 498 0 l 1,0,-1
295 771 m 1,10,-1
 216 916 l 1,11,-1
 294 916 l 1,12,-1
 354 842 l 1,13,-1
 433 916 l 1,14,-1
 509 916 l 1,15,-1
 393 771 l 1,16,-1
 295 771 l 1,10,-1
EndSplineSet
EndChar

StartChar: zcaron
Encoding: 382 382 202
Width: 427
Flags: HMW
HStem: 0 84<138 366> 414 83<63 253 52 411> 717 20G<121 199 199 199 338 414 414 414>
LayerCount: 2
Fore
SplineSet
366 0 m 1,0,-1
 -17 0 l 1,1,-1
 -17 61 l 1,2,-1
 253 414 l 1,3,-1
 52 414 l 1,4,-1
 63 497 l 1,5,-1
 411 497 l 1,6,-1
 411 435 l 1,7,-1
 138 84 l 1,8,-1
 377 84 l 1,9,-1
 366 0 l 1,0,-1
200 592 m 1,10,-1
 121 737 l 1,11,-1
 199 737 l 1,12,-1
 259 663 l 1,13,-1
 338 737 l 1,14,-1
 414 737 l 1,15,-1
 298 592 l 1,16,-1
 200 592 l 1,10,-1
EndSplineSet
EndChar

StartChar: florin
Encoding: 402 402 203
Width: 351
Flags: HMW
HStem: -230 79<-120.5 -78.5 -120.5 -46> 414 83<59 117 38 138 253 349> 694 82<368 434.5>
LayerCount: 2
Fore
SplineSet
-235 -186 m 1,0,-1
 -177 -120 l 1,1,2
 -146 -151 -146 -151 -109 -151 c 0,3,4
 -37 -151 -37 -151 -7 -35 c 1,5,-1
 117 414 l 1,6,-1
 38 414 l 1,7,-1
 59 497 l 1,8,-1
 138 497 l 1,9,10
 173.298360656 620.544262295 173.298360656 620.544262295 232.5 693 c 0,11,12
 300.317073171 776 300.317073171 776 428 776 c 0,13,14
 510 776 510 776 566 733 c 1,15,-1
 506 654 l 1,16,17
 485 676 485 676 464.5 685 c 128,-1,18
 444 694 444 694 412.5 694 c 128,-1,19
 381 694 381 694 353 673.5 c 128,-1,20
 325 653 325 653 305.5 620.5 c 0,21,22
 269.301886792 560.169811321 269.301886792 560.169811321 253 497 c 1,23,-1
 371 497 l 1,24,-1
 349 414 l 1,25,-1
 231 414 l 1,26,-1
 104 -47 l 1,27,28
 55 -230 55 -230 -104 -230 c 0,29,30
 -140 -230 -140 -230 -179.5 -219 c 128,-1,31
 -219 -208 -219 -208 -235 -186 c 1,0,-1
EndSplineSet
EndChar

StartChar: circumflex
Encoding: 710 710 204
Width: 254
Flags: HMW
HStem: 588 21G<-18 58 -18 -18 197 197 197 275> 713 20G<98 196 196 196>
LayerCount: 2
Fore
SplineSet
58 588 m 1,0,-1
 -18 588 l 1,1,-1
 98 733 l 1,2,-1
 196 733 l 1,3,-1
 275 588 l 1,4,-1
 197 588 l 1,5,-1
 137 662 l 1,6,-1
 58 588 l 1,0,-1
EndSplineSet
EndChar

StartChar: caron
Encoding: 711 711 205
Width: 275
Flags: HMW
HStem: 588 21G<81 81 81 179> 713 20G<2 80 80 80 219 295 295 295>
LayerCount: 2
Fore
SplineSet
81 588 m 1,0,-1
 2 733 l 1,1,-1
 80 733 l 1,2,-1
 140 659 l 1,3,-1
 219 733 l 1,4,-1
 295 733 l 1,5,-1
 179 588 l 1,6,-1
 81 588 l 1,0,-1
EndSplineSet
EndChar

StartChar: breve
Encoding: 728 728 206
Width: 256
Flags: HMW
HStem: 572 90<115.5 163.5 115.5 179> 572 160<-1 179>
LayerCount: 2
Fore
SplineSet
-3 702 m 2,0,-1
 -3 711 l 2,1,2
 -3 724 -3 724 -1 732 c 1,3,-1
 66 732 l 1,4,5
 72 662 72 662 139 662 c 128,-1,6
 206 662 206 662 231 732 c 1,7,-1
 300 732 l 1,8,9
 280 656 280 656 240 614 c 128,-1,10
 200 572 200 572 132 572 c 128,-1,11
 64 572 64 572 30.5 607 c 128,-1,12
 -3 642 -3 642 -3 702 c 2,0,-1
EndSplineSet
EndChar

StartChar: dotaccent
Encoding: 729 729 207
Width: 285
Flags: HMW
HStem: 564 122<126.5 161.5>
VStem: 83 122<607.5 642.5>
LayerCount: 2
Fore
SplineSet
83 625 m 128,-1,1
 83 651 83 651 100.5 668.5 c 128,-1,2
 118 686 118 686 144 686 c 128,-1,3
 170 686 170 686 187.5 668.5 c 128,-1,4
 205 651 205 651 205 625 c 128,-1,5
 205 599 205 599 187.5 581.5 c 128,-1,6
 170 564 170 564 144 564 c 128,-1,7
 118 564 118 564 100.5 581.5 c 128,-1,0
 83 599 83 599 83 625 c 128,-1,1
EndSplineSet
EndChar

StartChar: ring
Encoding: 730 730 208
Width: 281
Flags: HMW
HStem: 531 66<129.5 152.5 129.5 170.5> 678 67<129.5 151.5>
VStem: 34 66<626.5 649.5 626.5 667.5> 181 68<626.5 649.5>
LayerCount: 2
Fore
SplineSet
34 638 m 128,-1,1
 34 682 34 682 65.5 713.5 c 128,-1,2
 97 745 97 745 141 745 c 128,-1,3
 185 745 185 745 217 713.5 c 128,-1,4
 249 682 249 682 249 638 c 128,-1,5
 249 594 249 594 217 562.5 c 128,-1,6
 185 531 185 531 141 531 c 128,-1,7
 97 531 97 531 65.5 562.5 c 128,-1,0
 34 594 34 594 34 638 c 128,-1,1
100 638 m 128,-1,9
 100 621 100 621 112 609 c 128,-1,10
 124 597 124 597 141 597 c 128,-1,11
 158 597 158 597 169.5 609 c 128,-1,12
 181 621 181 621 181 638 c 128,-1,13
 181 655 181 655 169 666.5 c 128,-1,14
 157 678 157 678 140.5 678 c 0,15,16
 124 678 124 678 112 666.5 c 128,-1,8
 100 655 100 655 100 638 c 128,-1,9
EndSplineSet
EndChar

StartChar: ogonek
Encoding: 731 731 209
Width: 294
Flags: HMW
HStem: -211 71<90.5 174.5> 13 20G<240 240>
VStem: 23 101<-120.5 -88>
LayerCount: 2
Fore
SplineSet
49 -192 m 128,-1,1
 23 -173 23 -173 23 -132 c 128,-1,2
 23 -91 23 -91 62.5 -53 c 0,3,4
 133.949171271 15.7359116022 133.949171271 15.7359116022 240 33 c 1,5,-1
 272 14 l 1,6,7
 205.2 -19.4 205.2 -19.4 183.6 -33.2 c 128,-1,8
 162 -47 162 -47 143 -68 c 128,-1,9
 124 -89 124 -89 124 -109 c 0,10,11
 124 -140 124 -140 159 -140 c 128,-1,12
 194 -140 194 -140 249 -104 c 1,13,-1
 265 -154 l 1,14,15
 186 -211 186 -211 115 -211 c 0,16,0
 75 -211 75 -211 49 -192 c 128,-1,1
EndSplineSet
EndChar

StartChar: tilde
Encoding: 732 732 210
Width: 272
Flags: HMW
HStem: 577 79<195 212> 606 50 606 78<65.5 80.5>
LayerCount: 2
Fore
SplineSet
-42 608 m 1,0,1
 8.66666666667 684 8.66666666667 684 88 684 c 0,2,3
 118 684 118 684 158 670 c 128,-1,4
 198 656 198 656 213 656 c 128,-1,5
 228 656 228 656 267 683 c 1,6,-1
 313 652 l 1,7,8
 265 577 265 577 192 577 c 0,9,10
 162 577 162 577 120.5 591.5 c 128,-1,11
 79 606 79 606 59 606 c 128,-1,12
 39 606 39 606 8 581 c 1,13,-1
 -42 608 l 1,0,1
EndSplineSet
EndChar

StartChar: hungarumlaut
Encoding: 733 733 211
Width: 405
Flags: HMW
HStem: 590 142<89 93 0 224 157 157 157 224 246 250>
LayerCount: 2
Fore
SplineSet
93 590 m 1,0,-1
 0 590 l 1,1,-1
 89 732 l 1,2,-1
 224 732 l 1,3,-1
 93 590 l 1,0,-1
250 590 m 1,4,-1
 157 590 l 1,5,-1
 246 732 l 1,6,-1
 381 732 l 1,7,-1
 250 590 l 1,4,-1
EndSplineSet
EndChar

StartChar: pi
Encoding: 960 960 212
Width: 617
Flags: HMW
HStem: -30 21G<63 63> -10 100<396 490.5> 407 90<146.5 513 167 513 288 413 288 288> 500 20G<614 614>
VStem: 328 111<134.5 165>
LayerCount: 2
Fore
SplineSet
77 326 m 1,0,-1
 16 344 l 1,1,2
 32 417 32 417 81 457 c 128,-1,3
 130 497 130 497 201 497 c 2,4,-1
 513 497 l 2,5,6
 560 497 560 497 614 520 c 1,7,-1
 638 462 l 1,8,9
 614 433 614 433 584 422.5 c 128,-1,10
 554 412 554 412 509 407 c 1,11,12
 439 235 439 235 439 150 c 0,13,14
 439 90 439 90 485 90 c 0,15,16
 501 90 501 90 523 98 c 1,17,-1
 544 31 l 1,18,19
 501 -10 501 -10 440.5 -10 c 128,-1,20
 380 -10 380 -10 354 29 c 128,-1,21
 328 68 328 68 328 129.5 c 128,-1,22
 328 191 328 191 352 278 c 128,-1,23
 376 365 376 365 413 407 c 1,24,-1
 288 407 l 1,25,-1
 284 380 l 1,26,27
 263.84180791 228.813559322 263.84180791 228.813559322 248.920903955 186.406779661 c 128,-1,28
 234 144 234 144 217 109 c 128,-1,29
 200 74 200 74 179.5 51 c 0,30,31
 130.807763401 -3.6303142329 130.807763401 -3.6303142329 63 -30 c 1,32,-1
 36 25 l 1,33,34
 127 83 127 83 141 181 c 1,35,-1
 166 371 l 2,36,37
 167 377 167 377 172 390 c 128,-1,38
 177 403 177 403 178 407 c 1,39,-1
 167 407 l 2,40,41
 138 407 138 407 112.5 383 c 128,-1,42
 87 359 87 359 77 326 c 1,0,-1
EndSplineSet
EndChar

StartChar: endash
Encoding: 8211 8211 213
Width: 586
Flags: HMW
HStem: 211 94<55 517 41 531>
LayerCount: 2
Fore
SplineSet
517 211 m 1,0,-1
 41 211 l 1,1,-1
 55 305 l 1,2,-1
 531 305 l 1,3,-1
 517 211 l 1,0,-1
EndSplineSet
EndChar

StartChar: emdash
Encoding: 8212 8212 214
Width: 936
Flags: HMW
HStem: 211 94<55 867 41 881>
LayerCount: 2
Fore
SplineSet
867 211 m 1,0,-1
 41 211 l 1,1,-1
 55 305 l 1,2,-1
 881 305 l 1,3,-1
 867 211 l 1,0,-1
EndSplineSet
EndChar

StartChar: quoteleft
Encoding: 8216 8216 215
Width: 226
Flags: HMW
HStem: 467 21G<119.5 162.5> 718 20G<206 206>
VStem: 65 156<522.5 568.5 522.5 584>
LayerCount: 2
Fore
SplineSet
65 544 m 0,0,1
 65 599 65 599 107 651 c 128,-1,2
 149 703 149 703 206 738 c 1,3,-1
 241 698 l 1,4,5
 224 687 224 687 204.5 662 c 128,-1,6
 185 637 185 637 185 621 c 0,7,8
 185 615 185 615 203 593.5 c 128,-1,9
 221 572 221 572 221 542 c 0,10,11
 221 512 221 512 197.5 489.5 c 128,-1,12
 174 467 174 467 141.5 467 c 0,13,14
 109 467 109 467 87 489 c 128,-1,15
 65 511 65 511 65 544 c 0,0,1
EndSplineSet
EndChar

StartChar: quoteright
Encoding: 8217 8217 216
Width: 224
Flags: HMW
HStem: 467 21G<103 103> 718 20G<146.5 190.5>
VStem: 88 156<636.5 681.5> 124 120<572 682.5>
LayerCount: 2
Fore
SplineSet
103 467 m 1,0,-1
 68 506 l 1,1,2
 87 522 87 522 105.5 545 c 128,-1,3
 124 568 124 568 124 584 c 0,4,5
 124 590 124 590 106 611.5 c 128,-1,6
 88 633 88 633 88 662.5 c 0,7,8
 88 692 88 692 112 715 c 128,-1,9
 136 738 136 738 169 738 c 0,10,11
 202 738 202 738 223 716 c 128,-1,12
 244 694 244 694 244 661 c 0,13,14
 244 606 244 606 202 554 c 128,-1,15
 160 502 160 502 103 467 c 1,0,-1
EndSplineSet
EndChar

StartChar: quotesinglbase
Encoding: 8218 8218 217
Width: 233
Flags: HMW
HStem: -134 21G<18 18> 119 20G<63.5 106.5>
VStem: 5 156<36.5 82.5> 41 120<-28.5 83.5>
LayerCount: 2
Fore
SplineSet
18 -134 m 1,0,-1
 -15 -93 l 1,1,2
 41 -43 41 -43 41 -16 c 0,3,4
 41 -10 41 -10 23 11.5 c 128,-1,5
 5 33 5 33 5 63 c 0,6,7
 5 93 5 93 28.5 116 c 128,-1,8
 52 139 52 139 84.5 139 c 0,9,10
 117 139 117 139 139 117 c 128,-1,11
 161 95 161 95 161 62 c 0,12,13
 161 7 161 7 117.5 -45.5 c 128,-1,14
 74 -98 74 -98 18 -134 c 1,0,-1
EndSplineSet
EndChar

StartChar: quotedblleft
Encoding: 8220 8220 218
Width: 415
Flags: HMW
HStem: 467 21G<118.5 161.5 308.5 351.5> 718 20G<205 205 395 395>
VStem: 64 120<522.5 632.5> 64 156<522.5 568.5 522.5 584> 254 120<522.5 632.5> 254 156<522.5 568.5 522.5 584>
LayerCount: 2
Fore
SplineSet
64 544 m 0,0,1
 64 599 64 599 106 651 c 128,-1,2
 148 703 148 703 205 738 c 1,3,-1
 240 698 l 1,4,5
 223 687 223 687 203.5 662 c 128,-1,6
 184 637 184 637 184 621 c 0,7,8
 184 615 184 615 202 593.5 c 128,-1,9
 220 572 220 572 220 542 c 0,10,11
 220 512 220 512 196.5 489.5 c 128,-1,12
 173 467 173 467 140.5 467 c 0,13,14
 108 467 108 467 86 489 c 128,-1,15
 64 511 64 511 64 544 c 0,0,1
254 544 m 0,16,17
 254 599 254 599 296 651 c 128,-1,18
 338 703 338 703 395 738 c 1,19,-1
 430 698 l 1,20,21
 413 687 413 687 393.5 662 c 128,-1,22
 374 637 374 637 374 621 c 0,23,24
 374 615 374 615 392 593.5 c 128,-1,25
 410 572 410 572 410 542 c 0,26,27
 410 512 410 512 386.5 489.5 c 128,-1,28
 363 467 363 467 330.5 467 c 0,29,30
 298 467 298 467 276 489 c 128,-1,31
 254 511 254 511 254 544 c 0,16,17
EndSplineSet
EndChar

StartChar: quotedblright
Encoding: 8221 8221 219
Width: 414
Flags: HMW
HStem: 467 21G<103 103 293 293> 718 20G<146.5 190.5 336.5 380.5>
VStem: 88 156<636.5 681.5> 124 120<572 682.5> 278 156<636.5 681.5> 314 120<572 682.5>
LayerCount: 2
Fore
SplineSet
103 467 m 1,0,-1
 68 506 l 1,1,2
 87 522 87 522 105.5 545 c 128,-1,3
 124 568 124 568 124 584 c 0,4,5
 124 590 124 590 106 611.5 c 128,-1,6
 88 633 88 633 88 662.5 c 0,7,8
 88 692 88 692 112 715 c 128,-1,9
 136 738 136 738 169 738 c 0,10,11
 202 738 202 738 223 716 c 128,-1,12
 244 694 244 694 244 661 c 0,13,14
 244 606 244 606 202 554 c 128,-1,15
 160 502 160 502 103 467 c 1,0,-1
293 467 m 1,16,-1
 258 506 l 1,17,18
 277 522 277 522 295.5 545 c 128,-1,19
 314 568 314 568 314 584 c 0,20,21
 314 590 314 590 296 611.5 c 128,-1,22
 278 633 278 633 278 662.5 c 0,23,24
 278 692 278 692 302 715 c 128,-1,25
 326 738 326 738 359 738 c 0,26,27
 392 738 392 738 413 716 c 128,-1,28
 434 694 434 694 434 661 c 0,29,30
 434 606 434 606 392 554 c 128,-1,31
 350 502 350 502 293 467 c 1,16,-1
EndSplineSet
EndChar

StartChar: quotedblbase
Encoding: 8222 8222 220
Width: 423
Flags: HMW
HStem: -132 21G<20 20 210 210> 119 20G<63.5 106.5 253.5 296.5>
VStem: 5 156<37 82.5> 41 120<-27 83.5> 195 156<37 82.5> 231 120<-27 83.5>
LayerCount: 2
Fore
SplineSet
20 -132 m 1,0,-1
 -15 -93 l 1,1,2
 4 -77 4 -77 22.5 -54 c 128,-1,3
 41 -31 41 -31 41 -15 c 0,4,5
 41 -10 41 -10 23 12 c 128,-1,6
 5 34 5 34 5 63.5 c 0,7,8
 5 93 5 93 29 116 c 128,-1,9
 53 139 53 139 85 139 c 0,10,11
 117 139 117 139 139 117 c 128,-1,12
 161 95 161 95 161 62 c 0,13,14
 161 7 161 7 119 -45 c 128,-1,15
 77 -97 77 -97 20 -132 c 1,0,-1
210 -132 m 1,16,-1
 175 -93 l 1,17,18
 194 -77 194 -77 212.5 -54 c 128,-1,19
 231 -31 231 -31 231 -15 c 0,20,21
 231 -10 231 -10 213 12 c 128,-1,22
 195 34 195 34 195 63.5 c 0,23,24
 195 93 195 93 219 116 c 128,-1,25
 243 139 243 139 275 139 c 0,26,27
 307 139 307 139 329 117 c 128,-1,28
 351 95 351 95 351 62 c 0,29,30
 351 7 351 7 309 -45 c 128,-1,31
 267 -97 267 -97 210 -132 c 1,16,-1
EndSplineSet
EndChar

StartChar: dagger
Encoding: 8224 8224 221
Width: 465
Flags: HMW
HStem: -138 21G<154 198 154 154> 720 20G<289 289>
LayerCount: 2
Fore
SplineSet
108 430 m 1,0,-1
 53 485 l 1,1,-1
 123 539 l 1,2,-1
 230 514 l 1,3,-1
 224 658 l 1,4,-1
 289 740 l 1,5,-1
 338 658 l 1,6,-1
 293 514 l 1,7,-1
 409 539 l 1,8,-1
 462 481 l 1,9,-1
 395 430 l 1,10,-1
 285 452 l 1,11,-1
 290 309 l 1,12,-1
 198 -138 l 1,13,-1
 154 -138 l 1,14,-1
 179 309 l 1,15,-1
 222 452 l 1,16,-1
 108 430 l 1,0,-1
EndSplineSet
EndChar

StartChar: daggerdbl
Encoding: 8225 8225 222
Width: 471
Flags: HMW
HStem: -139 21G<178 178> 720 20G<290 290>
LayerCount: 2
Fore
SplineSet
59 58 m 1,0,-1
 4 117 l 1,1,-1
 73 165 l 1,2,-1
 179 145 l 1,3,-1
 179 309 l 1,4,-1
 222 452 l 1,5,-1
 108 430 l 1,6,-1
 54 485 l 1,7,-1
 123 539 l 1,8,-1
 231 514 l 1,9,-1
 224 658 l 1,10,-1
 290 740 l 1,11,-1
 338 658 l 1,12,-1
 293 514 l 1,13,-1
 410 539 l 1,14,-1
 462 481 l 1,15,-1
 395 430 l 1,16,-1
 285 452 l 1,17,-1
 291 309 l 1,18,-1
 247 145 l 1,19,-1
 357 165 l 1,20,-1
 413 112 l 1,21,-1
 342 58 l 1,22,-1
 242 83 l 1,23,-1
 242 -61 l 1,24,-1
 178 -139 l 1,25,-1
 128 -61 l 1,26,-1
 173 83 l 1,27,-1
 59 58 l 1,0,-1
EndSplineSet
EndChar

StartChar: bullet
Encoding: 8226 8226 223
Width: 425
Flags: HMW
HStem: 201 21G<175.5 262.5> 493 20G<175.5 262>
LayerCount: 2
Fore
SplineSet
107.5 246 m 128,-1,1
 62 291 62 291 62 356 c 128,-1,2
 62 421 62 421 108 467 c 128,-1,3
 154 513 154 513 219 513 c 128,-1,4
 284 513 284 513 329 468 c 128,-1,5
 374 423 374 423 374 357 c 128,-1,6
 374 291 374 291 329 246 c 128,-1,7
 284 201 284 201 218.5 201 c 128,-1,0
 153 201 153 201 107.5 246 c 128,-1,1
EndSplineSet
EndChar

StartChar: ellipsis
Encoding: 8230 8230 224
Width: 725
Flags: HMW
HStem: -12 155<60.5 103.5 60.5 104 308.5 351.5 556.5 599.5>
VStem: 5 155<43.5 86.5 43.5 87> 253 154<43.5 86.5> 500 155<43.5 86.5>
CounterMasks: 1 70
LayerCount: 2
Fore
SplineSet
27.5 10.5 m 128,-1,1
 5 33 5 33 5 65.5 c 128,-1,2
 5 98 5 98 27.5 120.5 c 128,-1,3
 50 143 50 143 82 143 c 128,-1,4
 114 143 114 143 137 120 c 128,-1,5
 160 97 160 97 160 65 c 128,-1,6
 160 33 160 33 137.5 10.5 c 128,-1,7
 115 -12 115 -12 82.5 -12 c 128,-1,0
 50 -12 50 -12 27.5 10.5 c 128,-1,1
253 65 m 128,-1,9
 253 97 253 97 275.5 120 c 128,-1,10
 298 143 298 143 330 143 c 128,-1,11
 362 143 362 143 384.5 120 c 128,-1,12
 407 97 407 97 407 65 c 128,-1,13
 407 33 407 33 384.5 10.5 c 128,-1,14
 362 -12 362 -12 330 -12 c 128,-1,15
 298 -12 298 -12 275.5 10.5 c 128,-1,8
 253 33 253 33 253 65 c 128,-1,9
500 65 m 128,-1,17
 500 97 500 97 523 120 c 128,-1,18
 546 143 546 143 578 143 c 128,-1,19
 610 143 610 143 632.5 120.5 c 128,-1,20
 655 98 655 98 655 65.5 c 128,-1,21
 655 33 655 33 632.5 10.5 c 128,-1,22
 610 -12 610 -12 577.5 -12 c 128,-1,23
 545 -12 545 -12 522.5 10.5 c 128,-1,16
 500 33 500 33 500 65 c 128,-1,17
EndSplineSet
EndChar

StartChar: perthousand
Encoding: 8240 8240 225
Width: 1128
Flags: HMW
HStem: -12 21G<142 209 142 142> -4 79<519 575.5 519 599 875 931.5> 304 79<190 246.5 190 269> 326 79<540.5 597 896.5 953> 634 65<210.5 633> 634 79<210.5 267>
VStem: 57 104<445.5 489 445.5 525.5> 297 103<529 569.5 493.5 572.5> 387 103<137.5 181 137.5 217.5> 626 103<221 264.5> 743 103<137.5 181 137.5 217.5> 982 103<221 264.5>
LayerCount: 2
Fore
SplineSet
93.5 348 m 128,-1,1
 57 392 57 392 57 460 c 128,-1,2
 57 528 57 528 77.5 583 c 128,-1,3
 98 638 98 638 144.5 675.5 c 128,-1,4
 191 713 191 713 256 713 c 0,5,6
 298 713 298 713 325 699 c 1,7,-1
 633 699 l 1,8,-1
 209 -12 l 1,9,-1
 142 -12 l 1,10,-1
 535 645 l 1,11,-1
 380 645 l 1,12,13
 400 608 400 608 400 554 c 0,14,15
 400 454 400 454 348 379 c 128,-1,16
 296 304 296 304 201 304 c 0,17,0
 130 304 130 304 93.5 348 c 128,-1,1
212 383 m 0,18,19
 244 383 244 383 264.5 417 c 0,20,21
 297 470.902439024 297 470.902439024 297 552.451219512 c 128,-1,22
 297 634 297 634 245 634 c 0,23,24
 213 634 213 634 193 600.5 c 0,25,26
 161 546.9 161 546.9 161 464.95 c 128,-1,27
 161 383 161 383 212 383 c 0,18,19
387 157 m 0,28,29
 387 257 387 257 438.5 331 c 128,-1,30
 490 405 490 405 585 405 c 0,31,32
 657 405 657 405 693 361.5 c 128,-1,33
 729 318 729 318 729 245 c 0,34,35
 729 145 729 145 677.5 70.5 c 128,-1,36
 626 -4 626 -4 531 -4 c 0,37,38
 459 -4 459 -4 423 40 c 128,-1,39
 387 84 387 84 387 157 c 0,28,29
541 75 m 0,40,41
 573 75 573 75 593.5 109 c 0,42,43
 626 162.902439024 626 162.902439024 626 244.451219512 c 128,-1,44
 626 326 626 326 575 326 c 0,45,46
 543 326 543 326 522.5 292.5 c 0,47,48
 490 239.390243902 490 239.390243902 490 157.195121951 c 128,-1,49
 490 75 490 75 541 75 c 0,40,41
743 157 m 0,50,51
 743 257 743 257 794.5 331 c 128,-1,52
 846 405 846 405 941 405 c 0,53,54
 1013 405 1013 405 1049 361.5 c 128,-1,55
 1085 318 1085 318 1085 245 c 0,56,57
 1085 145 1085 145 1033.5 70.5 c 128,-1,58
 982 -4 982 -4 887 -4 c 0,59,60
 815 -4 815 -4 779 40 c 128,-1,61
 743 84 743 84 743 157 c 0,50,51
897 75 m 0,62,63
 929 75 929 75 949.5 109 c 0,64,65
 982 162.902439024 982 162.902439024 982 244.451219512 c 128,-1,66
 982 326 982 326 931 326 c 0,67,68
 899 326 899 326 878.5 292.5 c 0,69,70
 846 239.390243902 846 239.390243902 846 157.195121951 c 128,-1,71
 846 75 846 75 897 75 c 0,62,63
EndSplineSet
EndChar

StartChar: guilsinglleft
Encoding: 8249 8249 226
Width: 295
Flags: HMW
HStem: 162 21G<166 166> 484 20G<210 210>
LayerCount: 2
Fore
SplineSet
166 162 m 1,0,-1
 34 332 l 1,1,-1
 210 504 l 1,2,-1
 285 490 l 1,3,-1
 144 332 l 1,4,-1
 243 173 l 1,5,-1
 166 162 l 1,0,-1
EndSplineSet
EndChar

StartChar: guilsinglright
Encoding: 8250 8250 227
Width: 294
Flags: HMW
HStem: 162 21G<87 87> 484 20G<139 139>
LayerCount: 2
Fore
SplineSet
87 162 m 1,0,-1
 13 173 l 1,1,-1
 158 332 l 1,2,-1
 60 490 l 1,3,-1
 139 504 l 1,4,-1
 267 332 l 1,5,-1
 87 162 l 1,0,-1
EndSplineSet
EndChar

StartChar: fraction
Encoding: 8260 8260 228
Width: 376
Flags: HMW
HStem: -27 21G<-44 35 -44 -44> 733 20G<355 435 435 435>
LayerCount: 2
Fore
SplineSet
35 -27 m 1,0,-1
 -44 -27 l 1,1,-1
 355 753 l 1,2,-1
 435 753 l 1,3,-1
 35 -27 l 1,0,-1
EndSplineSet
EndChar

StartChar: Euro
Encoding: 8364 8364 229
Width: 526
Flags: HMW
HStem: -12 84<287 321.5> 173 47<22 89 15 90 217 217 217 378> 282 47<36 99 30 112 238 393> 425 85<324.5 369.5>
LayerCount: 2
Fore
SplineSet
89 173 m 1,0,-1
 15 173 l 1,1,-1
 22 220 l 1,2,-1
 90 220 l 1,3,4
 92 251 92 251 99 282 c 1,5,-1
 30 282 l 1,6,-1
 36 329 l 1,7,-1
 112 329 l 1,8,9
 145 417 145 417 212 463.5 c 128,-1,10
 279 510 279 510 364.5 510 c 0,11,12
 450 510 450 510 508 462 c 1,13,-1
 441 386 l 1,14,15
 397 425 397 425 355.5 425 c 0,16,17
 314 425 314 425 283.5 396.5 c 128,-1,18
 253 368 253 368 238 329 c 1,19,-1
 399 329 l 1,20,-1
 393 282 l 1,21,-1
 223 282 l 1,22,23
 215 242 215 242 215 220 c 1,24,-1
 385 220 l 1,25,-1
 378 173 l 1,26,-1
 217 173 l 1,27,28
 223 128 223 128 248.5 100 c 128,-1,29
 274 72 274 72 309.5 72 c 0,30,31
 345 72 345 72 367 83.5 c 128,-1,32
 389 95 389 95 422 121 c 1,33,-1
 459 35 l 1,34,35
 368 -12 368 -12 285 -12 c 0,36,37
 202 -12 202 -12 149 36 c 128,-1,38
 96 84 96 84 89 173 c 1,0,-1
EndSplineSet
EndChar

StartChar: trademark
Encoding: 8482 8482 230
Width: 577
Flags: HMW
HStem: 497 235<150 211 150 150 295 295 295 316 328 347 399 399 399 402 112 435 112 486 505 545> 686 46<112 177 106 316 237 237 237 310>
LayerCount: 2
Fore
SplineSet
177 686 m 1,0,-1
 106 686 l 1,1,-1
 112 732 l 1,2,-1
 316 732 l 1,3,-1
 310 686 l 1,4,-1
 237 686 l 1,5,-1
 211 497 l 1,6,-1
 150 497 l 1,7,-1
 177 686 l 1,0,-1
347 497 m 1,8,-1
 295 497 l 1,9,-1
 328 732 l 1,10,-1
 402 732 l 1,11,-1
 434 596 l 1,12,-1
 505 732 l 1,13,-1
 578 732 l 1,14,-1
 545 497 l 1,15,-1
 486 497 l 1,16,-1
 503 625 l 1,17,18
 501 621 501 621 435 497 c 1,19,-1
 399 497 l 1,20,-1
 365 631 l 1,21,-1
 347 497 l 1,8,-1
EndSplineSet
EndChar

StartChar: uni2126
Encoding: 8486 8486 231
Width: 768
Flags: HMW
HStem: 0 99<13 77 13 280 1 77 634 685> 644 99<339 487>
VStem: 57 137<268 340 232.5 433.5> 583 142<373 477.5>
LayerCount: 2
Fore
SplineSet
280 0 m 1,0,-1
 1 0 l 1,1,-1
 13 99 l 1,2,-1
 77 99 l 1,3,-1
 144 93 l 1,4,5
 104 120 104 120 80.5 181.5 c 128,-1,6
 57 243 57 243 57 314 c 0,7,8
 57 495 57 495 165.5 619 c 128,-1,9
 274 743 274 743 440 743 c 0,10,11
 577 743 577 743 651 659 c 128,-1,12
 725 575 725 575 725 437 c 0,13,14
 725 336 725 336 680.5 234.5 c 128,-1,15
 636 133 636 133 565 93 c 1,16,-1
 634 99 l 1,17,-1
 698 99 l 1,18,-1
 685 0 l 1,19,-1
 405 0 l 1,20,-1
 415 76 l 1,21,22
 459 92 459 92 493.5 131.5 c 128,-1,23
 528 171 528 171 546.5 222 c 0,24,25
 583 322.621621622 583 322.621621622 583 419.810810811 c 128,-1,26
 583 517 583 517 546.5 580.5 c 128,-1,27
 510 644 510 644 427 644 c 0,28,29
 377 644 377 644 335.5 618 c 128,-1,30
 294 592 294 592 268.5 551.5 c 128,-1,31
 243 511 243 511 225.5 460.5 c 0,32,33
 194 369.6 194 369.6 194 276 c 0,34,35
 194 115 194 115 290 76 c 1,36,-1
 280 0 l 1,0,-1
EndSplineSet
EndChar

StartChar: partialdiff
Encoding: 8706 8706 232
Width: 541
Flags: HMW
HStem: -11 99<184.5 247.5> 325 98<226 295 226 296.5> 636 107<257 296.5>
VStem: 17 127<155 176.5 155 268.5> 370 142<436 480>
LayerCount: 2
Fore
SplineSet
367 385 m 1,0,1
 367 387 367 387 370 436 c 1,2,3
 370 512.192307692 370 512.192307692 346 568.5 c 0,4,5
 333 599 333 599 308 617.5 c 128,-1,6
 283 636 283 636 248 636 c 0,7,8
 186 636 186 636 135 596 c 1,9,-1
 98 671 l 1,10,11
 117.5 690.5 117.5 690.5 146 707 c 0,12,13
 207 743 207 743 289 743 c 0,14,15
 400 743 400 743 456 665.5 c 128,-1,16
 512 588 512 588 512 449 c 0,17,18
 512 340 512 340 488.5 254.5 c 128,-1,19
 465 169 465 169 430.5 120.5 c 128,-1,20
 396 72 396 72 351 41 c 0,21,22
 275.516129032 -11 275.516129032 -11 199 -11 c 0,23,24
 137.648648649 -11 137.648648649 -11 82 24.5 c 0,25,26
 53 43 53 43 35 80 c 128,-1,27
 17 117 17 117 17 171 c 128,-1,28
 17 225 17 225 36 271.5 c 128,-1,29
 55 318 55 318 82.5 345.5 c 128,-1,30
 110 373 110 373 145 391 c 0,31,32
 207.222222222 423 207.222222222 423 266 423 c 128,-1,33
 324.777777778 423 324.777777778 423 367 385 c 1,0,1
144 171 m 0,34,35
 144 88 144 88 215 88 c 0,36,37
 248 88 248 88 275.5 115 c 128,-1,38
 303 142 303 142 318.5 180.5 c 0,39,40
 348.544235925 255.126005362 348.544235925 255.126005362 353 293 c 1,41,42
 330 325 330 325 272 325 c 0,43,44
 240 325 240 325 214.5 309 c 128,-1,45
 189 293 189 293 175 269 c 0,46,47
 151.433333333 228.6 151.433333333 228.6 147.716666667 207.3 c 128,-1,48
 144 186 144 186 144 171 c 0,34,35
EndSplineSet
EndChar

StartChar: uni2206
Encoding: 8710 8710 233
Width: 658
Flags: HMW
HStem: 0 99<124 445 124 585> 712 20G<333 436 436 436>
LayerCount: 2
Fore
SplineSet
585 0 m 1,0,-1
 -9 0 l 1,1,-1
 0 67 l 1,2,-1
 333 732 l 1,3,-1
 436 732 l 1,4,-1
 594 67 l 1,5,-1
 585 0 l 1,0,-1
124 99 m 1,6,-1
 445 99 l 1,7,8
 406 256 406 256 359 487 c 0,9,10
 356 504 356 504 353.5 541.5 c 128,-1,11
 351 579 351 579 350 586 c 1,12,13
 319 500 319 500 312 486 c 0,14,15
 216 279 216 279 124 99 c 1,6,-1
EndSplineSet
EndChar

StartChar: product
Encoding: 8719 8719 234
Width: 867
Flags: HMW
HStem: -229 21G<189 325 189 189 609 744 609 609> 633 99<89 189 89 846 325 325 325 609 744 744 744 846>
VStem: 189 136<-229 633 -229 633> 609 135<-229 633 -229 633>
LayerCount: 2
Fore
SplineSet
189 633 m 1,0,-1
 89 633 l 1,1,-1
 89 732 l 1,2,-1
 846 732 l 1,3,-1
 846 633 l 1,4,-1
 744 633 l 1,5,-1
 744 -229 l 1,6,-1
 609 -229 l 1,7,-1
 609 633 l 1,8,-1
 325 633 l 1,9,-1
 325 -229 l 1,10,-1
 189 -229 l 1,11,-1
 189 633 l 1,0,-1
EndSplineSet
EndChar

StartChar: summation
Encoding: 8721 8721 235
Width: 808
Flags: HMW
HStem: -229 137<89 703 202 703 202 703> 633 99<89 693 244 244 244 693>
LayerCount: 2
Fore
SplineSet
89 -229 m 1,0,-1
 89 -99 l 1,1,-1
 361 277 l 1,2,-1
 89 633 l 1,3,-1
 89 732 l 1,4,-1
 693 732 l 1,5,-1
 693 633 l 1,6,-1
 244 633 l 1,7,8
 288 586 288 586 293 580 c 2,9,-1
 501 310 l 1,10,-1
 249 -41 l 2,11,12
 237 -57 237 -57 222 -72 c 2,13,14
 202 -92 l 1,15,-1
 703 -92 l 1,16,-1
 703 -229 l 1,17,-1
 89 -229 l 1,0,-1
EndSplineSet
EndChar

StartChar: minus
Encoding: 8722 8722 236
Width: 629
Flags: HMW
HStem: 205 88<58 554 58 554>
LayerCount: 2
Fore
SplineSet
554 205 m 1,0,-1
 58 205 l 1,1,-1
 58 293 l 1,2,-1
 554 293 l 1,3,-1
 554 205 l 1,0,-1
EndSplineSet
EndChar

StartChar: radical
Encoding: 8730 8730 237
Width: 614
Flags: HMW
HStem: -230 21G<242 352 242 242> 948 20G<601 694 694 694>
LayerCount: 2
Fore
SplineSet
12 176 m 1,0,-1
 -13 257 l 1,1,-1
 177 324 l 1,2,-1
 304 -78 l 1,3,-1
 601 968 l 1,4,-1
 694 968 l 1,5,-1
 352 -230 l 1,6,-1
 242 -230 l 1,7,-1
 102 206 l 1,8,-1
 12 176 l 1,0,-1
EndSplineSet
EndChar

StartChar: infinity
Encoding: 8734 8734 238
Width: 768
Flags: HMW
HStem: 74 110<183.5 227.5 183.5 241.5 524.5 568.5> 314 110<183.5 227.5 524.5 568.5>
VStem: 40 99<229 269 229 299.5> 613 99<229 269>
LayerCount: 2
Fore
SplineSet
40 249 m 128,-1,1
 40 326 40 326 84.5 375 c 128,-1,2
 129 424 129 424 205 424 c 0,3,4
 239 424 239 424 273 405.5 c 128,-1,5
 307 387 307 387 326.5 368.5 c 128,-1,6
 346 350 346 350 376 317 c 1,7,8
 466 424 466 424 544.5 424 c 0,9,10
 623 424 623 424 667.5 375 c 128,-1,11
 712 326 712 326 712 249 c 128,-1,12
 712 172 712 172 667.5 123 c 128,-1,13
 623 74 623 74 544.5 74 c 0,14,15
 466 74 466 74 376 181 c 1,16,17
 346 148 346 148 326.5 129.5 c 128,-1,18
 307 111 307 111 273 92.5 c 128,-1,19
 239 74 239 74 205 74 c 0,20,21
 129 74 129 74 84.5 123 c 128,-1,0
 40 172 40 172 40 249 c 128,-1,1
139 249 m 128,-1,23
 139 219 139 219 156 201.5 c 128,-1,24
 173 184 173 184 204 184 c 0,25,26
 255 184 255 184 316 249 c 1,27,28
 255 314 255 314 204 314 c 0,29,30
 173 314 173 314 156 296.5 c 128,-1,22
 139 279 139 279 139 249 c 128,-1,23
436 249 m 1,31,32
 497 184 497 184 548 184 c 0,33,34
 579 184 579 184 596 201.5 c 128,-1,35
 613 219 613 219 613 249 c 128,-1,36
 613 279 613 279 596 296.5 c 128,-1,37
 579 314 579 314 548 314 c 0,38,39
 497 314 497 314 436 249 c 1,31,32
EndSplineSet
EndChar

StartChar: integral
Encoding: 8747 8747 239
Width: 281
Flags: HMW
HStem: -227 80<-25 9 -25 54.5> 662 80<246 280>
VStem: -25 222<-227 -10 -147 -10> 75 205<-34 742 525 742>
LayerCount: 2
Fore
SplineSet
-25 -227 m 1,0,-1
 -25 -147 l 1,1,2
 23 -147 23 -147 49 -114.5 c 128,-1,3
 75 -82 75 -82 75 -34 c 2,4,-1
 75 525 l 2,5,6
 75 637 75 637 120 689.5 c 128,-1,7
 165 742 165 742 280 742 c 1,8,-1
 280 662 l 1,9,10
 197 662 197 662 197 549 c 2,11,-1
 197 -10 l 2,12,13
 197 -122 197 -122 145 -174.5 c 128,-1,14
 93 -227 93 -227 -25 -227 c 1,0,-1
EndSplineSet
EndChar

StartChar: approxequal
Encoding: 8776 8776 240
Width: 598
Flags: HMW
HStem: 79 88<368.5 413.5 368.5 435> 149 88<171.5 216.5> 270 88<368.5 413.5 368.5 435> 340 88<171.5 216.5>
LayerCount: 2
Fore
SplineSet
108 90 m 1,0,-1
 38 135 l 1,1,2
 60 177 60 177 98.5 207 c 128,-1,3
 137 237 137 237 183 237 c 0,4,5
 229 237 229 237 301 202 c 128,-1,6
 373 167 373 167 396 167 c 0,7,8
 438 167 438 167 477 226 c 1,9,-1
 547 181 l 1,10,11
 526 139 526 139 487 109 c 128,-1,12
 448 79 448 79 402 79 c 0,13,14
 356 79 356 79 284 114 c 128,-1,15
 212 149 212 149 189 149 c 0,16,17
 147 149 147 149 108 90 c 1,0,-1
108 281 m 1,18,-1
 38 326 l 1,19,20
 60 368 60 368 98.5 398 c 128,-1,21
 137 428 137 428 183 428 c 0,22,23
 229 428 229 428 301 393 c 128,-1,24
 373 358 373 358 396 358 c 0,25,26
 438 358 438 358 477 417 c 1,27,-1
 547 372 l 1,28,29
 526 330 526 330 487 300 c 128,-1,30
 448 270 448 270 402 270 c 0,31,32
 356 270 356 270 284 305 c 128,-1,33
 212 340 212 340 189 340 c 0,34,35
 147 340 147 340 108 281 c 1,18,-1
EndSplineSet
EndChar

StartChar: notequal
Encoding: 8800 8800 241
Width: 597
Flags: HMW
HStem: 0 197<122 214 41 217 122 122> 109 88<41 173 41 214 41 268 310 539> 302 88<41 262 41 303 41 359 401 539> 302 195<41 451 359 359 359 451 353 539>
LayerCount: 2
Fore
SplineSet
173 109 m 1,0,-1
 41 109 l 1,1,-1
 41 197 l 1,2,-1
 214 197 l 1,3,-1
 262 302 l 1,4,-1
 41 302 l 1,5,-1
 41 390 l 1,6,-1
 303 390 l 1,7,-1
 353 497 l 1,8,-1
 451 497 l 1,9,-1
 401 390 l 1,10,-1
 539 390 l 1,11,-1
 539 302 l 1,12,-1
 359 302 l 1,13,-1
 310 197 l 1,14,-1
 539 197 l 1,15,-1
 539 109 l 1,16,-1
 268 109 l 1,17,-1
 217 0 l 1,18,-1
 122 0 l 1,19,-1
 173 109 l 1,0,-1
EndSplineSet
EndChar

